<svg width="220" height="40" viewBox="0 0 220 40" fill="none" xmlns="http://www.w3.org/2000/svg">
<rect width="220" height="40" fill="white"/>
<rect width="220" height="40" rx="10" fill="#FF765D"/>
<path d="M70.2061 27H67.7761V13.986H70.2061V27ZM74.7253 19.368C75.0133 18.816 75.3553 18.384 75.7513 18.072C76.1473 17.754 76.6153 17.595 77.1553 17.595C77.5813 17.595 77.9233 17.688 78.1813 17.874L78.0373 19.539C78.0073 19.647 77.9623 19.725 77.9023 19.773C77.8483 19.815 77.7733 19.836 77.6773 19.836C77.5873 19.836 77.4523 19.821 77.2723 19.791C77.0983 19.761 76.9273 19.746 76.7593 19.746C76.5133 19.746 76.2943 19.782 76.1023 19.854C75.9103 19.926 75.7363 20.031 75.5803 20.169C75.4303 20.301 75.2953 20.463 75.1753 20.655C75.0613 20.847 74.9533 21.066 74.8513 21.312V27H72.6283V17.766H73.9333C74.1613 17.766 74.3203 17.808 74.4103 17.892C74.5003 17.97 74.5603 18.114 74.5903 18.324L74.7253 19.368ZM88.2114 23.058C87.5694 23.088 87.0294 23.145 86.5914 23.229C86.1534 23.307 85.8024 23.409 85.5384 23.535C85.2744 23.661 85.0854 23.808 84.9714 23.976C84.8574 24.144 84.8004 24.327 84.8004 24.525C84.8004 24.915 84.9144 25.194 85.1424 25.362C85.3764 25.53 85.6794 25.614 86.0514 25.614C86.5074 25.614 86.9004 25.533 87.2304 25.371C87.5664 25.203 87.8934 24.951 88.2114 24.615V23.058ZM83.1174 19.053C84.1794 18.081 85.4574 17.595 86.9514 17.595C87.4914 17.595 87.9744 17.685 88.4004 17.865C88.8264 18.039 89.1864 18.285 89.4804 18.603C89.7744 18.915 89.9964 19.29 90.1464 19.728C90.3024 20.166 90.3804 20.646 90.3804 21.168V27H89.3724C89.1624 27 89.0004 26.97 88.8864 26.91C88.7724 26.844 88.6824 26.715 88.6164 26.523L88.4184 25.857C88.1844 26.067 87.9564 26.253 87.7344 26.415C87.5124 26.571 87.2814 26.703 87.0414 26.811C86.8014 26.919 86.5434 27 86.2674 27.054C85.9974 27.114 85.6974 27.144 85.3674 27.144C84.9774 27.144 84.6174 27.093 84.2874 26.991C83.9574 26.883 83.6724 26.724 83.4324 26.514C83.1924 26.304 83.0064 26.043 82.8744 25.731C82.7424 25.419 82.6764 25.056 82.6764 24.642C82.6764 24.408 82.7154 24.177 82.7934 23.949C82.8714 23.715 82.9974 23.493 83.1714 23.283C83.3514 23.073 83.5824 22.875 83.8644 22.689C84.1464 22.503 84.4914 22.341 84.8994 22.203C85.3134 22.065 85.7934 21.954 86.3394 21.87C86.8854 21.78 87.5094 21.726 88.2114 21.708V21.168C88.2114 20.55 88.0794 20.094 87.8154 19.8C87.5514 19.5 87.1704 19.35 86.6724 19.35C86.3124 19.35 86.0124 19.392 85.7724 19.476C85.5384 19.56 85.3314 19.656 85.1514 19.764C84.9714 19.866 84.8064 19.959 84.6564 20.043C84.5124 20.127 84.3504 20.169 84.1704 20.169C84.0144 20.169 83.8824 20.13 83.7744 20.052C83.6664 19.968 83.5794 19.872 83.5134 19.764L83.1174 19.053ZM96.8509 27V17.766H98.2099C98.4979 17.766 98.6869 17.901 98.7769 18.171L98.9209 18.855C99.0829 18.675 99.2509 18.51 99.4249 18.36C99.6049 18.21 99.7939 18.081 99.9919 17.973C100.196 17.865 100.412 17.781 100.64 17.721C100.874 17.655 101.129 17.622 101.405 17.622C101.987 17.622 102.464 17.781 102.836 18.099C103.214 18.411 103.496 18.828 103.682 19.35C103.826 19.044 104.006 18.783 104.222 18.567C104.438 18.345 104.675 18.165 104.933 18.027C105.191 17.889 105.464 17.787 105.752 17.721C106.046 17.655 106.34 17.622 106.634 17.622C107.144 17.622 107.597 17.7 107.993 17.856C108.389 18.012 108.722 18.24 108.992 18.54C109.262 18.84 109.466 19.206 109.604 19.638C109.748 20.07 109.82 20.565 109.82 21.123V27H107.597V21.123C107.597 20.535 107.468 20.094 107.21 19.8C106.952 19.5 106.574 19.35 106.076 19.35C105.848 19.35 105.635 19.389 105.437 19.467C105.245 19.545 105.074 19.659 104.924 19.809C104.78 19.953 104.666 20.136 104.582 20.358C104.498 20.58 104.456 20.835 104.456 21.123V27H102.224V21.123C102.224 20.505 102.098 20.055 101.846 19.773C101.6 19.491 101.237 19.35 100.757 19.35C100.433 19.35 100.13 19.431 99.8479 19.593C99.5719 19.749 99.3139 19.965 99.0739 20.241V27H96.8509ZM116.811 23.058C116.169 23.088 115.629 23.145 115.191 23.229C114.753 23.307 114.402 23.409 114.138 23.535C113.874 23.661 113.685 23.808 113.571 23.976C113.457 24.144 113.4 24.327 113.4 24.525C113.4 24.915 113.514 25.194 113.742 25.362C113.976 25.53 114.279 25.614 114.651 25.614C115.107 25.614 115.5 25.533 115.83 25.371C116.166 25.203 116.493 24.951 116.811 24.615V23.058ZM111.717 19.053C112.779 18.081 114.057 17.595 115.551 17.595C116.091 17.595 116.574 17.685 117 17.865C117.426 18.039 117.786 18.285 118.08 18.603C118.374 18.915 118.596 19.29 118.746 19.728C118.902 20.166 118.98 20.646 118.98 21.168V27H117.972C117.762 27 117.6 26.97 117.486 26.91C117.372 26.844 117.282 26.715 117.216 26.523L117.018 25.857C116.784 26.067 116.556 26.253 116.334 26.415C116.112 26.571 115.881 26.703 115.641 26.811C115.401 26.919 115.143 27 114.867 27.054C114.597 27.114 114.297 27.144 113.967 27.144C113.577 27.144 113.217 27.093 112.887 26.991C112.557 26.883 112.272 26.724 112.032 26.514C111.792 26.304 111.606 26.043 111.474 25.731C111.342 25.419 111.276 25.056 111.276 24.642C111.276 24.408 111.315 24.177 111.393 23.949C111.471 23.715 111.597 23.493 111.771 23.283C111.951 23.073 112.182 22.875 112.464 22.689C112.746 22.503 113.091 22.341 113.499 22.203C113.913 22.065 114.393 21.954 114.939 21.87C115.485 21.78 116.109 21.726 116.811 21.708V21.168C116.811 20.55 116.679 20.094 116.415 19.8C116.151 19.5 115.77 19.35 115.272 19.35C114.912 19.35 114.612 19.392 114.372 19.476C114.138 19.56 113.931 19.656 113.751 19.764C113.571 19.866 113.406 19.959 113.256 20.043C113.112 20.127 112.95 20.169 112.77 20.169C112.614 20.169 112.482 20.13 112.374 20.052C112.266 19.968 112.179 19.872 112.113 19.764L111.717 19.053ZM125.952 23.058C125.31 23.088 124.77 23.145 124.332 23.229C123.894 23.307 123.543 23.409 123.279 23.535C123.015 23.661 122.826 23.808 122.712 23.976C122.598 24.144 122.541 24.327 122.541 24.525C122.541 24.915 122.655 25.194 122.883 25.362C123.117 25.53 123.42 25.614 123.792 25.614C124.248 25.614 124.641 25.533 124.971 25.371C125.307 25.203 125.634 24.951 125.952 24.615V23.058ZM120.858 19.053C121.92 18.081 123.198 17.595 124.692 17.595C125.232 17.595 125.715 17.685 126.141 17.865C126.567 18.039 126.927 18.285 127.221 18.603C127.515 18.915 127.737 19.29 127.887 19.728C128.043 20.166 128.121 20.646 128.121 21.168V27H127.113C126.903 27 126.741 26.97 126.627 26.91C126.513 26.844 126.423 26.715 126.357 26.523L126.159 25.857C125.925 26.067 125.697 26.253 125.475 26.415C125.253 26.571 125.022 26.703 124.782 26.811C124.542 26.919 124.284 27 124.008 27.054C123.738 27.114 123.438 27.144 123.108 27.144C122.718 27.144 122.358 27.093 122.028 26.991C121.698 26.883 121.413 26.724 121.173 26.514C120.933 26.304 120.747 26.043 120.615 25.731C120.483 25.419 120.417 25.056 120.417 24.642C120.417 24.408 120.456 24.177 120.534 23.949C120.612 23.715 120.738 23.493 120.912 23.283C121.092 23.073 121.323 22.875 121.605 22.689C121.887 22.503 122.232 22.341 122.64 22.203C123.054 22.065 123.534 21.954 124.08 21.87C124.626 21.78 125.25 21.726 125.952 21.708V21.168C125.952 20.55 125.82 20.094 125.556 19.8C125.292 19.5 124.911 19.35 124.413 19.35C124.053 19.35 123.753 19.392 123.513 19.476C123.279 19.56 123.072 19.656 122.892 19.764C122.712 19.866 122.547 19.959 122.397 20.043C122.253 20.127 122.091 20.169 121.911 20.169C121.755 20.169 121.623 20.13 121.515 20.052C121.407 19.968 121.32 19.872 121.254 19.764L120.858 19.053ZM133.169 27.144C132.365 27.144 131.747 26.919 131.315 26.469C130.889 26.013 130.676 25.386 130.676 24.588V19.431H129.731C129.611 19.431 129.509 19.392 129.425 19.314C129.341 19.236 129.299 19.119 129.299 18.963V18.081L130.784 17.838L131.252 15.318C131.282 15.198 131.339 15.105 131.423 15.039C131.507 14.973 131.615 14.94 131.747 14.94H132.899V17.847H135.365V19.431H132.899V24.435C132.899 24.723 132.968 24.948 133.106 25.11C133.25 25.272 133.445 25.353 133.691 25.353C133.829 25.353 133.943 25.338 134.033 25.308C134.129 25.272 134.21 25.236 134.276 25.2C134.348 25.164 134.411 25.131 134.465 25.101C134.519 25.065 134.573 25.047 134.627 25.047C134.693 25.047 134.747 25.065 134.789 25.101C134.831 25.131 134.876 25.179 134.924 25.245L135.59 26.325C135.266 26.595 134.894 26.799 134.474 26.937C134.054 27.075 133.619 27.144 133.169 27.144ZM136.464 25.776C136.464 25.59 136.497 25.413 136.563 25.245C136.635 25.077 136.731 24.933 136.851 24.813C136.971 24.693 137.115 24.597 137.283 24.525C137.451 24.453 137.631 24.417 137.823 24.417C138.015 24.417 138.192 24.453 138.354 24.525C138.522 24.597 138.666 24.693 138.786 24.813C138.912 24.933 139.011 25.077 139.083 25.245C139.155 25.413 139.191 25.59 139.191 25.776C139.191 25.968 139.155 26.148 139.083 26.316C139.011 26.478 138.912 26.619 138.786 26.739C138.666 26.859 138.522 26.952 138.354 27.018C138.192 27.09 138.015 27.126 137.823 27.126C137.631 27.126 137.451 27.09 137.283 27.018C137.115 26.952 136.971 26.859 136.851 26.739C136.731 26.619 136.635 26.478 136.563 26.316C136.497 26.148 136.464 25.968 136.464 25.776ZM145.938 23.058C145.296 23.088 144.756 23.145 144.318 23.229C143.88 23.307 143.529 23.409 143.265 23.535C143.001 23.661 142.812 23.808 142.698 23.976C142.584 24.144 142.527 24.327 142.527 24.525C142.527 24.915 142.641 25.194 142.869 25.362C143.103 25.53 143.406 25.614 143.778 25.614C144.234 25.614 144.627 25.533 144.957 25.371C145.293 25.203 145.62 24.951 145.938 24.615V23.058ZM140.844 19.053C141.906 18.081 143.184 17.595 144.678 17.595C145.218 17.595 145.701 17.685 146.127 17.865C146.553 18.039 146.913 18.285 147.207 18.603C147.501 18.915 147.723 19.29 147.873 19.728C148.029 20.166 148.107 20.646 148.107 21.168V27H147.099C146.889 27 146.727 26.97 146.613 26.91C146.499 26.844 146.409 26.715 146.343 26.523L146.145 25.857C145.911 26.067 145.683 26.253 145.461 26.415C145.239 26.571 145.008 26.703 144.768 26.811C144.528 26.919 144.27 27 143.994 27.054C143.724 27.114 143.424 27.144 143.094 27.144C142.704 27.144 142.344 27.093 142.014 26.991C141.684 26.883 141.399 26.724 141.159 26.514C140.919 26.304 140.733 26.043 140.601 25.731C140.469 25.419 140.403 25.056 140.403 24.642C140.403 24.408 140.442 24.177 140.52 23.949C140.598 23.715 140.724 23.493 140.898 23.283C141.078 23.073 141.309 22.875 141.591 22.689C141.873 22.503 142.218 22.341 142.626 22.203C143.04 22.065 143.52 21.954 144.066 21.87C144.612 21.78 145.236 21.726 145.938 21.708V21.168C145.938 20.55 145.806 20.094 145.542 19.8C145.278 19.5 144.897 19.35 144.399 19.35C144.039 19.35 143.739 19.392 143.499 19.476C143.265 19.56 143.058 19.656 142.878 19.764C142.698 19.866 142.533 19.959 142.383 20.043C142.239 20.127 142.077 20.169 141.897 20.169C141.741 20.169 141.609 20.13 141.501 20.052C141.393 19.968 141.306 19.872 141.24 19.764L140.844 19.053ZM152.505 17.766V27H150.273V17.766H152.505ZM152.811 15.075C152.811 15.267 152.772 15.447 152.694 15.615C152.616 15.783 152.511 15.93 152.379 16.056C152.253 16.182 152.103 16.284 151.929 16.362C151.755 16.434 151.569 16.47 151.371 16.47C151.179 16.47 150.996 16.434 150.822 16.362C150.654 16.284 150.507 16.182 150.381 16.056C150.255 15.93 150.153 15.783 150.075 15.615C150.003 15.447 149.967 15.267 149.967 15.075C149.967 14.877 150.003 14.691 150.075 14.517C150.153 14.343 150.255 14.193 150.381 14.067C150.507 13.941 150.654 13.842 150.822 13.77C150.996 13.692 151.179 13.653 151.371 13.653C151.569 13.653 151.755 13.692 151.929 13.77C152.103 13.842 152.253 13.941 152.379 14.067C152.511 14.193 152.616 14.343 152.694 14.517C152.772 14.691 152.811 14.877 152.811 15.075Z" fill="white"/>
</svg>
