<svg width="220" height="40" viewBox="0 0 220 40" fill="none" xmlns="http://www.w3.org/2000/svg">
<rect width="220" height="40" fill="white"/>
<rect width="220" height="40" rx="10" fill="#FF765D"/>
<path d="M30.4494 18.178C30.9054 18.178 31.3014 18.121 31.6374 18.007C31.9794 17.893 32.2584 17.737 32.4744 17.539C32.6964 17.335 32.8614 17.095 32.9694 16.819C33.0774 16.543 33.1314 16.24 33.1314 15.91C33.1314 15.25 32.9124 14.743 32.4744 14.389C32.0424 14.035 31.3794 13.858 30.4854 13.858H28.9374V18.178H30.4494ZM36.6774 25H34.4904C34.0764 25 33.7764 24.838 33.5904 24.514L30.8544 20.347C30.7524 20.191 30.6384 20.08 30.5124 20.014C30.3924 19.948 30.2124 19.915 29.9724 19.915H28.9374V25H26.5164V11.986H30.4854C31.3674 11.986 32.1234 12.079 32.7534 12.265C33.3894 12.445 33.9084 12.7 34.3104 13.03C34.7184 13.36 35.0184 13.756 35.2104 14.218C35.4024 14.674 35.4984 15.178 35.4984 15.73C35.4984 16.168 35.4324 16.582 35.3004 16.972C35.1744 17.362 34.9884 17.716 34.7424 18.034C34.5024 18.352 34.2024 18.631 33.8424 18.871C33.4884 19.111 33.0834 19.3 32.6274 19.438C32.7834 19.528 32.9274 19.636 33.0594 19.762C33.1914 19.882 33.3114 20.026 33.4194 20.194L36.6774 25ZM43.0831 19.321C43.0831 19.033 43.0411 18.763 42.9571 18.511C42.8791 18.253 42.7591 18.028 42.5971 17.836C42.4351 17.644 42.2281 17.494 41.9761 17.386C41.7301 17.272 41.4421 17.215 41.1121 17.215C40.4701 17.215 39.9631 17.398 39.5911 17.764C39.2251 18.13 38.9911 18.649 38.8891 19.321H43.0831ZM38.8441 20.662C38.8801 21.136 38.9641 21.547 39.0961 21.895C39.2281 22.237 39.4021 22.522 39.6181 22.75C39.8341 22.972 40.0891 23.14 40.3831 23.254C40.6831 23.362 41.0131 23.416 41.3731 23.416C41.7331 23.416 42.0421 23.374 42.3001 23.29C42.5641 23.206 42.7921 23.113 42.9841 23.011C43.1821 22.909 43.3531 22.816 43.4971 22.732C43.6471 22.648 43.7911 22.606 43.9291 22.606C44.1151 22.606 44.2531 22.675 44.3431 22.813L44.9821 23.623C44.7361 23.911 44.4601 24.154 44.1541 24.352C43.8481 24.544 43.5271 24.7 43.1911 24.82C42.8611 24.934 42.5221 25.015 42.1741 25.063C41.8321 25.111 41.4991 25.135 41.1751 25.135C40.5331 25.135 39.9361 25.03 39.3841 24.82C38.8321 24.604 38.3521 24.289 37.9441 23.875C37.5361 23.455 37.2151 22.939 36.9811 22.327C36.7471 21.709 36.6301 20.995 36.6301 20.185C36.6301 19.555 36.7321 18.964 36.9361 18.412C37.1401 17.854 37.4311 17.371 37.8091 16.963C38.1931 16.549 38.6581 16.222 39.2041 15.982C39.7561 15.742 40.3771 15.622 41.0671 15.622C41.6491 15.622 42.1861 15.715 42.6781 15.901C43.1701 16.087 43.5931 16.36 43.9471 16.72C44.3011 17.074 44.5771 17.512 44.7751 18.034C44.9791 18.55 45.0811 19.141 45.0811 19.807C45.0811 20.143 45.0451 20.371 44.9731 20.491C44.9011 20.605 44.7631 20.662 44.5591 20.662H38.8441ZM53.3644 17.719C53.2984 17.803 53.2324 17.869 53.1664 17.917C53.1064 17.965 53.0164 17.989 52.8964 17.989C52.7824 17.989 52.6714 17.956 52.5634 17.89C52.4554 17.818 52.3264 17.74 52.1764 17.656C52.0264 17.566 51.8464 17.488 51.6364 17.422C51.4324 17.35 51.1774 17.314 50.8714 17.314C50.4814 17.314 50.1394 17.386 49.8454 17.53C49.5514 17.668 49.3054 17.869 49.1074 18.133C48.9154 18.397 48.7714 18.718 48.6754 19.096C48.5794 19.468 48.5314 19.891 48.5314 20.365C48.5314 20.857 48.5824 21.295 48.6844 21.679C48.7924 22.063 48.9454 22.387 49.1434 22.651C49.3414 22.909 49.5814 23.107 49.8634 23.245C50.1454 23.377 50.4634 23.443 50.8174 23.443C51.1714 23.443 51.4564 23.401 51.6724 23.317C51.8944 23.227 52.0804 23.131 52.2304 23.029C52.3804 22.921 52.5094 22.825 52.6174 22.741C52.7314 22.651 52.8574 22.606 52.9954 22.606C53.1754 22.606 53.3104 22.675 53.4004 22.813L54.0394 23.623C53.7934 23.911 53.5264 24.154 53.2384 24.352C52.9504 24.544 52.6504 24.7 52.3384 24.82C52.0324 24.934 51.7144 25.015 51.3844 25.063C51.0604 25.111 50.7364 25.135 50.4124 25.135C49.8424 25.135 49.3054 25.03 48.8014 24.82C48.2974 24.604 47.8564 24.292 47.4784 23.884C47.1004 23.476 46.8004 22.978 46.5784 22.39C46.3624 21.796 46.2544 21.121 46.2544 20.365C46.2544 19.687 46.3504 19.06 46.5424 18.484C46.7404 17.902 47.0284 17.401 47.4064 16.981C47.7844 16.555 48.2524 16.222 48.8104 15.982C49.3684 15.742 50.0104 15.622 50.7364 15.622C51.4264 15.622 52.0294 15.733 52.5454 15.955C53.0674 16.177 53.5354 16.495 53.9494 16.909L53.3644 17.719ZM63.389 15.766V25H62.03C61.736 25 61.55 24.865 61.472 24.595L61.319 23.857C60.941 24.241 60.524 24.553 60.068 24.793C59.612 25.027 59.075 25.144 58.457 25.144C57.953 25.144 57.506 25.06 57.116 24.892C56.732 24.718 56.408 24.475 56.144 24.163C55.88 23.851 55.679 23.482 55.541 23.056C55.409 22.624 55.343 22.15 55.343 21.634V15.766H57.566V21.634C57.566 22.198 57.695 22.636 57.953 22.948C58.217 23.254 58.61 23.407 59.132 23.407C59.516 23.407 59.876 23.323 60.212 23.155C60.548 22.981 60.866 22.744 61.166 22.444V15.766H63.389ZM67.8161 22.606C68.0681 22.912 68.3411 23.128 68.6351 23.254C68.9351 23.38 69.2591 23.443 69.6071 23.443C69.9431 23.443 70.2461 23.38 70.5161 23.254C70.7861 23.128 71.0141 22.936 71.2001 22.678C71.3921 22.42 71.5391 22.096 71.6411 21.706C71.7431 21.31 71.7941 20.845 71.7941 20.311C71.7941 19.771 71.7491 19.315 71.6591 18.943C71.5751 18.565 71.4521 18.259 71.2901 18.025C71.1281 17.791 70.9301 17.62 70.6961 17.512C70.4681 17.404 70.2071 17.35 69.9131 17.35C69.4511 17.35 69.0581 17.449 68.7341 17.647C68.4101 17.839 68.1041 18.112 67.8161 18.466V22.606ZM67.6991 17.026C68.0771 16.6 68.5061 16.255 68.9861 15.991C69.4661 15.727 70.0301 15.595 70.6781 15.595C71.1821 15.595 71.6411 15.7 72.0551 15.91C72.4751 16.12 72.8351 16.426 73.1351 16.828C73.4411 17.224 73.6751 17.716 73.8371 18.304C74.0051 18.886 74.0891 19.555 74.0891 20.311C74.0891 21.001 73.9961 21.64 73.8101 22.228C73.6241 22.816 73.3571 23.326 73.0091 23.758C72.6671 24.19 72.2501 24.529 71.7581 24.775C71.2721 25.015 70.7261 25.135 70.1201 25.135C69.6041 25.135 69.1631 25.057 68.7971 24.901C68.4311 24.739 68.1041 24.517 67.8161 24.235V28.015H65.5931V15.766H66.9521C67.2401 15.766 67.4291 15.901 67.5191 16.171L67.6991 17.026ZM81.7726 19.321C81.7726 19.033 81.7306 18.763 81.6466 18.511C81.5686 18.253 81.4486 18.028 81.2866 17.836C81.1246 17.644 80.9176 17.494 80.6656 17.386C80.4196 17.272 80.1316 17.215 79.8016 17.215C79.1596 17.215 78.6526 17.398 78.2806 17.764C77.9146 18.13 77.6806 18.649 77.5786 19.321H81.7726ZM77.5336 20.662C77.5696 21.136 77.6536 21.547 77.7856 21.895C77.9176 22.237 78.0916 22.522 78.3076 22.75C78.5236 22.972 78.7786 23.14 79.0726 23.254C79.3726 23.362 79.7026 23.416 80.0626 23.416C80.4226 23.416 80.7316 23.374 80.9896 23.29C81.2536 23.206 81.4816 23.113 81.6736 23.011C81.8716 22.909 82.0426 22.816 82.1866 22.732C82.3366 22.648 82.4806 22.606 82.6186 22.606C82.8046 22.606 82.9426 22.675 83.0326 22.813L83.6716 23.623C83.4256 23.911 83.1496 24.154 82.8436 24.352C82.5376 24.544 82.2166 24.7 81.8806 24.82C81.5506 24.934 81.2116 25.015 80.8636 25.063C80.5216 25.111 80.1886 25.135 79.8646 25.135C79.2226 25.135 78.6256 25.03 78.0736 24.82C77.5216 24.604 77.0416 24.289 76.6336 23.875C76.2256 23.455 75.9046 22.939 75.6706 22.327C75.4366 21.709 75.3196 20.995 75.3196 20.185C75.3196 19.555 75.4216 18.964 75.6256 18.412C75.8296 17.854 76.1206 17.371 76.4986 16.963C76.8826 16.549 77.3476 16.222 77.8936 15.982C78.4456 15.742 79.0666 15.622 79.7566 15.622C80.3386 15.622 80.8756 15.715 81.3676 15.901C81.8596 16.087 82.2826 16.36 82.6366 16.72C82.9906 17.074 83.2666 17.512 83.4646 18.034C83.6686 18.55 83.7706 19.141 83.7706 19.807C83.7706 20.143 83.7346 20.371 83.6626 20.491C83.5906 20.605 83.4526 20.662 83.2486 20.662H77.5336ZM87.5358 17.368C87.8238 16.816 88.1658 16.384 88.5618 16.072C88.9578 15.754 89.4258 15.595 89.9658 15.595C90.3918 15.595 90.7338 15.688 90.9918 15.874L90.8478 17.539C90.8178 17.647 90.7728 17.725 90.7128 17.773C90.6588 17.815 90.5838 17.836 90.4878 17.836C90.3978 17.836 90.2628 17.821 90.0828 17.791C89.9088 17.761 89.7378 17.746 89.5698 17.746C89.3238 17.746 89.1048 17.782 88.9128 17.854C88.7208 17.926 88.5468 18.031 88.3908 18.169C88.2408 18.301 88.1058 18.463 87.9858 18.655C87.8718 18.847 87.7638 19.066 87.6618 19.312V25H85.4388V15.766H86.7438C86.9718 15.766 87.1308 15.808 87.2208 15.892C87.3108 15.97 87.3708 16.114 87.4008 16.324L87.5358 17.368ZM96.9086 21.058C96.2666 21.088 95.7266 21.145 95.2886 21.229C94.8506 21.307 94.4996 21.409 94.2356 21.535C93.9716 21.661 93.7826 21.808 93.6686 21.976C93.5546 22.144 93.4976 22.327 93.4976 22.525C93.4976 22.915 93.6116 23.194 93.8396 23.362C94.0736 23.53 94.3766 23.614 94.7486 23.614C95.2046 23.614 95.5976 23.533 95.9276 23.371C96.2636 23.203 96.5906 22.951 96.9086 22.615V21.058ZM91.8146 17.053C92.8766 16.081 94.1546 15.595 95.6486 15.595C96.1886 15.595 96.6716 15.685 97.0976 15.865C97.5236 16.039 97.8836 16.285 98.1776 16.603C98.4716 16.915 98.6936 17.29 98.8436 17.728C98.9996 18.166 99.0776 18.646 99.0776 19.168V25H98.0696C97.8596 25 97.6976 24.97 97.5836 24.91C97.4696 24.844 97.3796 24.715 97.3136 24.523L97.1156 23.857C96.8816 24.067 96.6536 24.253 96.4316 24.415C96.2096 24.571 95.9786 24.703 95.7386 24.811C95.4986 24.919 95.2406 25 94.9646 25.054C94.6946 25.114 94.3946 25.144 94.0646 25.144C93.6746 25.144 93.3146 25.093 92.9846 24.991C92.6546 24.883 92.3696 24.724 92.1296 24.514C91.8896 24.304 91.7036 24.043 91.5716 23.731C91.4396 23.419 91.3736 23.056 91.3736 22.642C91.3736 22.408 91.4126 22.177 91.4906 21.949C91.5686 21.715 91.6946 21.493 91.8686 21.283C92.0486 21.073 92.2796 20.875 92.5616 20.689C92.8436 20.503 93.1886 20.341 93.5966 20.203C94.0106 20.065 94.4906 19.954 95.0366 19.87C95.5826 19.78 96.2066 19.726 96.9086 19.708V19.168C96.9086 18.55 96.7766 18.094 96.5126 17.8C96.2486 17.5 95.8676 17.35 95.3696 17.35C95.0096 17.35 94.7096 17.392 94.4696 17.476C94.2356 17.56 94.0286 17.656 93.8486 17.764C93.6686 17.866 93.5036 17.959 93.3536 18.043C93.2096 18.127 93.0476 18.169 92.8676 18.169C92.7116 18.169 92.5796 18.13 92.4716 18.052C92.3636 17.968 92.2766 17.872 92.2106 17.764L91.8146 17.053ZM103.268 17.368C103.556 16.816 103.898 16.384 104.294 16.072C104.69 15.754 105.158 15.595 105.698 15.595C106.124 15.595 106.466 15.688 106.724 15.874L106.58 17.539C106.55 17.647 106.505 17.725 106.445 17.773C106.391 17.815 106.316 17.836 106.22 17.836C106.13 17.836 105.995 17.821 105.815 17.791C105.641 17.761 105.47 17.746 105.302 17.746C105.056 17.746 104.837 17.782 104.645 17.854C104.453 17.926 104.279 18.031 104.123 18.169C103.973 18.301 103.838 18.463 103.718 18.655C103.604 18.847 103.496 19.066 103.394 19.312V25H101.171V15.766H102.476C102.704 15.766 102.863 15.808 102.953 15.892C103.043 15.97 103.103 16.114 103.133 16.324L103.268 17.368ZM118.491 17.719C118.425 17.803 118.359 17.869 118.293 17.917C118.233 17.965 118.143 17.989 118.023 17.989C117.909 17.989 117.798 17.956 117.69 17.89C117.582 17.818 117.453 17.74 117.303 17.656C117.153 17.566 116.973 17.488 116.763 17.422C116.559 17.35 116.304 17.314 115.998 17.314C115.608 17.314 115.266 17.386 114.972 17.53C114.678 17.668 114.432 17.869 114.234 18.133C114.042 18.397 113.898 18.718 113.802 19.096C113.706 19.468 113.658 19.891 113.658 20.365C113.658 20.857 113.709 21.295 113.811 21.679C113.919 22.063 114.072 22.387 114.27 22.651C114.468 22.909 114.708 23.107 114.99 23.245C115.272 23.377 115.59 23.443 115.944 23.443C116.298 23.443 116.583 23.401 116.799 23.317C117.021 23.227 117.207 23.131 117.357 23.029C117.507 22.921 117.636 22.825 117.744 22.741C117.858 22.651 117.984 22.606 118.122 22.606C118.302 22.606 118.437 22.675 118.527 22.813L119.166 23.623C118.92 23.911 118.653 24.154 118.365 24.352C118.077 24.544 117.777 24.7 117.465 24.82C117.159 24.934 116.841 25.015 116.511 25.063C116.187 25.111 115.863 25.135 115.539 25.135C114.969 25.135 114.432 25.03 113.928 24.82C113.424 24.604 112.983 24.292 112.605 23.884C112.227 23.476 111.927 22.978 111.705 22.39C111.489 21.796 111.381 21.121 111.381 20.365C111.381 19.687 111.477 19.06 111.669 18.484C111.867 17.902 112.155 17.401 112.533 16.981C112.911 16.555 113.379 16.222 113.937 15.982C114.495 15.742 115.137 15.622 115.863 15.622C116.553 15.622 117.156 15.733 117.672 15.955C118.194 16.177 118.662 16.495 119.076 16.909L118.491 17.719ZM124.488 15.622C125.172 15.622 125.793 15.733 126.351 15.955C126.915 16.177 127.395 16.492 127.791 16.9C128.193 17.308 128.502 17.806 128.718 18.394C128.934 18.982 129.042 19.639 129.042 20.365C129.042 21.097 128.934 21.757 128.718 22.345C128.502 22.933 128.193 23.434 127.791 23.848C127.395 24.262 126.915 24.58 126.351 24.802C125.793 25.024 125.172 25.135 124.488 25.135C123.798 25.135 123.171 25.024 122.607 24.802C122.043 24.58 121.56 24.262 121.158 23.848C120.762 23.434 120.453 22.933 120.231 22.345C120.015 21.757 119.907 21.097 119.907 20.365C119.907 19.639 120.015 18.982 120.231 18.394C120.453 17.806 120.762 17.308 121.158 16.9C121.56 16.492 122.043 16.177 122.607 15.955C123.171 15.733 123.798 15.622 124.488 15.622ZM124.488 23.425C125.256 23.425 125.823 23.167 126.189 22.651C126.561 22.135 126.747 21.379 126.747 20.383C126.747 19.387 126.561 18.628 126.189 18.106C125.823 17.584 125.256 17.323 124.488 17.323C123.708 17.323 123.129 17.587 122.751 18.115C122.379 18.637 122.193 19.393 122.193 20.383C122.193 21.373 122.379 22.129 122.751 22.651C123.129 23.167 123.708 23.425 124.488 23.425ZM132.817 16.9C133.003 16.714 133.198 16.543 133.402 16.387C133.612 16.225 133.831 16.09 134.059 15.982C134.293 15.868 134.542 15.781 134.806 15.721C135.07 15.655 135.358 15.622 135.67 15.622C136.174 15.622 136.621 15.709 137.011 15.883C137.401 16.051 137.725 16.291 137.983 16.603C138.247 16.909 138.445 17.278 138.577 17.71C138.715 18.136 138.784 18.607 138.784 19.123V25H136.561V19.123C136.561 18.559 136.432 18.124 136.174 17.818C135.916 17.506 135.523 17.35 134.995 17.35C134.611 17.35 134.251 17.437 133.915 17.611C133.579 17.785 133.261 18.022 132.961 18.322V25H130.738V15.766H132.097C132.385 15.766 132.574 15.901 132.664 16.171L132.817 16.9ZM143.853 25.144C143.049 25.144 142.431 24.919 141.999 24.469C141.573 24.013 141.36 23.386 141.36 22.588V17.431H140.415C140.295 17.431 140.193 17.392 140.109 17.314C140.025 17.236 139.983 17.119 139.983 16.963V16.081L141.468 15.838L141.936 13.318C141.966 13.198 142.023 13.105 142.107 13.039C142.191 12.973 142.299 12.94 142.431 12.94H143.583V15.847H146.049V17.431H143.583V22.435C143.583 22.723 143.652 22.948 143.79 23.11C143.934 23.272 144.129 23.353 144.375 23.353C144.513 23.353 144.627 23.338 144.717 23.308C144.813 23.272 144.894 23.236 144.96 23.2C145.032 23.164 145.095 23.131 145.149 23.101C145.203 23.065 145.257 23.047 145.311 23.047C145.377 23.047 145.431 23.065 145.473 23.101C145.515 23.131 145.56 23.179 145.608 23.245L146.274 24.325C145.95 24.595 145.578 24.799 145.158 24.937C144.738 25.075 144.303 25.144 143.853 25.144ZM149.569 17.368C149.857 16.816 150.199 16.384 150.595 16.072C150.991 15.754 151.459 15.595 151.999 15.595C152.425 15.595 152.767 15.688 153.025 15.874L152.881 17.539C152.851 17.647 152.806 17.725 152.746 17.773C152.692 17.815 152.617 17.836 152.521 17.836C152.431 17.836 152.296 17.821 152.116 17.791C151.942 17.761 151.771 17.746 151.603 17.746C151.357 17.746 151.138 17.782 150.946 17.854C150.754 17.926 150.58 18.031 150.424 18.169C150.274 18.301 150.139 18.463 150.019 18.655C149.905 18.847 149.797 19.066 149.695 19.312V25H147.472V15.766H148.777C149.005 15.766 149.164 15.808 149.254 15.892C149.344 15.97 149.404 16.114 149.434 16.324L149.569 17.368ZM158.942 21.058C158.3 21.088 157.76 21.145 157.322 21.229C156.884 21.307 156.533 21.409 156.269 21.535C156.005 21.661 155.816 21.808 155.702 21.976C155.588 22.144 155.531 22.327 155.531 22.525C155.531 22.915 155.645 23.194 155.873 23.362C156.107 23.53 156.41 23.614 156.782 23.614C157.238 23.614 157.631 23.533 157.961 23.371C158.297 23.203 158.624 22.951 158.942 22.615V21.058ZM153.848 17.053C154.91 16.081 156.188 15.595 157.682 15.595C158.222 15.595 158.705 15.685 159.131 15.865C159.557 16.039 159.917 16.285 160.211 16.603C160.505 16.915 160.727 17.29 160.877 17.728C161.033 18.166 161.111 18.646 161.111 19.168V25H160.103C159.893 25 159.731 24.97 159.617 24.91C159.503 24.844 159.413 24.715 159.347 24.523L159.149 23.857C158.915 24.067 158.687 24.253 158.465 24.415C158.243 24.571 158.012 24.703 157.772 24.811C157.532 24.919 157.274 25 156.998 25.054C156.728 25.114 156.428 25.144 156.098 25.144C155.708 25.144 155.348 25.093 155.018 24.991C154.688 24.883 154.403 24.724 154.163 24.514C153.923 24.304 153.737 24.043 153.605 23.731C153.473 23.419 153.407 23.056 153.407 22.642C153.407 22.408 153.446 22.177 153.524 21.949C153.602 21.715 153.728 21.493 153.902 21.283C154.082 21.073 154.313 20.875 154.595 20.689C154.877 20.503 155.222 20.341 155.63 20.203C156.044 20.065 156.524 19.954 157.07 19.87C157.616 19.78 158.24 19.726 158.942 19.708V19.168C158.942 18.55 158.81 18.094 158.546 17.8C158.282 17.5 157.901 17.35 157.403 17.35C157.043 17.35 156.743 17.392 156.503 17.476C156.269 17.56 156.062 17.656 155.882 17.764C155.702 17.866 155.537 17.959 155.387 18.043C155.243 18.127 155.081 18.169 154.901 18.169C154.745 18.169 154.613 18.13 154.505 18.052C154.397 17.968 154.31 17.872 154.244 17.764L153.848 17.053ZM168.838 17.566C168.778 17.662 168.715 17.731 168.649 17.773C168.583 17.809 168.499 17.827 168.397 17.827C168.289 17.827 168.172 17.797 168.046 17.737C167.926 17.677 167.785 17.611 167.623 17.539C167.461 17.461 167.275 17.392 167.065 17.332C166.861 17.272 166.618 17.242 166.336 17.242C165.898 17.242 165.553 17.335 165.301 17.521C165.055 17.707 164.932 17.95 164.932 18.25C164.932 18.448 164.995 18.616 165.121 18.754C165.253 18.886 165.424 19.003 165.634 19.105C165.85 19.207 166.093 19.3 166.363 19.384C166.633 19.462 166.906 19.549 167.182 19.645C167.464 19.741 167.74 19.852 168.01 19.978C168.28 20.098 168.52 20.254 168.73 20.446C168.946 20.632 169.117 20.857 169.243 21.121C169.375 21.385 169.441 21.703 169.441 22.075C169.441 22.519 169.36 22.93 169.198 23.308C169.042 23.68 168.808 24.004 168.496 24.28C168.184 24.55 167.797 24.763 167.335 24.919C166.879 25.069 166.351 25.144 165.751 25.144C165.433 25.144 165.121 25.114 164.815 25.054C164.515 25 164.224 24.922 163.942 24.82C163.666 24.718 163.408 24.598 163.168 24.46C162.934 24.322 162.727 24.172 162.547 24.01L163.06 23.164C163.126 23.062 163.204 22.984 163.294 22.93C163.384 22.876 163.498 22.849 163.636 22.849C163.774 22.849 163.903 22.888 164.023 22.966C164.149 23.044 164.293 23.128 164.455 23.218C164.617 23.308 164.806 23.392 165.022 23.47C165.244 23.548 165.523 23.587 165.859 23.587C166.123 23.587 166.348 23.557 166.534 23.497C166.726 23.431 166.882 23.347 167.002 23.245C167.128 23.143 167.218 23.026 167.272 22.894C167.332 22.756 167.362 22.615 167.362 22.471C167.362 22.255 167.296 22.078 167.164 21.94C167.038 21.802 166.867 21.682 166.651 21.58C166.441 21.478 166.198 21.388 165.922 21.31C165.652 21.226 165.373 21.136 165.085 21.04C164.803 20.944 164.524 20.833 164.248 20.707C163.978 20.575 163.735 20.41 163.519 20.212C163.309 20.014 163.138 19.771 163.006 19.483C162.88 19.195 162.817 18.847 162.817 18.439C162.817 18.061 162.892 17.701 163.042 17.359C163.192 17.017 163.411 16.72 163.699 16.468C163.993 16.21 164.356 16.006 164.788 15.856C165.226 15.7 165.73 15.622 166.3 15.622C166.936 15.622 167.515 15.727 168.037 15.937C168.559 16.147 168.994 16.423 169.342 16.765L168.838 17.566ZM177.064 19.321C177.064 19.033 177.022 18.763 176.938 18.511C176.86 18.253 176.74 18.028 176.578 17.836C176.416 17.644 176.209 17.494 175.957 17.386C175.711 17.272 175.423 17.215 175.093 17.215C174.451 17.215 173.944 17.398 173.572 17.764C173.206 18.13 172.972 18.649 172.87 19.321H177.064ZM172.825 20.662C172.861 21.136 172.945 21.547 173.077 21.895C173.209 22.237 173.383 22.522 173.599 22.75C173.815 22.972 174.07 23.14 174.364 23.254C174.664 23.362 174.994 23.416 175.354 23.416C175.714 23.416 176.023 23.374 176.281 23.29C176.545 23.206 176.773 23.113 176.965 23.011C177.163 22.909 177.334 22.816 177.478 22.732C177.628 22.648 177.772 22.606 177.91 22.606C178.096 22.606 178.234 22.675 178.324 22.813L178.963 23.623C178.717 23.911 178.441 24.154 178.135 24.352C177.829 24.544 177.508 24.7 177.172 24.82C176.842 24.934 176.503 25.015 176.155 25.063C175.813 25.111 175.48 25.135 175.156 25.135C174.514 25.135 173.917 25.03 173.365 24.82C172.813 24.604 172.333 24.289 171.925 23.875C171.517 23.455 171.196 22.939 170.962 22.327C170.728 21.709 170.611 20.995 170.611 20.185C170.611 19.555 170.713 18.964 170.917 18.412C171.121 17.854 171.412 17.371 171.79 16.963C172.174 16.549 172.639 16.222 173.185 15.982C173.737 15.742 174.358 15.622 175.048 15.622C175.63 15.622 176.167 15.715 176.659 15.901C177.151 16.087 177.574 16.36 177.928 16.72C178.282 17.074 178.558 17.512 178.756 18.034C178.96 18.55 179.062 19.141 179.062 19.807C179.062 20.143 179.026 20.371 178.954 20.491C178.882 20.605 178.744 20.662 178.54 20.662H172.825ZM182.809 16.9C182.995 16.714 183.19 16.543 183.394 16.387C183.604 16.225 183.823 16.09 184.051 15.982C184.285 15.868 184.534 15.781 184.798 15.721C185.062 15.655 185.35 15.622 185.662 15.622C186.166 15.622 186.613 15.709 187.003 15.883C187.393 16.051 187.717 16.291 187.975 16.603C188.239 16.909 188.437 17.278 188.569 17.71C188.707 18.136 188.776 18.607 188.776 19.123V25H186.553V19.123C186.553 18.559 186.424 18.124 186.166 17.818C185.908 17.506 185.515 17.35 184.987 17.35C184.603 17.35 184.243 17.437 183.907 17.611C183.571 17.785 183.253 18.022 182.953 18.322V25H180.73V15.766H182.089C182.377 15.766 182.566 15.901 182.656 16.171L182.809 16.9ZM185.761 12.769C185.941 12.769 186.082 12.721 186.184 12.625C186.286 12.523 186.337 12.343 186.337 12.085H187.687C187.687 12.421 187.639 12.727 187.543 13.003C187.453 13.273 187.327 13.507 187.165 13.705C187.003 13.897 186.808 14.047 186.58 14.155C186.358 14.257 186.112 14.308 185.842 14.308C185.626 14.308 185.425 14.269 185.239 14.191C185.053 14.113 184.879 14.029 184.717 13.939C184.555 13.849 184.402 13.765 184.258 13.687C184.12 13.609 183.991 13.57 183.871 13.57C183.697 13.57 183.559 13.624 183.457 13.732C183.361 13.834 183.313 14.011 183.313 14.263H181.936C181.936 13.927 181.981 13.624 182.071 13.354C182.167 13.078 182.299 12.844 182.467 12.652C182.635 12.454 182.83 12.301 183.052 12.193C183.28 12.085 183.526 12.031 183.79 12.031C184.006 12.031 184.207 12.07 184.393 12.148C184.585 12.226 184.762 12.31 184.924 12.4C185.086 12.49 185.236 12.574 185.374 12.652C185.512 12.73 185.641 12.769 185.761 12.769ZM195.768 21.058C195.126 21.088 194.586 21.145 194.148 21.229C193.71 21.307 193.359 21.409 193.095 21.535C192.831 21.661 192.642 21.808 192.528 21.976C192.414 22.144 192.357 22.327 192.357 22.525C192.357 22.915 192.471 23.194 192.699 23.362C192.933 23.53 193.236 23.614 193.608 23.614C194.064 23.614 194.457 23.533 194.787 23.371C195.123 23.203 195.45 22.951 195.768 22.615V21.058ZM190.674 17.053C191.736 16.081 193.014 15.595 194.508 15.595C195.048 15.595 195.531 15.685 195.957 15.865C196.383 16.039 196.743 16.285 197.037 16.603C197.331 16.915 197.553 17.29 197.703 17.728C197.859 18.166 197.937 18.646 197.937 19.168V25H196.929C196.719 25 196.557 24.97 196.443 24.91C196.329 24.844 196.239 24.715 196.173 24.523L195.975 23.857C195.741 24.067 195.513 24.253 195.291 24.415C195.069 24.571 194.838 24.703 194.598 24.811C194.358 24.919 194.1 25 193.824 25.054C193.554 25.114 193.254 25.144 192.924 25.144C192.534 25.144 192.174 25.093 191.844 24.991C191.514 24.883 191.229 24.724 190.989 24.514C190.749 24.304 190.563 24.043 190.431 23.731C190.299 23.419 190.233 23.056 190.233 22.642C190.233 22.408 190.272 22.177 190.35 21.949C190.428 21.715 190.554 21.493 190.728 21.283C190.908 21.073 191.139 20.875 191.421 20.689C191.703 20.503 192.048 20.341 192.456 20.203C192.87 20.065 193.35 19.954 193.896 19.87C194.442 19.78 195.066 19.726 195.768 19.708V19.168C195.768 18.55 195.636 18.094 195.372 17.8C195.108 17.5 194.727 17.35 194.229 17.35C193.869 17.35 193.569 17.392 193.329 17.476C193.095 17.56 192.888 17.656 192.708 17.764C192.528 17.866 192.363 17.959 192.213 18.043C192.069 18.127 191.907 18.169 191.727 18.169C191.571 18.169 191.439 18.13 191.331 18.052C191.223 17.968 191.136 17.872 191.07 17.764L190.674 17.053Z" fill="white"/>
</svg>
