<svg width="220" height="40" viewBox="0 0 220 40" fill="none" xmlns="http://www.w3.org/2000/svg">
<rect width="220" height="40" fill="white"/>
<rect width="220" height="40" rx="10" fill="#FF765D"/>
<path d="M54.1477 23.931C54.2797 23.931 54.3967 23.982 54.4987 24.084L55.4527 25.119C54.9247 25.773 54.2737 26.274 53.4997 26.622C52.7317 26.97 51.8077 27.144 50.7277 27.144C49.7617 27.144 48.8917 26.979 48.1177 26.649C47.3497 26.319 46.6927 25.86 46.1467 25.272C45.6007 24.684 45.1807 23.982 44.8867 23.166C44.5987 22.35 44.4547 21.459 44.4547 20.493C44.4547 19.515 44.6107 18.621 44.9227 17.811C45.2347 16.995 45.6727 16.293 46.2367 15.705C46.8067 15.117 47.4847 14.661 48.2707 14.337C49.0567 14.007 49.9267 13.842 50.8807 13.842C51.8287 13.842 52.6687 13.998 53.4007 14.31C54.1387 14.622 54.7657 15.03 55.2817 15.534L54.4717 16.659C54.4237 16.731 54.3607 16.794 54.2827 16.848C54.2107 16.902 54.1087 16.929 53.9767 16.929C53.8867 16.929 53.7937 16.905 53.6977 16.857C53.6017 16.803 53.4967 16.74 53.3827 16.668C53.2687 16.59 53.1367 16.506 52.9867 16.416C52.8367 16.326 52.6627 16.245 52.4647 16.173C52.2667 16.095 52.0357 16.032 51.7717 15.984C51.5137 15.93 51.2137 15.903 50.8717 15.903C50.2897 15.903 49.7557 16.008 49.2697 16.218C48.7897 16.422 48.3757 16.722 48.0277 17.118C47.6797 17.508 47.4097 17.988 47.2177 18.558C47.0257 19.122 46.9297 19.767 46.9297 20.493C46.9297 21.225 47.0317 21.876 47.2357 22.446C47.4457 23.016 47.7277 23.496 48.0817 23.886C48.4357 24.276 48.8527 24.576 49.3327 24.786C49.8127 24.99 50.3287 25.092 50.8807 25.092C51.2107 25.092 51.5077 25.074 51.7717 25.038C52.0417 25.002 52.2877 24.945 52.5097 24.867C52.7377 24.789 52.9507 24.69 53.1487 24.57C53.3527 24.444 53.5537 24.291 53.7517 24.111C53.8117 24.057 53.8747 24.015 53.9407 23.985C54.0067 23.949 54.0757 23.931 54.1477 23.931ZM60.6528 17.622C61.3368 17.622 61.9578 17.733 62.5158 17.955C63.0798 18.177 63.5598 18.492 63.9558 18.9C64.3577 19.308 64.6667 19.806 64.8828 20.394C65.0988 20.982 65.2068 21.639 65.2068 22.365C65.2068 23.097 65.0988 23.757 64.8828 24.345C64.6667 24.933 64.3577 25.434 63.9558 25.848C63.5598 26.262 63.0798 26.58 62.5158 26.802C61.9578 27.024 61.3368 27.135 60.6528 27.135C59.9628 27.135 59.3358 27.024 58.7718 26.802C58.2078 26.58 57.7248 26.262 57.3228 25.848C56.9268 25.434 56.6178 24.933 56.3958 24.345C56.1798 23.757 56.0718 23.097 56.0718 22.365C56.0718 21.639 56.1798 20.982 56.3958 20.394C56.6178 19.806 56.9268 19.308 57.3228 18.9C57.7248 18.492 58.2078 18.177 58.7718 17.955C59.3358 17.733 59.9628 17.622 60.6528 17.622ZM60.6528 25.425C61.4208 25.425 61.9878 25.167 62.3538 24.651C62.7258 24.135 62.9118 23.379 62.9118 22.383C62.9118 21.387 62.7258 20.628 62.3538 20.106C61.9878 19.584 61.4208 19.323 60.6528 19.323C59.8728 19.323 59.2938 19.587 58.9158 20.115C58.5438 20.637 58.3578 21.393 58.3578 22.383C58.3578 23.373 58.5438 24.129 58.9158 24.651C59.2938 25.167 59.8728 25.425 60.6528 25.425ZM68.9817 18.9C69.1677 18.714 69.3627 18.543 69.5667 18.387C69.7767 18.225 69.9957 18.09 70.2237 17.982C70.4577 17.868 70.7067 17.781 70.9707 17.721C71.2347 17.655 71.5227 17.622 71.8347 17.622C72.3387 17.622 72.7857 17.709 73.1757 17.883C73.5657 18.051 73.8897 18.291 74.1477 18.603C74.4117 18.909 74.6097 19.278 74.7417 19.71C74.8797 20.136 74.9487 20.607 74.9487 21.123V27H72.7257V21.123C72.7257 20.559 72.5967 20.124 72.3387 19.818C72.0807 19.506 71.6877 19.35 71.1597 19.35C70.7757 19.35 70.4157 19.437 70.0797 19.611C69.7437 19.785 69.4257 20.022 69.1257 20.322V27H66.9027V17.766H68.2617C68.5497 17.766 68.7387 17.901 68.8287 18.171L68.9817 18.9ZM77.5616 27V19.44L76.7606 19.314C76.5866 19.278 76.4456 19.218 76.3376 19.134C76.2356 19.044 76.1846 18.918 76.1846 18.756V17.847H77.5616V17.55C77.5616 16.986 77.6546 16.464 77.8406 15.984C78.0266 15.498 78.3086 15.078 78.6866 14.724C79.0646 14.37 79.5416 14.094 80.1176 13.896C80.6996 13.692 81.3836 13.59 82.1696 13.59C82.4216 13.59 82.6766 13.605 82.9346 13.635C83.1986 13.659 83.4266 13.701 83.6186 13.761L83.5466 14.913C83.5346 15.051 83.4596 15.135 83.3216 15.165C83.1836 15.189 83.0126 15.201 82.8086 15.201C82.2266 15.201 81.7376 15.252 81.3416 15.354C80.9516 15.456 80.6336 15.609 80.3876 15.813C80.1476 16.011 79.9736 16.263 79.8656 16.569C79.7636 16.869 79.7126 17.22 79.7126 17.622V17.847H85.4366V27H83.2136V19.431H79.7846V27H77.5616ZM89.8122 19.368C90.1002 18.816 90.4422 18.384 90.8382 18.072C91.2342 17.754 91.7022 17.595 92.2422 17.595C92.6682 17.595 93.0102 17.688 93.2682 17.874L93.1242 19.539C93.0942 19.647 93.0492 19.725 92.9892 19.773C92.9352 19.815 92.8602 19.836 92.7642 19.836C92.6742 19.836 92.5392 19.821 92.3592 19.791C92.1852 19.761 92.0142 19.746 91.8462 19.746C91.6002 19.746 91.3812 19.782 91.1892 19.854C90.9972 19.926 90.8232 20.031 90.6672 20.169C90.5172 20.301 90.3822 20.463 90.2622 20.655C90.1482 20.847 90.0402 21.066 89.9382 21.312V27H87.7152V17.766H89.0202C89.2482 17.766 89.4072 17.808 89.4972 17.892C89.5872 17.97 89.6472 18.114 89.6772 18.324L89.8122 19.368ZM94.43 27V17.766H95.789C96.077 17.766 96.266 17.901 96.356 18.171L96.5 18.855C96.662 18.675 96.83 18.51 97.004 18.36C97.184 18.21 97.373 18.081 97.571 17.973C97.775 17.865 97.991 17.781 98.219 17.721C98.453 17.655 98.708 17.622 98.984 17.622C99.566 17.622 100.043 17.781 100.415 18.099C100.793 18.411 101.075 18.828 101.261 19.35C101.405 19.044 101.585 18.783 101.801 18.567C102.017 18.345 102.254 18.165 102.512 18.027C102.77 17.889 103.043 17.787 103.331 17.721C103.625 17.655 103.919 17.622 104.213 17.622C104.723 17.622 105.176 17.7 105.572 17.856C105.968 18.012 106.301 18.24 106.571 18.54C106.841 18.84 107.045 19.206 107.183 19.638C107.327 20.07 107.399 20.565 107.399 21.123V27H105.176V21.123C105.176 20.535 105.047 20.094 104.789 19.8C104.531 19.5 104.153 19.35 103.655 19.35C103.427 19.35 103.214 19.389 103.016 19.467C102.824 19.545 102.653 19.659 102.503 19.809C102.359 19.953 102.245 20.136 102.161 20.358C102.077 20.58 102.035 20.835 102.035 21.123V27H99.803V21.123C99.803 20.505 99.677 20.055 99.425 19.773C99.179 19.491 98.816 19.35 98.336 19.35C98.012 19.35 97.709 19.431 97.427 19.593C97.151 19.749 96.893 19.965 96.653 20.241V27H94.43ZM114.39 23.058C113.748 23.088 113.208 23.145 112.77 23.229C112.332 23.307 111.981 23.409 111.717 23.535C111.453 23.661 111.264 23.808 111.15 23.976C111.036 24.144 110.979 24.327 110.979 24.525C110.979 24.915 111.093 25.194 111.321 25.362C111.555 25.53 111.858 25.614 112.23 25.614C112.686 25.614 113.079 25.533 113.409 25.371C113.745 25.203 114.072 24.951 114.39 24.615V23.058ZM109.296 19.053C110.358 18.081 111.636 17.595 113.13 17.595C113.67 17.595 114.153 17.685 114.579 17.865C115.005 18.039 115.365 18.285 115.659 18.603C115.953 18.915 116.175 19.29 116.325 19.728C116.481 20.166 116.559 20.646 116.559 21.168V27H115.551C115.341 27 115.179 26.97 115.065 26.91C114.951 26.844 114.861 26.715 114.795 26.523L114.597 25.857C114.363 26.067 114.135 26.253 113.913 26.415C113.691 26.571 113.46 26.703 113.22 26.811C112.98 26.919 112.722 27 112.446 27.054C112.176 27.114 111.876 27.144 111.546 27.144C111.156 27.144 110.796 27.093 110.466 26.991C110.136 26.883 109.851 26.724 109.611 26.514C109.371 26.304 109.185 26.043 109.053 25.731C108.921 25.419 108.855 25.056 108.855 24.642C108.855 24.408 108.894 24.177 108.972 23.949C109.05 23.715 109.176 23.493 109.35 23.283C109.53 23.073 109.761 22.875 110.043 22.689C110.325 22.503 110.67 22.341 111.078 22.203C111.492 22.065 111.972 21.954 112.518 21.87C113.064 21.78 113.688 21.726 114.39 21.708V21.168C114.39 20.55 114.258 20.094 113.994 19.8C113.73 19.5 113.349 19.35 112.851 19.35C112.491 19.35 112.191 19.392 111.951 19.476C111.717 19.56 111.51 19.656 111.33 19.764C111.15 19.866 110.985 19.959 110.835 20.043C110.691 20.127 110.529 20.169 110.349 20.169C110.193 20.169 110.061 20.13 109.953 20.052C109.845 19.968 109.758 19.872 109.692 19.764L109.296 19.053ZM120.75 19.368C121.038 18.816 121.38 18.384 121.776 18.072C122.172 17.754 122.64 17.595 123.18 17.595C123.606 17.595 123.948 17.688 124.206 17.874L124.062 19.539C124.032 19.647 123.987 19.725 123.927 19.773C123.873 19.815 123.798 19.836 123.702 19.836C123.612 19.836 123.477 19.821 123.297 19.791C123.123 19.761 122.952 19.746 122.784 19.746C122.538 19.746 122.319 19.782 122.127 19.854C121.935 19.926 121.761 20.031 121.605 20.169C121.455 20.301 121.32 20.463 121.2 20.655C121.086 20.847 120.978 21.066 120.876 21.312V27H118.653V17.766H119.958C120.186 17.766 120.345 17.808 120.435 17.892C120.525 17.97 120.585 18.114 120.615 18.324L120.75 19.368ZM135.973 19.719C135.907 19.803 135.841 19.869 135.775 19.917C135.715 19.965 135.625 19.989 135.505 19.989C135.391 19.989 135.28 19.956 135.172 19.89C135.064 19.818 134.935 19.74 134.785 19.656C134.635 19.566 134.455 19.488 134.245 19.422C134.041 19.35 133.786 19.314 133.48 19.314C133.09 19.314 132.748 19.386 132.454 19.53C132.16 19.668 131.914 19.869 131.716 20.133C131.524 20.397 131.38 20.718 131.284 21.096C131.188 21.468 131.14 21.891 131.14 22.365C131.14 22.857 131.191 23.295 131.293 23.679C131.401 24.063 131.554 24.387 131.752 24.651C131.95 24.909 132.19 25.107 132.472 25.245C132.754 25.377 133.072 25.443 133.426 25.443C133.78 25.443 134.065 25.401 134.281 25.317C134.503 25.227 134.689 25.131 134.839 25.029C134.989 24.921 135.118 24.825 135.226 24.741C135.34 24.651 135.466 24.606 135.604 24.606C135.784 24.606 135.919 24.675 136.009 24.813L136.648 25.623C136.402 25.911 136.135 26.154 135.847 26.352C135.559 26.544 135.259 26.7 134.947 26.82C134.641 26.934 134.323 27.015 133.993 27.063C133.669 27.111 133.345 27.135 133.021 27.135C132.451 27.135 131.914 27.03 131.41 26.82C130.906 26.604 130.465 26.292 130.087 25.884C129.709 25.476 129.409 24.978 129.187 24.39C128.971 23.796 128.863 23.121 128.863 22.365C128.863 21.687 128.959 21.06 129.151 20.484C129.349 19.902 129.637 19.401 130.015 18.981C130.393 18.555 130.861 18.222 131.419 17.982C131.977 17.742 132.619 17.622 133.345 17.622C134.035 17.622 134.638 17.733 135.154 17.955C135.676 18.177 136.144 18.495 136.558 18.909L135.973 19.719ZM141.969 17.622C142.653 17.622 143.274 17.733 143.832 17.955C144.396 18.177 144.876 18.492 145.272 18.9C145.674 19.308 145.983 19.806 146.199 20.394C146.415 20.982 146.523 21.639 146.523 22.365C146.523 23.097 146.415 23.757 146.199 24.345C145.983 24.933 145.674 25.434 145.272 25.848C144.876 26.262 144.396 26.58 143.832 26.802C143.274 27.024 142.653 27.135 141.969 27.135C141.279 27.135 140.652 27.024 140.088 26.802C139.524 26.58 139.041 26.262 138.639 25.848C138.243 25.434 137.934 24.933 137.712 24.345C137.496 23.757 137.388 23.097 137.388 22.365C137.388 21.639 137.496 20.982 137.712 20.394C137.934 19.806 138.243 19.308 138.639 18.9C139.041 18.492 139.524 18.177 140.088 17.955C140.652 17.733 141.279 17.622 141.969 17.622ZM141.969 25.425C142.737 25.425 143.304 25.167 143.67 24.651C144.042 24.135 144.228 23.379 144.228 22.383C144.228 21.387 144.042 20.628 143.67 20.106C143.304 19.584 142.737 19.323 141.969 19.323C141.189 19.323 140.61 19.587 140.232 20.115C139.86 20.637 139.674 21.393 139.674 22.383C139.674 23.373 139.86 24.129 140.232 24.651C140.61 25.167 141.189 25.425 141.969 25.425ZM150.316 19.368C150.604 18.816 150.946 18.384 151.342 18.072C151.738 17.754 152.206 17.595 152.746 17.595C153.172 17.595 153.514 17.688 153.772 17.874L153.628 19.539C153.598 19.647 153.553 19.725 153.493 19.773C153.439 19.815 153.364 19.836 153.268 19.836C153.178 19.836 153.043 19.821 152.863 19.791C152.689 19.761 152.518 19.746 152.35 19.746C152.104 19.746 151.885 19.782 151.693 19.854C151.501 19.926 151.327 20.031 151.171 20.169C151.021 20.301 150.886 20.463 150.766 20.655C150.652 20.847 150.544 21.066 150.442 21.312V27H148.219V17.766H149.524C149.752 17.766 149.911 17.808 150.001 17.892C150.091 17.97 150.151 18.114 150.181 18.324L150.316 19.368ZM157.031 19.368C157.319 18.816 157.661 18.384 158.057 18.072C158.453 17.754 158.921 17.595 159.461 17.595C159.887 17.595 160.229 17.688 160.487 17.874L160.343 19.539C160.313 19.647 160.268 19.725 160.208 19.773C160.154 19.815 160.079 19.836 159.983 19.836C159.893 19.836 159.758 19.821 159.578 19.791C159.404 19.761 159.233 19.746 159.065 19.746C158.819 19.746 158.6 19.782 158.408 19.854C158.216 19.926 158.042 20.031 157.886 20.169C157.736 20.301 157.601 20.463 157.481 20.655C157.367 20.847 157.259 21.066 157.157 21.312V27H154.934V17.766H156.239C156.467 17.766 156.626 17.808 156.716 17.892C156.806 17.97 156.866 18.114 156.896 18.324L157.031 19.368ZM167.334 21.321C167.334 21.033 167.292 20.763 167.208 20.511C167.13 20.253 167.01 20.028 166.848 19.836C166.686 19.644 166.479 19.494 166.227 19.386C165.981 19.272 165.693 19.215 165.363 19.215C164.721 19.215 164.214 19.398 163.842 19.764C163.476 20.13 163.242 20.649 163.14 21.321H167.334ZM163.095 22.662C163.131 23.136 163.215 23.547 163.347 23.895C163.479 24.237 163.653 24.522 163.869 24.75C164.085 24.972 164.34 25.14 164.634 25.254C164.934 25.362 165.264 25.416 165.624 25.416C165.984 25.416 166.293 25.374 166.551 25.29C166.815 25.206 167.043 25.113 167.235 25.011C167.433 24.909 167.604 24.816 167.748 24.732C167.898 24.648 168.042 24.606 168.18 24.606C168.366 24.606 168.504 24.675 168.594 24.813L169.233 25.623C168.987 25.911 168.711 26.154 168.405 26.352C168.099 26.544 167.778 26.7 167.442 26.82C167.112 26.934 166.773 27.015 166.425 27.063C166.083 27.111 165.75 27.135 165.426 27.135C164.784 27.135 164.187 27.03 163.635 26.82C163.083 26.604 162.603 26.289 162.195 25.875C161.787 25.455 161.466 24.939 161.232 24.327C160.998 23.709 160.881 22.995 160.881 22.185C160.881 21.555 160.983 20.964 161.187 20.412C161.391 19.854 161.682 19.371 162.06 18.963C162.444 18.549 162.909 18.222 163.455 17.982C164.007 17.742 164.628 17.622 165.318 17.622C165.9 17.622 166.437 17.715 166.929 17.901C167.421 18.087 167.844 18.36 168.198 18.72C168.552 19.074 168.828 19.512 169.026 20.034C169.23 20.55 169.332 21.141 169.332 21.807C169.332 22.143 169.296 22.371 169.224 22.491C169.152 22.605 169.014 22.662 168.81 22.662H163.095ZM175.086 17.622C175.77 17.622 176.391 17.733 176.949 17.955C177.513 18.177 177.993 18.492 178.389 18.9C178.791 19.308 179.1 19.806 179.316 20.394C179.532 20.982 179.64 21.639 179.64 22.365C179.64 23.097 179.532 23.757 179.316 24.345C179.1 24.933 178.791 25.434 178.389 25.848C177.993 26.262 177.513 26.58 176.949 26.802C176.391 27.024 175.77 27.135 175.086 27.135C174.396 27.135 173.769 27.024 173.205 26.802C172.641 26.58 172.158 26.262 171.756 25.848C171.36 25.434 171.051 24.933 170.829 24.345C170.613 23.757 170.505 23.097 170.505 22.365C170.505 21.639 170.613 20.982 170.829 20.394C171.051 19.806 171.36 19.308 171.756 18.9C172.158 18.492 172.641 18.177 173.205 17.955C173.769 17.733 174.396 17.622 175.086 17.622ZM175.086 25.425C175.854 25.425 176.421 25.167 176.787 24.651C177.159 24.135 177.345 23.379 177.345 22.383C177.345 21.387 177.159 20.628 176.787 20.106C176.421 19.584 175.854 19.323 175.086 19.323C174.306 19.323 173.727 19.587 173.349 20.115C172.977 20.637 172.791 21.393 172.791 22.383C172.791 23.373 172.977 24.129 173.349 24.651C173.727 25.167 174.306 25.425 175.086 25.425Z" fill="white"/>
</svg>
