<svg width="220" height="40" viewBox="0 0 220 40" fill="none" xmlns="http://www.w3.org/2000/svg">
<rect width="220" height="40" fill="white"/>
<rect width="220" height="40" rx="10" fill="#FF765D"/>
<path d="M60.3348 22.086L58.7508 17.757C58.6728 17.565 58.5918 17.337 58.5078 17.073C58.4238 16.809 58.3398 16.524 58.2558 16.218C58.1778 16.524 58.0968 16.812 58.0128 17.082C57.9288 17.346 57.8478 17.577 57.7698 17.775L56.1948 22.086H60.3348ZM64.6098 27H62.7378C62.5278 27 62.3568 26.949 62.2248 26.847C62.0928 26.739 61.9938 26.607 61.9278 26.451L60.9558 23.796H55.5648L54.5928 26.451C54.5448 26.589 54.4518 26.715 54.3138 26.829C54.1758 26.943 54.0048 27 53.8008 27H51.9108L57.0318 13.986H59.4978L64.6098 27ZM71.9747 19.719C71.9087 19.803 71.8427 19.869 71.7767 19.917C71.7167 19.965 71.6267 19.989 71.5067 19.989C71.3927 19.989 71.2817 19.956 71.1737 19.89C71.0657 19.818 70.9367 19.74 70.7867 19.656C70.6367 19.566 70.4567 19.488 70.2467 19.422C70.0427 19.35 69.7877 19.314 69.4817 19.314C69.0917 19.314 68.7497 19.386 68.4557 19.53C68.1617 19.668 67.9157 19.869 67.7177 20.133C67.5257 20.397 67.3817 20.718 67.2857 21.096C67.1897 21.468 67.1417 21.891 67.1417 22.365C67.1417 22.857 67.1927 23.295 67.2947 23.679C67.4027 24.063 67.5557 24.387 67.7537 24.651C67.9517 24.909 68.1917 25.107 68.4737 25.245C68.7557 25.377 69.0737 25.443 69.4277 25.443C69.7817 25.443 70.0667 25.401 70.2827 25.317C70.5047 25.227 70.6907 25.131 70.8407 25.029C70.9907 24.921 71.1197 24.825 71.2277 24.741C71.3417 24.651 71.4677 24.606 71.6057 24.606C71.7857 24.606 71.9207 24.675 72.0107 24.813L72.6497 25.623C72.4037 25.911 72.1367 26.154 71.8487 26.352C71.5607 26.544 71.2607 26.7 70.9487 26.82C70.6427 26.934 70.3247 27.015 69.9947 27.063C69.6707 27.111 69.3467 27.135 69.0227 27.135C68.4527 27.135 67.9157 27.03 67.4117 26.82C66.9077 26.604 66.4667 26.292 66.0887 25.884C65.7107 25.476 65.4107 24.978 65.1887 24.39C64.9727 23.796 64.8647 23.121 64.8647 22.365C64.8647 21.687 64.9607 21.06 65.1527 20.484C65.3507 19.902 65.6387 19.401 66.0167 18.981C66.3947 18.555 66.8627 18.222 67.4207 17.982C67.9787 17.742 68.6207 17.622 69.3467 17.622C70.0367 17.622 70.6397 17.733 71.1557 17.955C71.6777 18.177 72.1457 18.495 72.5597 18.909L71.9747 19.719ZM83.3583 27H81.1353V19.431H76.8513V24.435C76.8513 24.723 76.9203 24.948 77.0583 25.11C77.2023 25.272 77.3973 25.353 77.6433 25.353C77.7813 25.353 77.8953 25.338 77.9853 25.308C78.0813 25.272 78.1623 25.236 78.2283 25.2C78.3003 25.164 78.3633 25.131 78.4173 25.101C78.4713 25.065 78.5253 25.047 78.5793 25.047C78.6453 25.047 78.6993 25.065 78.7413 25.101C78.7833 25.131 78.8283 25.179 78.8763 25.245L79.5423 26.325C79.2183 26.595 78.8463 26.799 78.4263 26.937C78.0063 27.075 77.5713 27.144 77.1213 27.144C76.3173 27.144 75.6993 26.919 75.2673 26.469C74.8413 26.013 74.6283 25.386 74.6283 24.588V19.431H73.6833C73.5633 19.431 73.4613 19.392 73.3773 19.314C73.2933 19.236 73.2513 19.119 73.2513 18.963V18.081L74.7363 17.829L75.2043 15.318C75.2343 15.198 75.2913 15.105 75.3753 15.039C75.4593 14.973 75.5673 14.94 75.6993 14.94H76.8513V17.847H83.3583V27ZM83.7453 15.039C83.7453 15.231 83.7063 15.414 83.6283 15.588C83.5503 15.756 83.4453 15.903 83.3133 16.029C83.1873 16.155 83.0343 16.257 82.8543 16.335C82.6803 16.407 82.4943 16.443 82.2963 16.443C82.1043 16.443 81.9243 16.407 81.7563 16.335C81.5883 16.257 81.4413 16.155 81.3153 16.029C81.1893 15.903 81.0873 15.756 81.0093 15.588C80.9373 15.414 80.9013 15.231 80.9013 15.039C80.9013 14.841 80.9373 14.658 81.0093 14.49C81.0873 14.316 81.1893 14.166 81.3153 14.04C81.4413 13.908 81.5883 13.806 81.7563 13.734C81.9243 13.656 82.1043 13.617 82.2963 13.617C82.4943 13.617 82.6803 13.656 82.8543 13.734C83.0343 13.806 83.1873 13.908 83.3133 14.04C83.4453 14.166 83.5503 14.316 83.6283 14.49C83.7063 14.658 83.7453 14.841 83.7453 15.039ZM93.9523 17.766L90.2893 27H88.2733L84.6103 17.766H86.4463C86.6143 17.766 86.7523 17.805 86.8603 17.883C86.9743 17.961 87.0493 18.06 87.0853 18.18L88.8673 23.112C88.9633 23.4 89.0473 23.682 89.1193 23.958C89.1913 24.234 89.2543 24.51 89.3083 24.786C89.3683 24.51 89.4343 24.234 89.5063 23.958C89.5783 23.682 89.6653 23.4 89.7673 23.112L91.5853 18.18C91.6273 18.06 91.7023 17.961 91.8103 17.883C91.9183 17.805 92.0473 17.766 92.1973 17.766H93.9523ZM99.7865 23.058C99.1445 23.088 98.6045 23.145 98.1665 23.229C97.7285 23.307 97.3775 23.409 97.1135 23.535C96.8495 23.661 96.6605 23.808 96.5465 23.976C96.4325 24.144 96.3755 24.327 96.3755 24.525C96.3755 24.915 96.4895 25.194 96.7175 25.362C96.9515 25.53 97.2545 25.614 97.6265 25.614C98.0825 25.614 98.4755 25.533 98.8055 25.371C99.1415 25.203 99.4685 24.951 99.7865 24.615V23.058ZM94.6925 19.053C95.7545 18.081 97.0325 17.595 98.5265 17.595C99.0665 17.595 99.5495 17.685 99.9755 17.865C100.402 18.039 100.762 18.285 101.056 18.603C101.35 18.915 101.572 19.29 101.722 19.728C101.878 20.166 101.956 20.646 101.956 21.168V27H100.948C100.738 27 100.576 26.97 100.462 26.91C100.348 26.844 100.258 26.715 100.192 26.523L99.9935 25.857C99.7595 26.067 99.5315 26.253 99.3095 26.415C99.0875 26.571 98.8565 26.703 98.6165 26.811C98.3765 26.919 98.1185 27 97.8425 27.054C97.5725 27.114 97.2725 27.144 96.9425 27.144C96.5525 27.144 96.1925 27.093 95.8625 26.991C95.5325 26.883 95.2475 26.724 95.0075 26.514C94.7675 26.304 94.5815 26.043 94.4495 25.731C94.3175 25.419 94.2515 25.056 94.2515 24.642C94.2515 24.408 94.2905 24.177 94.3685 23.949C94.4465 23.715 94.5725 23.493 94.7465 23.283C94.9265 23.073 95.1575 22.875 95.4395 22.689C95.7215 22.503 96.0665 22.341 96.4745 22.203C96.8885 22.065 97.3685 21.954 97.9145 21.87C98.4605 21.78 99.0845 21.726 99.7865 21.708V21.168C99.7865 20.55 99.6545 20.094 99.3905 19.8C99.1265 19.5 98.7455 19.35 98.2475 19.35C97.8875 19.35 97.5875 19.392 97.3475 19.476C97.1135 19.56 96.9065 19.656 96.7265 19.764C96.5465 19.866 96.3815 19.959 96.2315 20.043C96.0875 20.127 95.9255 20.169 95.7455 20.169C95.5895 20.169 95.4575 20.13 95.3495 20.052C95.2415 19.968 95.1545 19.872 95.0885 19.764L94.6925 19.053ZM106.146 19.368C106.434 18.816 106.776 18.384 107.172 18.072C107.568 17.754 108.036 17.595 108.576 17.595C109.002 17.595 109.344 17.688 109.602 17.874L109.458 19.539C109.428 19.647 109.383 19.725 109.323 19.773C109.269 19.815 109.194 19.836 109.098 19.836C109.008 19.836 108.873 19.821 108.693 19.791C108.519 19.761 108.348 19.746 108.18 19.746C107.934 19.746 107.715 19.782 107.523 19.854C107.331 19.926 107.157 20.031 107.001 20.169C106.851 20.301 106.716 20.463 106.596 20.655C106.482 20.847 106.374 21.066 106.272 21.312V27H104.049V17.766H105.354C105.582 17.766 105.741 17.808 105.831 17.892C105.921 17.97 105.981 18.114 106.011 18.324L106.146 19.368ZM121.369 19.719C121.303 19.803 121.237 19.869 121.171 19.917C121.111 19.965 121.021 19.989 120.901 19.989C120.787 19.989 120.676 19.956 120.568 19.89C120.46 19.818 120.331 19.74 120.181 19.656C120.031 19.566 119.851 19.488 119.641 19.422C119.437 19.35 119.182 19.314 118.876 19.314C118.486 19.314 118.144 19.386 117.85 19.53C117.556 19.668 117.31 19.869 117.112 20.133C116.92 20.397 116.776 20.718 116.68 21.096C116.584 21.468 116.536 21.891 116.536 22.365C116.536 22.857 116.587 23.295 116.689 23.679C116.797 24.063 116.95 24.387 117.148 24.651C117.346 24.909 117.586 25.107 117.868 25.245C118.15 25.377 118.468 25.443 118.822 25.443C119.176 25.443 119.461 25.401 119.677 25.317C119.899 25.227 120.085 25.131 120.235 25.029C120.385 24.921 120.514 24.825 120.622 24.741C120.736 24.651 120.862 24.606 121 24.606C121.18 24.606 121.315 24.675 121.405 24.813L122.044 25.623C121.798 25.911 121.531 26.154 121.243 26.352C120.955 26.544 120.655 26.7 120.343 26.82C120.037 26.934 119.719 27.015 119.389 27.063C119.065 27.111 118.741 27.135 118.417 27.135C117.847 27.135 117.31 27.03 116.806 26.82C116.302 26.604 115.861 26.292 115.483 25.884C115.105 25.476 114.805 24.978 114.583 24.39C114.367 23.796 114.259 23.121 114.259 22.365C114.259 21.687 114.355 21.06 114.547 20.484C114.745 19.902 115.033 19.401 115.411 18.981C115.789 18.555 116.257 18.222 116.815 17.982C117.373 17.742 118.015 17.622 118.741 17.622C119.431 17.622 120.034 17.733 120.55 17.955C121.072 18.177 121.54 18.495 121.954 18.909L121.369 19.719ZM131.394 17.766V27H130.035C129.741 27 129.555 26.865 129.477 26.595L129.324 25.857C128.946 26.241 128.529 26.553 128.073 26.793C127.617 27.027 127.08 27.144 126.462 27.144C125.958 27.144 125.511 27.06 125.121 26.892C124.737 26.718 124.413 26.475 124.149 26.163C123.885 25.851 123.684 25.482 123.546 25.056C123.414 24.624 123.348 24.15 123.348 23.634V17.766H125.571V23.634C125.571 24.198 125.7 24.636 125.958 24.948C126.222 25.254 126.615 25.407 127.137 25.407C127.521 25.407 127.881 25.323 128.217 25.155C128.553 24.981 128.871 24.744 129.171 24.444V17.766H131.394ZM139.547 21.321C139.547 21.033 139.505 20.763 139.421 20.511C139.343 20.253 139.223 20.028 139.061 19.836C138.899 19.644 138.692 19.494 138.44 19.386C138.194 19.272 137.906 19.215 137.576 19.215C136.934 19.215 136.427 19.398 136.055 19.764C135.689 20.13 135.455 20.649 135.353 21.321H139.547ZM135.308 22.662C135.344 23.136 135.428 23.547 135.56 23.895C135.692 24.237 135.866 24.522 136.082 24.75C136.298 24.972 136.553 25.14 136.847 25.254C137.147 25.362 137.477 25.416 137.837 25.416C138.197 25.416 138.506 25.374 138.764 25.29C139.028 25.206 139.256 25.113 139.448 25.011C139.646 24.909 139.817 24.816 139.961 24.732C140.111 24.648 140.255 24.606 140.393 24.606C140.579 24.606 140.717 24.675 140.807 24.813L141.446 25.623C141.2 25.911 140.924 26.154 140.618 26.352C140.312 26.544 139.991 26.7 139.655 26.82C139.325 26.934 138.986 27.015 138.638 27.063C138.296 27.111 137.963 27.135 137.639 27.135C136.997 27.135 136.4 27.03 135.848 26.82C135.296 26.604 134.816 26.289 134.408 25.875C134 25.455 133.679 24.939 133.445 24.327C133.211 23.709 133.094 22.995 133.094 22.185C133.094 21.555 133.196 20.964 133.4 20.412C133.604 19.854 133.895 19.371 134.273 18.963C134.657 18.549 135.122 18.222 135.668 17.982C136.22 17.742 136.841 17.622 137.531 17.622C138.113 17.622 138.65 17.715 139.142 17.901C139.634 18.087 140.057 18.36 140.411 18.72C140.765 19.074 141.041 19.512 141.239 20.034C141.443 20.55 141.545 21.141 141.545 21.807C141.545 22.143 141.509 22.371 141.437 22.491C141.365 22.605 141.227 22.662 141.023 22.662H135.308ZM145.292 18.9C145.478 18.714 145.673 18.543 145.877 18.387C146.087 18.225 146.306 18.09 146.534 17.982C146.768 17.868 147.017 17.781 147.281 17.721C147.545 17.655 147.833 17.622 148.145 17.622C148.649 17.622 149.096 17.709 149.486 17.883C149.876 18.051 150.2 18.291 150.458 18.603C150.722 18.909 150.92 19.278 151.052 19.71C151.19 20.136 151.259 20.607 151.259 21.123V27H149.036V21.123C149.036 20.559 148.907 20.124 148.649 19.818C148.391 19.506 147.998 19.35 147.47 19.35C147.086 19.35 146.726 19.437 146.39 19.611C146.054 19.785 145.736 20.022 145.436 20.322V27H143.213V17.766H144.572C144.86 17.766 145.049 17.901 145.139 18.171L145.292 18.9ZM156.328 27.144C155.524 27.144 154.906 26.919 154.474 26.469C154.048 26.013 153.835 25.386 153.835 24.588V19.431H152.89C152.77 19.431 152.668 19.392 152.584 19.314C152.5 19.236 152.458 19.119 152.458 18.963V18.081L153.943 17.838L154.411 15.318C154.441 15.198 154.498 15.105 154.582 15.039C154.666 14.973 154.774 14.94 154.906 14.94H156.058V17.847H158.524V19.431H156.058V24.435C156.058 24.723 156.127 24.948 156.265 25.11C156.409 25.272 156.604 25.353 156.85 25.353C156.988 25.353 157.102 25.338 157.192 25.308C157.288 25.272 157.369 25.236 157.435 25.2C157.507 25.164 157.57 25.131 157.624 25.101C157.678 25.065 157.732 25.047 157.786 25.047C157.852 25.047 157.906 25.065 157.948 25.101C157.99 25.131 158.035 25.179 158.083 25.245L158.749 26.325C158.425 26.595 158.053 26.799 157.633 26.937C157.213 27.075 156.778 27.144 156.328 27.144ZM164.826 23.058C164.184 23.088 163.644 23.145 163.206 23.229C162.768 23.307 162.417 23.409 162.153 23.535C161.889 23.661 161.7 23.808 161.586 23.976C161.472 24.144 161.415 24.327 161.415 24.525C161.415 24.915 161.529 25.194 161.757 25.362C161.991 25.53 162.294 25.614 162.666 25.614C163.122 25.614 163.515 25.533 163.845 25.371C164.181 25.203 164.508 24.951 164.826 24.615V23.058ZM159.732 19.053C160.794 18.081 162.072 17.595 163.566 17.595C164.106 17.595 164.589 17.685 165.015 17.865C165.441 18.039 165.801 18.285 166.095 18.603C166.389 18.915 166.611 19.29 166.761 19.728C166.917 20.166 166.995 20.646 166.995 21.168V27H165.987C165.777 27 165.615 26.97 165.501 26.91C165.387 26.844 165.297 26.715 165.231 26.523L165.033 25.857C164.799 26.067 164.571 26.253 164.349 26.415C164.127 26.571 163.896 26.703 163.656 26.811C163.416 26.919 163.158 27 162.882 27.054C162.612 27.114 162.312 27.144 161.982 27.144C161.592 27.144 161.232 27.093 160.902 26.991C160.572 26.883 160.287 26.724 160.047 26.514C159.807 26.304 159.621 26.043 159.489 25.731C159.357 25.419 159.291 25.056 159.291 24.642C159.291 24.408 159.33 24.177 159.408 23.949C159.486 23.715 159.612 23.493 159.786 23.283C159.966 23.073 160.197 22.875 160.479 22.689C160.761 22.503 161.106 22.341 161.514 22.203C161.928 22.065 162.408 21.954 162.954 21.87C163.5 21.78 164.124 21.726 164.826 21.708V21.168C164.826 20.55 164.694 20.094 164.43 19.8C164.166 19.5 163.785 19.35 163.287 19.35C162.927 19.35 162.627 19.392 162.387 19.476C162.153 19.56 161.946 19.656 161.766 19.764C161.586 19.866 161.421 19.959 161.271 20.043C161.127 20.127 160.965 20.169 160.785 20.169C160.629 20.169 160.497 20.13 160.389 20.052C160.281 19.968 160.194 19.872 160.128 19.764L159.732 19.053Z" fill="white"/>
</svg>
