<svg width="25" height="21" viewBox="0 0 25 21" fill="none" xmlns="http://www.w3.org/2000/svg">
<path d="M24.4539 2.41865C23.912 2.66158 23.3494 2.85322 22.7722 2.99197C23.4082 2.38096 23.8864 1.6167 24.1562 0.763662C24.2332 0.520133 23.9716 0.309548 23.7541 0.439939C22.9511 0.921466 22.0861 1.2827 21.1831 1.51373C21.1307 1.52713 21.0766 1.53393 21.0224 1.53393C20.8579 1.53393 20.698 1.47219 20.5722 1.36013C19.6115 0.504142 18.3759 0.0327148 17.093 0.0327148C16.5379 0.0327148 15.9775 0.120183 15.4272 0.292715C13.7222 0.827325 12.4066 2.24912 11.9939 4.0033C11.839 4.66127 11.7971 5.31983 11.8692 5.96067C11.8774 6.03431 11.843 6.08571 11.8218 6.10981C11.7845 6.15208 11.7316 6.1763 11.6767 6.1763C11.6706 6.1763 11.6643 6.176 11.6581 6.1754C7.92587 5.82487 4.56036 4.00715 2.18143 1.05715C2.06012 0.906677 1.8275 0.925133 1.7308 1.0928C1.26495 1.90075 1.01876 2.82485 1.01876 3.76518C1.01876 5.20628 1.59148 6.56435 2.58628 7.5544C2.16794 7.45412 1.76303 7.2962 1.38691 7.08501C1.20495 6.98282 0.981062 7.11417 0.978505 7.32457C0.952459 9.46542 2.19232 11.3704 4.04967 12.2282C4.01226 12.2291 3.97486 12.2295 3.93739 12.2295C3.64298 12.2295 3.34488 12.2007 3.05148 12.1441C2.84656 12.1045 2.6744 12.301 2.73803 12.5019C3.3409 14.4046 4.96145 15.8071 6.90074 16.1255C5.29125 17.2178 3.41695 17.7939 1.46618 17.7939L0.858027 17.7935C0.670651 17.7935 0.512175 17.917 0.464424 18.1005C0.417387 18.2812 0.504029 18.4718 0.663813 18.5658C2.86202 19.8591 5.36939 20.5426 7.91594 20.5426C10.145 20.5426 12.2301 20.0954 14.1134 19.2135C15.8399 18.405 17.3655 17.2493 18.6479 15.7784C19.8426 14.4083 20.7768 12.8265 21.4245 11.0773C22.0419 9.40987 22.3683 7.63068 22.3683 5.93205V5.85114C22.3682 5.57839 22.4903 5.32176 22.7031 5.14706C23.511 4.48398 24.2145 3.70344 24.7939 2.82713C24.947 2.59575 24.7056 2.30575 24.4539 2.41865Z" fill="#A7A7A7"/>
</svg>
