<svg width="22" height="21" viewBox="0 0 22 21" fill="none" xmlns="http://www.w3.org/2000/svg">
<path d="M10.5924 0.0443885C5.22103 0.298221 0.982287 4.73793 0.998582 10.075C1.00354 11.7005 1.39894 13.2348 2.09645 14.5905L1.02553 19.7498C0.967598 20.0289 1.22121 20.2733 1.50055 20.2076L6.59436 19.0099C7.90303 19.6569 9.37296 20.0306 10.9286 20.0541C16.4187 20.1373 20.9964 15.8108 21.1675 10.3641C21.3509 4.52547 16.4957 -0.234644 10.5924 0.0443885ZM16.6704 15.5869C15.1786 17.0675 13.1952 17.8829 11.0855 17.8829C9.85027 17.8829 8.66762 17.6078 7.57033 17.0653L6.86095 16.7146L3.73793 17.449L4.39531 14.2818L4.04583 13.6025C3.47619 12.4953 3.18737 11.298 3.18737 10.044C3.18737 7.95014 4.00891 5.98165 5.50067 4.50104C6.9791 3.03371 8.99487 2.20506 11.0857 2.20506C13.1953 2.20511 15.1787 3.02048 16.6704 4.50099C18.1622 5.98156 18.9837 7.95004 18.9838 10.0438C18.9837 12.119 18.1488 14.1197 16.6704 15.5869Z" fill="#A7A7A7"/>
<path d="M15.9812 12.2155L14.0273 11.6587C13.7704 11.5855 13.4938 11.6579 13.3067 11.8472L12.8289 12.3303C12.6274 12.534 12.3217 12.5995 12.055 12.4924C11.1308 12.1212 9.18649 10.4054 8.68997 9.54725C8.54672 9.29969 8.57041 8.99019 8.7463 8.76431L9.16344 8.22869C9.32687 8.01884 9.36136 7.737 9.25328 7.49442L8.43125 5.64917C8.23435 5.20721 7.66531 5.07855 7.29354 5.39061C6.74823 5.84836 6.10122 6.54396 6.02256 7.31459C5.88389 8.67326 6.47098 10.386 8.69109 12.4425C11.2559 14.8184 13.3098 15.1323 14.6471 14.8108C15.4056 14.6285 16.0118 13.8975 16.3943 13.2989C16.6551 12.8909 16.4492 12.3489 15.9812 12.2155Z" fill="#A7A7A7"/>
</svg>
