<svg width="20" height="21" viewBox="0 0 20 21" fill="none" xmlns="http://www.w3.org/2000/svg">
<path d="M17.2664 0.0327148H2.68907C1.20397 0.0327148 0 1.27007 0 2.79646V17.7787C0 19.3051 1.20392 20.5425 2.68907 20.5425H9.87855L9.89081 13.2134H8.03816C7.7974 13.2134 7.60198 13.0133 7.60106 12.7659L7.59217 10.4034C7.59125 10.1546 7.78724 9.9524 8.02933 9.9524H9.8786V7.66965C9.8786 5.02055 11.4528 3.5781 13.7521 3.5781H15.6389C15.8803 3.5781 16.076 3.77924 16.076 4.02739V6.01943C16.076 6.26749 15.8804 6.46858 15.6391 6.46873L14.4812 6.46928C13.2308 6.46928 12.9887 7.07998 12.9887 7.97621V9.95245H15.7363C15.9981 9.95245 16.2012 10.1874 16.1704 10.4546L15.8979 12.8171C15.8719 13.0432 15.6854 13.2135 15.4639 13.2135H13.0009L12.9887 20.5426H17.2665C18.7516 20.5426 19.9555 19.3052 19.9555 17.7789V2.79646C19.9555 1.27007 18.7516 0.0327148 17.2664 0.0327148Z" fill="#A7A7A7"/>
</svg>
