<svg width="21" height="21" viewBox="0 0 21 21" fill="none" xmlns="http://www.w3.org/2000/svg">
<path d="M14.4224 0.0327148H6.26825C2.95435 0.0327148 0.258301 2.73033 0.258301 6.04614V14.205C0.258301 17.5208 2.95435 20.2184 6.26825 20.2184H14.4224C17.7363 20.2184 20.4323 17.5208 20.4323 14.205V6.04614C20.4323 2.73033 17.7362 0.0327148 14.4224 0.0327148ZM18.4028 14.205C18.4028 16.4046 16.6207 18.1877 14.4224 18.1877H6.26825C4.06993 18.1877 2.28781 16.4046 2.28781 14.205V6.04614C2.28781 3.84651 4.06993 2.0634 6.26825 2.0634H14.4224C16.6207 2.0634 18.4028 3.84651 18.4028 6.04614V14.205Z" fill="url(#paint0_linear)"/>
<path d="M10.3452 4.90527C7.4681 4.90527 5.12744 7.24727 5.12744 10.1259C5.12744 13.0046 7.4681 15.3466 10.3452 15.3466C13.2222 15.3466 15.5629 13.0046 15.5629 10.1259C15.5629 7.24723 13.2222 4.90527 10.3452 4.90527ZM10.3452 13.316C8.58434 13.316 7.15694 11.8878 7.15694 10.126C7.15694 8.36414 8.58438 6.93593 10.3452 6.93593C12.106 6.93593 13.5334 8.36414 13.5334 10.126C13.5334 11.8877 12.1059 13.316 10.3452 13.316Z" fill="url(#paint1_linear)"/>
<path d="M15.5735 6.19582C16.264 6.19582 16.8238 5.63573 16.8238 4.94483C16.8238 4.25393 16.264 3.69385 15.5735 3.69385C14.883 3.69385 14.3232 4.25393 14.3232 4.94483C14.3232 5.63573 14.883 6.19582 15.5735 6.19582Z" fill="url(#paint2_linear)"/>
<defs>
<linearGradient id="paint0_linear" x1="10.3453" y1="20.1597" x2="10.3453" y2="0.189501" gradientUnits="userSpaceOnUse">
<stop stop-color="#A7A7A7"/>
</linearGradient>
<linearGradient id="paint1_linear" x1="10.3452" y1="20.16" x2="10.3452" y2="0.189997" gradientUnits="userSpaceOnUse">
<stop stop-color="#A7A7A7"/>
</linearGradient>
<linearGradient id="paint2_linear" x1="15.5735" y1="20.1603" x2="15.5735" y2="0.190355" gradientUnits="userSpaceOnUse">
<stop stop-color="#A7A7A7"/>
</linearGradient>
</defs>
</svg>
