<svg width="21" height="21" viewBox="0 0 21 21" fill="none" xmlns="http://www.w3.org/2000/svg">
<g clip-path="url(#clip0)">
<path d="M18.459 0H2.051C0.92295 0 0 0.92295 0 2.051V18.459C0 19.587 0.92295 20.51 2.051 20.51H18.459C19.587 20.51 20.51 19.587 20.51 18.459V2.051C20.51 0.92295 19.587 0 18.459 0ZM6.153 17.4335H3.0765V8.204H6.153V17.4335ZM4.61475 6.46065C3.58925 6.46065 2.76885 5.64025 2.76885 4.61475C2.76885 3.58925 3.58925 2.76885 4.61475 2.76885C5.64025 2.76885 6.46065 3.58925 6.46065 4.61475C6.46065 5.64025 5.64025 6.46065 4.61475 6.46065ZM17.4335 17.4335H14.357V11.9984C14.357 11.178 13.6391 10.4601 12.8187 10.4601C11.9984 10.4601 11.2805 11.178 11.2805 11.9984V17.4335H8.204V8.204H11.2805V9.4346C11.7933 8.6142 12.9213 7.9989 13.8442 7.9989C15.7927 7.9989 17.4335 9.6397 17.4335 11.5882V17.4335Z" fill="#A7A7A7"/>
</g>
<defs>
<clipPath id="clip0">
<rect width="20.51" height="20.51" fill="white"/>
</clipPath>
</defs>
</svg>
