<svg width="262" height="264" viewBox="0 0 262 264" fill="none" xmlns="http://www.w3.org/2000/svg">
<circle cx="131" cy="131" r="131" fill="#B7E3F0"/>
<path d="M70.2124 77.0061L70.2187 76.85H70.0625H69.1875H69.0435L69.0376 76.9939L68.9185 79.9276H66H65.85V80.0776V80.8621V81.0121H66H68.9064L68.7876 83.994L68.7814 84.15H68.9375H69.8125H69.9567L69.9624 84.006L70.0817 81.0121H73H73.15V80.8621V80.0776V79.9276H73H70.0937L70.2124 77.0061Z" fill="#7DC8DB" stroke="#7DC8DB" stroke-width="0.3"/>
<path d="M229.052 155.006L229.058 154.85H228.902H228.277H228.133L228.127 154.994L228.043 157.048H226H225.85V157.198V157.759V157.909H226H228.031L227.948 159.994L227.942 160.15H228.098H228.723H228.867L228.873 160.006L228.957 157.909H231H231.15V157.759V157.198V157.048H231H228.969L229.052 155.006Z" fill="#7DC8DB" stroke="#7DC8DB" stroke-width="0.3"/>
<circle cx="31" cy="175" r="4" stroke="#7DC8DB" stroke-width="2"/>
<circle cx="139" cy="234" r="2.5" stroke="#7DC8DB"/>
<path d="M243 66.3027C243 66.3027 176.598 96.4491 144 4" stroke="#7DC8DB" stroke-dasharray="4 4"/>
<path d="M207.734 61.3286C207.12 61.3286 206.507 61.387 205.893 61.5038C205.433 59.3424 203.96 57.473 201.874 56.4799C199.787 55.4868 197.363 55.4284 195.246 56.3631C193.344 51.3391 187.514 48.7687 182.268 50.5797C177.021 52.3906 174.291 57.9403 176.193 62.9351C171.591 63.0811 167.939 66.703 168.001 71.0844C168.062 75.4657 171.836 79 176.438 79H207.703C212.827 79 217 75.0276 217 70.1497C217.031 65.301 212.858 61.3286 207.734 61.3286Z" fill="white"/>
<path d="M94.0031 192.594C93.5398 192.594 93.0764 192.638 92.6131 192.727C92.2655 191.087 91.1535 189.669 89.578 188.916C88.0026 188.162 86.1724 188.118 84.5738 188.827C83.1373 185.016 78.7354 183.066 74.7737 184.44C70.812 185.814 68.75 190.024 70.1864 193.813C66.7112 193.924 63.9542 196.671 64.0006 199.995C64.0469 203.319 66.8966 206 70.3718 206H93.98C97.849 206 101 202.986 101 199.286C101.023 195.608 97.8722 192.594 94.0031 192.594Z" fill="white" fill-opacity="0.8"/>
<path d="M16.2404 98.0315C16.6537 98.0315 17.067 98.0678 17.4802 98.1403C17.7902 96.7987 18.782 95.6384 20.1871 95.022C21.5923 94.4056 23.2247 94.3693 24.6504 94.9495C25.9316 91.8312 29.8576 90.2358 33.391 91.3598C36.9245 92.4838 38.7635 95.9285 37.4824 99.0287C40.5819 99.1193 43.0408 101.367 42.9995 104.087C42.9582 106.806 40.4166 109 37.3171 109H16.2611C12.8103 109 10.0001 106.534 10.0001 103.507C9.97945 100.497 12.7897 98.0315 16.2404 98.0315Z" fill="white"/>
<g clip-path="url(#clip0)">
<path d="M104.231 36.7755C104.183 36.7755 104.183 36.7755 104.135 36.7755C103.798 36.7274 103.558 36.3904 103.606 36.0535C103.606 35.9091 104.039 33.0695 106.734 31.4812C107.023 31.2887 107.408 31.3849 107.601 31.7218C107.793 32.0106 107.697 32.3956 107.36 32.5882C105.194 33.8396 104.857 36.1979 104.857 36.2461C104.809 36.5348 104.568 36.7755 104.231 36.7755Z" fill="black"/>
<path d="M107.023 37.1126C106.926 37.1126 106.878 37.1126 106.782 37.0645C106.445 36.9201 106.301 36.5832 106.397 36.2463C106.445 36.15 107.311 33.936 108.948 32.6846C110.44 31.5295 111.017 31.0963 111.017 31.0963C111.306 30.9038 111.691 30.9519 111.932 31.1926C112.124 31.4814 112.076 31.8664 111.836 32.1071C111.836 32.1071 111.258 32.5402 109.766 33.6954C108.418 34.7061 107.648 36.6794 107.648 36.6794C107.552 36.9682 107.311 37.1126 107.023 37.1126Z" fill="black"/>
<path d="M109.622 37.9308C109.526 37.9308 109.381 37.8827 109.285 37.8345C108.996 37.642 108.9 37.257 109.044 36.9682C109.092 36.9201 110.007 35.3799 111.066 34.7061L112.028 34.0804C112.317 33.8879 112.702 33.9841 112.895 34.2729C113.087 34.5617 112.991 34.9467 112.702 35.1392L111.74 35.7649C111.066 36.1981 110.344 37.257 110.151 37.5939C110.055 37.7864 109.863 37.9308 109.622 37.9308Z" fill="black"/>
<path d="M109.14 37.4976C104.664 35.2836 97.6373 36.92 94.9901 40.0966C92.343 43.2732 89.3589 47.9418 89.3589 47.9418L91.236 58.001C91.236 58.001 91.8135 58.5304 91.9098 60.0225C91.9098 60.0225 91.8616 101.27 108.322 128.897C124.783 156.523 136.286 162.395 136.286 162.395L142.639 174.235L148.896 159.555L138.018 151.373C138.018 151.373 126.997 140.352 117.804 113.591C107.889 84.5688 112.461 65.413 114.868 49.5782C115.349 46.161 115.782 40.7704 109.14 37.4976Z" fill="#E3BFDC"/>
<path d="M107.744 43.1288C107.504 43.1288 107.263 42.9362 107.263 42.6956C107.263 42.4549 107.456 42.2143 107.696 42.1662C107.841 42.1662 108.563 42.0218 108.659 41.1073C108.659 40.8185 108.9 40.626 109.188 40.6741C109.477 40.6741 109.67 40.9148 109.622 41.2035C109.477 42.5993 108.37 43.0806 107.744 43.1288Z" fill="black"/>
<path d="M108.9 44.1878C108.852 44.1878 108.804 44.1878 108.755 44.1878C108.467 44.1878 108.274 43.9471 108.322 43.6583C108.322 43.4177 108.563 43.177 108.852 43.2252C108.948 43.2252 109.285 43.2252 109.526 43.0326C109.622 42.9364 109.718 42.792 109.718 42.5995C109.718 42.3107 109.959 42.1182 110.248 42.1663C110.536 42.1663 110.729 42.407 110.681 42.6957C110.633 43.177 110.488 43.5621 110.151 43.8027C109.718 44.1396 109.141 44.1878 108.9 44.1878Z" fill="black"/>
<path d="M104.087 52.6586C107.25 52.6586 109.814 50.0943 109.814 46.9311C109.814 43.7679 107.25 41.2036 104.087 41.2036C100.924 41.2036 98.3594 43.7679 98.3594 46.9311C98.3594 50.0943 100.924 52.6586 104.087 52.6586Z" fill="white"/>
<path d="M104.087 49.7708C105.815 49.7708 107.215 48.3702 107.215 46.6424C107.215 44.9146 105.815 43.5139 104.087 43.5139C102.359 43.5139 100.958 44.9146 100.958 46.6424C100.958 48.3702 102.359 49.7708 104.087 49.7708Z" fill="black"/>
<path d="M104.087 50.3964C106.134 50.3964 107.793 48.7372 107.793 46.6904C107.793 44.6436 106.134 42.9844 104.087 42.9844C102.04 42.9844 100.381 44.6436 100.381 46.6904C100.381 48.7372 102.04 50.3964 104.087 50.3964Z" fill="black"/>
<path d="M102.884 41.8774L104.039 45.7278L106.301 43.4657L102.884 41.8774Z" fill="white"/>
<path d="M173.827 187.423C173.827 187.423 181.913 201.814 182.731 226.408C183.309 243.831 170.939 259.185 170.939 259.185H175.993C175.993 259.185 186.678 239.403 189.855 228.189C192.887 217.456 192.405 195.316 185.812 184.439C179.17 173.561 173.827 187.423 173.827 187.423Z" fill="#D3AACF"/>
<path d="M183.02 185.834C183.02 185.834 192.598 196.279 190.528 215.819C187.785 241.232 174.164 259.521 174.164 259.521L176.619 260.195C176.619 260.195 195.389 230.499 192.55 206.867C189.758 183.283 185.571 181.599 185.571 181.599L183.02 185.834Z" fill="#DC91BB"/>
<path d="M181.191 199.07C181.191 199.311 180.999 199.551 180.71 199.551C180.469 199.551 180.229 199.359 180.229 199.07C180.229 198.781 180.421 198.589 180.71 198.589C180.999 198.637 181.191 198.83 181.191 199.07Z" fill="#BA6E9D"/>
<path d="M187.689 206.578C187.822 206.578 187.93 206.471 187.93 206.338C187.93 206.205 187.822 206.097 187.689 206.097C187.556 206.097 187.448 206.205 187.448 206.338C187.448 206.471 187.556 206.578 187.689 206.578Z" fill="#BA6E9D"/>
<path d="M182.779 204.509C182.912 204.509 183.02 204.401 183.02 204.268C183.02 204.135 182.912 204.028 182.779 204.028C182.647 204.028 182.539 204.135 182.539 204.268C182.539 204.401 182.647 204.509 182.779 204.509Z" fill="#BA6E9D"/>
<path d="M183.646 211.825C183.779 211.825 183.887 211.717 183.887 211.584C183.887 211.451 183.779 211.343 183.646 211.343C183.513 211.343 183.405 211.451 183.405 211.584C183.405 211.717 183.513 211.825 183.646 211.825Z" fill="#BA6E9D"/>
<path d="M185.282 226.408C185.415 226.408 185.523 226.3 185.523 226.167C185.523 226.035 185.415 225.927 185.282 225.927C185.149 225.927 185.042 226.035 185.042 226.167C185.042 226.3 185.149 226.408 185.282 226.408Z" fill="#BA6E9D"/>
<path d="M189.518 216.301C189.783 216.301 189.999 216.085 189.999 215.819C189.999 215.554 189.783 215.338 189.518 215.338C189.252 215.338 189.036 215.554 189.036 215.819C189.036 216.085 189.252 216.301 189.518 216.301Z" fill="#BA6E9D"/>
<path d="M186.437 235.553C186.703 235.553 186.918 235.337 186.918 235.072C186.918 234.806 186.703 234.59 186.437 234.59C186.171 234.59 185.956 234.806 185.956 235.072C185.956 235.337 186.171 235.553 186.437 235.553Z" fill="#BA6E9D"/>
<path d="M182.779 243.398C183.045 243.398 183.261 243.182 183.261 242.917C183.261 242.651 183.045 242.435 182.779 242.435C182.514 242.435 182.298 242.651 182.298 242.917C182.298 243.182 182.514 243.398 182.779 243.398Z" fill="#BA6E9D"/>
<path d="M179.892 251.628C180.158 251.628 180.373 251.413 180.373 251.147C180.373 250.881 180.158 250.666 179.892 250.666C179.626 250.666 179.41 250.881 179.41 251.147C179.41 251.413 179.626 251.628 179.892 251.628Z" fill="#BA6E9D"/>
<path d="M189.036 198.83C189.302 198.83 189.518 198.614 189.518 198.348C189.518 198.082 189.302 197.867 189.036 197.867C188.77 197.867 188.555 198.082 188.555 198.348C188.555 198.614 188.77 198.83 189.036 198.83Z" fill="#BA6E9D"/>
<path d="M185.09 232.28C185.223 232.28 185.33 232.172 185.33 232.039C185.33 231.906 185.223 231.799 185.09 231.799C184.957 231.799 184.849 231.906 184.849 232.039C184.849 232.172 184.957 232.28 185.09 232.28Z" fill="#BA6E9D"/>
<path d="M183.838 238.056C183.971 238.056 184.079 237.948 184.079 237.815C184.079 237.682 183.971 237.574 183.838 237.574C183.705 237.574 183.598 237.682 183.598 237.815C183.598 237.948 183.705 238.056 183.838 238.056Z" fill="#BA6E9D"/>
<path d="M188.603 224.29C188.869 224.29 189.084 224.075 189.084 223.809C189.084 223.543 188.869 223.328 188.603 223.328C188.337 223.328 188.122 223.543 188.122 223.809C188.122 224.075 188.337 224.29 188.603 224.29Z" fill="#BA6E9D"/>
<path d="M184.849 219.429C185.115 219.429 185.331 219.214 185.331 218.948C185.331 218.682 185.115 218.467 184.849 218.467C184.583 218.467 184.368 218.682 184.368 218.948C184.368 219.214 184.583 219.429 184.849 219.429Z" fill="#BA6E9D"/>
<path d="M176.763 193.92C176.763 193.92 185.09 194.305 186.1 192.717C187.111 191.129 186.1 190.359 186.1 190.359C186.1 190.359 188.17 189.396 187.4 187.423C186.245 184.487 174.982 189.637 174.982 189.637L176.763 193.92Z" fill="#BA6E9D"/>
<path d="M170.795 193.439L164.779 192.284C164.779 192.284 164.538 194.161 162.998 194.305C161.458 194.45 158.137 192.428 158.137 192.428L161.554 189.877L170.747 191.803L171.132 193.487L170.795 193.439Z" fill="#DC91BB"/>
<path d="M155.008 188.097C155.008 188.097 163.094 202.487 163.912 227.082C164.49 244.505 152.121 259.858 152.121 259.858H157.174C157.174 259.858 167.859 240.077 171.036 228.863C174.068 218.13 173.587 195.99 166.993 185.112C160.399 174.235 155.008 188.097 155.008 188.097Z" fill="#E3BFDC"/>
<path d="M164.201 186.46C164.201 186.46 173.779 196.904 171.709 216.445C168.966 241.858 155.345 260.147 155.345 260.147L157.8 260.821C157.8 260.821 176.571 231.125 173.731 207.493C170.891 183.861 166.752 182.225 166.752 182.225L164.201 186.46Z" fill="#DC91BB"/>
<path d="M162.373 199.744C162.373 199.985 162.18 200.225 161.891 200.225C161.651 200.225 161.41 200.033 161.41 199.744C161.41 199.455 161.602 199.263 161.891 199.263C162.18 199.263 162.373 199.503 162.373 199.744Z" fill="#BA6E9D"/>
<path d="M168.87 207.252C169.003 207.252 169.111 207.145 169.111 207.012C169.111 206.879 169.003 206.771 168.87 206.771C168.737 206.771 168.629 206.879 168.629 207.012C168.629 207.145 168.737 207.252 168.87 207.252Z" fill="#BA6E9D"/>
<path d="M163.961 205.183C164.094 205.183 164.201 205.075 164.201 204.942C164.201 204.809 164.094 204.701 163.961 204.701C163.828 204.701 163.72 204.809 163.72 204.942C163.72 205.075 163.828 205.183 163.961 205.183Z" fill="#BA6E9D"/>
<path d="M164.827 212.498C164.96 212.498 165.068 212.391 165.068 212.258C165.068 212.125 164.96 212.017 164.827 212.017C164.694 212.017 164.586 212.125 164.586 212.258C164.586 212.391 164.694 212.498 164.827 212.498Z" fill="#BA6E9D"/>
<path d="M166.512 227.082C166.645 227.082 166.752 226.974 166.752 226.841C166.752 226.708 166.645 226.601 166.512 226.601C166.379 226.601 166.271 226.708 166.271 226.841C166.271 226.974 166.379 227.082 166.512 227.082Z" fill="#BA6E9D"/>
<path d="M170.699 216.975C170.965 216.975 171.18 216.759 171.18 216.493C171.18 216.227 170.965 216.012 170.699 216.012C170.433 216.012 170.218 216.227 170.218 216.493C170.218 216.759 170.433 216.975 170.699 216.975Z" fill="#BA6E9D"/>
<path d="M167.667 236.227C167.932 236.227 168.148 236.011 168.148 235.745C168.148 235.48 167.932 235.264 167.667 235.264C167.401 235.264 167.185 235.48 167.185 235.745C167.185 236.011 167.401 236.227 167.667 236.227Z" fill="#BA6E9D"/>
<path d="M163.961 244.072C164.226 244.072 164.442 243.856 164.442 243.59C164.442 243.325 164.226 243.109 163.961 243.109C163.695 243.109 163.479 243.325 163.479 243.59C163.479 243.856 163.695 244.072 163.961 244.072Z" fill="#BA6E9D"/>
<path d="M161.073 252.302C161.339 252.302 161.554 252.086 161.554 251.821C161.554 251.555 161.339 251.339 161.073 251.339C160.807 251.339 160.592 251.555 160.592 251.821C160.592 252.086 160.807 252.302 161.073 252.302Z" fill="#BA6E9D"/>
<path d="M170.265 199.503C170.531 199.503 170.747 199.288 170.747 199.022C170.747 198.756 170.531 198.541 170.265 198.541C170 198.541 169.784 198.756 169.784 199.022C169.784 199.288 170 199.503 170.265 199.503Z" fill="#BA6E9D"/>
<path d="M166.271 232.954C166.404 232.954 166.512 232.846 166.512 232.713C166.512 232.58 166.404 232.472 166.271 232.472C166.138 232.472 166.03 232.58 166.03 232.713C166.03 232.846 166.138 232.954 166.271 232.954Z" fill="#BA6E9D"/>
<path d="M165.068 238.729C165.2 238.729 165.308 238.622 165.308 238.489C165.308 238.356 165.2 238.248 165.068 238.248C164.935 238.248 164.827 238.356 164.827 238.489C164.827 238.622 164.935 238.729 165.068 238.729Z" fill="#BA6E9D"/>
<path d="M169.784 224.964C170.05 224.964 170.266 224.749 170.266 224.483C170.266 224.217 170.05 224.001 169.784 224.001C169.518 224.001 169.303 224.217 169.303 224.483C169.303 224.749 169.518 224.964 169.784 224.964Z" fill="#BA6E9D"/>
<path d="M166.03 220.103C166.296 220.103 166.512 219.887 166.512 219.622C166.512 219.356 166.296 219.14 166.03 219.14C165.765 219.14 165.549 219.356 165.549 219.622C165.549 219.887 165.765 220.103 166.03 220.103Z" fill="#BA6E9D"/>
<path d="M157.944 194.594C157.944 194.594 166.271 194.979 167.282 193.391C168.292 191.803 167.282 191.032 167.282 191.032C167.282 191.032 169.351 190.07 168.581 188.097C167.426 185.161 156.164 190.311 156.164 190.311L157.944 194.594Z" fill="#BA6E9D"/>
<path d="M160.88 262.169L161.265 260.34H134.313C133.735 261.302 133.542 262.169 133.542 262.169H160.88Z" fill="#FEF6B1"/>
<path d="M139.607 259.618C139.607 259.907 139.607 260.147 139.559 260.34H161.265L163.431 250.714C163.431 250.714 160.014 251.002 158.522 252.206C157.03 253.409 156.452 256.152 156.452 256.152C156.452 256.152 155.682 256.345 156.645 253.361C157.656 250.377 156.164 250.666 156.164 250.666L153.18 256.393C153.18 256.393 142.783 256.971 138.644 257.548C139.222 257.981 139.655 258.655 139.607 259.618Z" fill="#E73B32"/>
<path d="M134.361 260.34H139.607C139.607 260.099 139.607 259.858 139.655 259.618C139.703 258.655 139.27 257.981 138.692 257.596C138.596 257.596 138.452 257.644 138.355 257.644C136.238 257.981 135.034 259.233 134.361 260.34Z" fill="#FEF6B1"/>
<path d="M150.725 258.318C150.725 258.318 150.725 257.741 150.34 257.211C150.003 256.778 149.666 256.682 149.377 256.682C149.811 256.201 150.388 256.441 150.677 256.73C151.303 257.259 151.351 258.222 151.351 258.27L150.725 258.318H151.014H150.725Z" fill="white"/>
<path d="M149.041 258.414C149.041 258.414 149.041 257.837 148.655 257.307C148.319 256.874 147.982 256.778 147.693 256.778C148.126 256.297 148.704 256.537 148.992 256.826C149.618 257.356 149.666 258.318 149.666 258.366L149.041 258.414H149.329H149.041Z" fill="white"/>
<path d="M154.142 258.078C154.142 258.078 154.142 257.5 153.757 256.971C153.42 256.537 153.083 256.441 152.794 256.441C153.228 255.96 153.805 256.2 154.094 256.489C154.72 257.019 154.768 257.981 154.768 258.029L154.142 258.078H154.431H154.142Z" fill="white"/>
<path d="M152.409 258.174C152.409 258.174 152.409 257.596 152.024 257.067C151.687 256.634 151.351 256.537 151.062 256.537C151.495 256.056 152.073 256.297 152.361 256.585C152.987 257.115 153.035 258.077 153.035 258.126L152.409 258.174H152.698H152.409Z" fill="white"/>
<path d="M155.923 257.404C155.923 257.355 155.297 255.815 153.565 255.719C153.565 255.719 153.372 255.527 153.709 255.238C156.067 255.238 156.452 257.211 156.5 257.259L155.923 257.404Z" fill="white"/>
<path d="M138.019 151.277C133.206 157.245 133.158 162.106 133.158 162.106C133.158 162.106 136.431 192.765 170.747 189.877C199.577 187.471 184.705 182.658 184.705 182.658C184.705 182.658 189.181 183.861 190.336 181.31C191.539 178.807 187.208 177.749 187.208 177.749C187.208 177.749 195.39 177.893 195.679 171.829C202.946 171.54 207.567 170.048 207.711 168.267C207.856 166.486 204.15 166.053 204.15 166.053C204.15 166.053 207.856 165.62 207.711 164.417C207.567 163.213 205.93 162.925 205.93 162.925C205.93 162.925 206.556 162.78 207.711 160.566C208.866 158.352 204.438 158.882 205.16 158.93C214.786 159.411 216.952 146.416 216.952 146.416C216.952 146.416 198.374 144.539 180.518 142.902C152.987 140.4 142.014 146.32 138.019 151.277Z" fill="#20264A"/>
<path d="M151.639 157.245C151.639 157.245 167.426 163.069 176.522 172.599C179.699 174.572 187.207 178.711 187.4 180.829C187.592 182.947 184.801 182.706 184.801 182.706C184.801 182.706 186.533 184.439 185.956 186.075C185.378 187.711 183.742 188.145 183.742 188.145L147.356 176.016C147.356 176.016 139.992 157.149 140.617 157.245C141.243 157.341 143.601 155.464 151.639 157.245Z" fill="#1F2142"/>
<path d="M161.41 174.572C166.464 178.519 168.678 181.214 167.474 182.85C166.271 184.487 164.346 184.054 164.346 184.054C164.346 184.054 166.127 186.123 165.26 187.326C164.346 188.53 161.41 187.76 161.41 187.76C161.41 187.76 164.683 190.599 163.335 192.669C161.987 194.738 157.559 192.236 155.009 190.888C152.506 189.54 146.249 183.765 140.762 177.364C135.275 170.962 133.783 164.465 133.783 164.465C133.783 164.465 136.19 154.887 161.41 174.572Z" fill="#20264A"/>
<path d="M133.206 164.561C133.206 164.561 140.088 189.926 163.672 191.466C183.502 192.765 184.609 190.744 184.464 189.107C184.32 187.471 177.052 186.749 177.052 186.749C177.052 186.749 184.031 187.952 184.464 185.69C184.897 183.428 182.828 183.909 177.197 181.07C182.972 182.273 183.839 183.139 184.512 181.07C185.186 179 180.903 178.567 178.063 176.449C175.223 174.331 161.025 163.839 145.527 158.063C129.644 152.143 133.206 164.561 133.206 164.561Z" fill="#282F55"/>
<path d="M175.512 174.187C175.512 174.187 182.828 180.396 180.903 181.936C183.646 182.562 185.62 183.332 185.86 181.31C186.101 179.289 176.956 174.235 175.512 174.187Z" fill="white"/>
<path d="M179.843 182.273C179.988 182.321 182.106 185.112 180.71 186.075C179.362 187.038 178.977 186.941 178.977 186.941C178.977 186.941 183.79 188.53 184.464 185.69C185.09 182.802 179.843 182.273 179.843 182.273Z" fill="white"/>
<path d="M174.79 191.899C174.79 191.899 180.469 191.706 181.769 189.829C183.02 187.952 181.769 187.567 181.769 187.567C181.769 187.567 184.945 188.241 184.753 189.3C184.512 190.311 185.186 192.14 174.79 191.899Z" fill="white"/>
<path d="M73.8611 53.1881C73.6685 54.3913 76.9414 56.5572 83.2464 56.7978C89.5515 57.0385 91.3804 58.2417 91.3804 58.2417C91.3804 58.2417 94.942 56.9903 95.7602 54.5357C96.5785 52.0811 96.1453 48.712 93.0168 47.3162C90.6585 46.2573 90.1772 46.6905 90.1772 46.6905C90.1772 46.6905 87.4819 51.696 82.8133 52.2255C77.904 52.7549 74.1498 51.2147 73.8611 53.1881Z" fill="#F6A13D"/>
<path d="M179.218 263.131L179.603 261.302H152.65C152.072 262.265 151.88 263.131 151.88 263.131H179.218Z" fill="#FEF6B1"/>
<path d="M157.896 260.532C157.896 260.821 157.896 261.062 157.848 261.254H179.555L181.721 251.628C181.721 251.628 178.303 251.917 176.811 253.12C175.319 254.324 174.742 257.067 174.742 257.067C174.742 257.067 173.972 257.259 174.934 254.275C175.945 251.291 174.453 251.58 174.453 251.58L171.469 257.308C171.469 257.308 161.073 257.885 156.934 258.463C157.511 258.896 157.944 259.57 157.896 260.532Z" fill="#E73B32"/>
<path d="M152.65 261.254H157.896C157.896 261.013 157.896 260.773 157.944 260.532C157.992 259.57 157.559 258.896 156.982 258.511C156.885 258.511 156.741 258.559 156.645 258.559C154.575 258.896 153.372 260.147 152.65 261.254Z" fill="#FEF6B1"/>
<path d="M169.062 259.233C169.062 259.233 169.062 258.655 168.677 258.126C168.341 257.693 168.004 257.596 167.715 257.596C168.148 257.115 168.726 257.356 169.014 257.645C169.64 258.174 169.688 259.137 169.688 259.185L169.062 259.233H169.351H169.062Z" fill="white"/>
<path d="M167.33 259.329C167.33 259.329 167.33 258.751 166.945 258.222C166.608 257.789 166.271 257.693 165.982 257.693C166.415 257.211 166.993 257.452 167.282 257.741C167.907 258.27 167.955 259.233 167.955 259.281L167.33 259.329H167.619H167.33Z" fill="white"/>
<path d="M172.431 258.992C172.431 258.992 172.431 258.415 172.046 257.885C171.709 257.452 171.373 257.356 171.084 257.356C171.517 256.874 172.094 257.115 172.383 257.404C173.009 257.933 173.057 258.896 173.057 258.944L172.431 258.992H172.72H172.431Z" fill="white"/>
<path d="M170.747 259.088C170.747 259.088 170.747 258.511 170.362 257.981C170.025 257.548 169.688 257.452 169.399 257.452C169.832 256.971 170.41 257.211 170.699 257.5C171.324 258.029 171.373 258.992 171.373 259.04L170.747 259.088H171.036H170.747Z" fill="white"/>
<path d="M174.212 258.318C174.212 258.27 173.587 256.73 171.854 256.634C171.854 256.634 171.661 256.441 171.998 256.152C174.357 256.152 174.742 258.126 174.79 258.174L174.212 258.318Z" fill="white"/>
<path d="M112.077 60.0223C110.873 73.3544 109.574 86.2532 112.077 99.3446C115.59 117.682 120.307 125.335 120.307 125.335C120.307 125.335 126.804 140.977 138.019 151.277C128.537 137.752 117.563 121.773 113.617 98.0451C109.67 74.317 114.964 48.6155 114.964 48.6155C115.205 47.1235 112.606 54.2948 112.077 60.0223Z" fill="#DC91BB"/>
<path d="M99.4662 78.4082C101.006 78.4082 101.006 76.0017 99.4662 76.0017C97.926 76.0017 97.926 78.4082 99.4662 78.4082Z" fill="#D3AACF"/>
<path d="M110.729 107.623C112.269 107.623 112.269 105.217 110.729 105.217C109.141 105.217 109.141 107.623 110.729 107.623Z" fill="#D3AACF"/>
<path d="M116.167 139.052C117.707 139.052 117.707 136.646 116.167 136.646C114.627 136.646 114.627 139.052 116.167 139.052Z" fill="#D3AACF"/>
<path d="M133.157 148.823C133.109 148.823 133.013 148.823 132.965 148.823C131.425 148.823 131.425 151.229 132.965 151.229C133.013 151.229 133.109 151.229 133.157 151.229C134.746 151.229 134.746 148.823 133.157 148.823C133.109 148.823 133.013 148.823 132.965 148.823C131.425 148.823 131.425 151.229 132.965 151.229C133.013 151.229 133.109 151.229 133.157 151.229C134.746 151.229 134.746 148.823 133.157 148.823Z" fill="#D3AACF"/>
<path d="M78.9629 79.6114L69 65.6537L80.4068 54.9688C80.4068 54.9688 83.3428 55.6908 88.9259 53.8618C92.9207 58.2417 97.2524 63.7285 97.2524 63.7285L78.9629 79.6114Z" fill="#A4B1DB"/>
<path d="M84.9792 55.0651C84.9792 55.0651 86.9525 65.7981 85.1236 67.242C83.2946 68.6859 69 65.6537 69 65.6537L78.9629 79.6114L97.2524 63.7285L88.9259 53.8618L84.9792 55.0651Z" fill="#7E92C4"/>
<path d="M92.1508 53.0916C91.1882 53.5248 90.2737 53.8617 89.3111 54.1505C88.3485 54.4393 87.3859 54.6799 86.3751 54.8725C85.4125 55.065 84.4018 55.1612 83.3911 55.2094C82.3804 55.2575 81.3696 55.2094 80.407 55.1131C79.2519 55.065 78.0968 54.8725 76.9898 54.5837C75.8828 54.2949 74.8239 53.8617 73.8613 53.1879C74.8239 53.8136 75.9309 54.1986 77.0379 54.4393C78.1449 54.6799 79.3 54.8243 80.407 54.8243C81.3696 54.8725 82.3804 54.8725 83.343 54.7762C84.3056 54.6799 85.2682 54.5356 86.2308 54.2949C87.1934 54.0543 88.1078 53.7655 89.0223 53.4286C89.9368 53.0916 90.8512 52.7066 91.6695 52.2734L92.1508 53.0916Z" fill="#2D2618"/>
</g>
<defs>
<clipPath id="clip0">
<rect width="148" height="232.131" fill="white" transform="translate(69 31)"/>
</clipPath>
</defs>
</svg>
