<svg width="262" height="264" viewBox="0 0 262 264" fill="none" xmlns="http://www.w3.org/2000/svg">
<circle cx="131" cy="131" r="131" fill="#B7E3F0"/>
<path d="M70.2124 77.0061L70.2187 76.85H70.0625H69.1875H69.0435L69.0376 76.9939L68.9185 79.9276H66H65.85V80.0776V80.8621V81.0121H66H68.9064L68.7876 83.994L68.7814 84.15H68.9375H69.8125H69.9567L69.9624 84.006L70.0817 81.0121H73H73.15V80.8621V80.0776V79.9276H73H70.0937L70.2124 77.0061Z" fill="#7DC8DB" stroke="#7DC8DB" stroke-width="0.3"/>
<path d="M229.052 155.006L229.058 154.85H228.902H228.277H228.133L228.127 154.994L228.043 157.048H226H225.85V157.198V157.759V157.909H226H228.031L227.948 159.994L227.942 160.15H228.098H228.723H228.867L228.873 160.006L228.957 157.909H231H231.15V157.759V157.198V157.048H231H228.969L229.052 155.006Z" fill="#7DC8DB" stroke="#7DC8DB" stroke-width="0.3"/>
<circle cx="31" cy="175" r="4" stroke="#7DC8DB" stroke-width="2"/>
<circle cx="139" cy="234" r="2.5" stroke="#7DC8DB"/>
<path d="M243 66.3027C243 66.3027 176.598 96.4491 144 4" stroke="#7DC8DB" stroke-dasharray="4 4"/>
<path d="M207.734 61.3286C207.12 61.3286 206.507 61.387 205.893 61.5038C205.433 59.3424 203.96 57.473 201.874 56.4799C199.787 55.4868 197.363 55.4284 195.246 56.3631C193.344 51.3391 187.514 48.7687 182.268 50.5797C177.021 52.3906 174.291 57.9403 176.193 62.9351C171.591 63.0811 167.939 66.703 168.001 71.0844C168.062 75.4657 171.836 79 176.438 79H207.703C212.827 79 217 75.0276 217 70.1497C217.031 65.301 212.858 61.3286 207.734 61.3286Z" fill="white"/>
<path d="M94.0031 192.594C93.5398 192.594 93.0764 192.638 92.6131 192.727C92.2655 191.087 91.1535 189.669 89.578 188.916C88.0026 188.162 86.1724 188.118 84.5738 188.827C83.1373 185.016 78.7354 183.066 74.7737 184.44C70.812 185.814 68.75 190.024 70.1864 193.813C66.7112 193.924 63.9542 196.671 64.0006 199.995C64.0469 203.319 66.8966 206 70.3718 206H93.98C97.849 206 101 202.986 101 199.286C101.023 195.608 97.8722 192.594 94.0031 192.594Z" fill="white" fill-opacity="0.8"/>
<path d="M16.2404 98.0315C16.6537 98.0315 17.067 98.0678 17.4802 98.1403C17.7902 96.7987 18.782 95.6384 20.1871 95.022C21.5923 94.4056 23.2247 94.3693 24.6504 94.9495C25.9316 91.8312 29.8576 90.2358 33.391 91.3598C36.9245 92.4838 38.7635 95.9285 37.4824 99.0287C40.5819 99.1193 43.0408 101.367 42.9995 104.087C42.9582 106.806 40.4166 109 37.3171 109H16.2611C12.8103 109 10.0001 106.534 10.0001 103.507C9.97945 100.497 12.7897 98.0315 16.2404 98.0315Z" fill="white"/>
<g clip-path="url(#clip0)">
<path d="M114.451 28.9718C114.401 28.9718 114.401 28.9718 114.352 28.9718C114.003 28.922 113.755 28.5737 113.804 28.2253C113.804 28.076 114.252 25.1399 117.039 23.4977C117.338 23.2986 117.736 23.3982 117.935 23.7465C118.134 24.0451 118.034 24.4432 117.686 24.6423C115.447 25.9362 115.098 28.3746 115.098 28.4244C115.048 28.723 114.75 28.9718 114.451 28.9718Z" fill="black"/>
<path d="M117.338 29.3202C117.238 29.3202 117.188 29.3202 117.089 29.2704C116.74 29.1212 116.591 28.7728 116.691 28.4244C116.74 28.3249 117.636 26.0357 119.328 24.7419C120.871 23.5475 121.468 23.0996 121.468 23.0996C121.767 22.9006 122.165 22.9503 122.414 23.1992C122.613 23.4978 122.563 23.8959 122.314 24.1447C122.314 24.1447 121.717 24.5926 120.174 25.7869C118.781 26.832 117.985 28.8723 117.985 28.8723C117.835 29.1709 117.586 29.3202 117.338 29.3202Z" fill="black"/>
<path d="M120.025 30.166C119.925 30.166 119.776 30.1163 119.677 30.0665C119.378 29.8674 119.278 29.4693 119.428 29.1707C119.477 29.121 120.423 27.5285 121.518 26.8318L122.513 26.1849C122.812 25.9858 123.21 26.0853 123.409 26.3839C123.608 26.6825 123.508 27.0806 123.21 27.2797L122.215 27.9266C121.518 28.3745 120.771 29.4693 120.572 29.8177C120.473 30.0167 120.224 30.166 120.025 30.166Z" fill="black"/>
<path d="M119.478 29.7182C114.849 27.429 107.584 29.121 104.847 32.4055C102.11 35.6899 99.0741 40.5171 99.0741 40.5171L101.015 50.9179C101.015 50.9179 101.612 51.4653 101.712 53.008C101.712 53.008 101.662 95.6563 118.681 124.221C135.701 152.786 147.595 158.857 147.595 158.857L154.164 171.1L160.633 155.921L149.386 147.461C149.386 147.461 137.99 136.065 128.485 108.396C118.233 78.388 122.961 58.5817 125.449 42.2091C125.947 38.6758 126.345 33.1022 119.478 29.7182Z" fill="#E3BFDC"/>
<path d="M118.034 35.5407C117.786 35.5407 117.537 35.3417 117.537 35.0929C117.537 34.844 117.736 34.5952 117.985 34.5454C118.134 34.5454 118.88 34.3961 118.98 33.4506C118.98 33.152 119.229 32.953 119.527 33.0027C119.826 33.0027 120.025 33.2516 119.975 33.5501C119.876 34.9933 118.681 35.491 118.034 35.5407Z" fill="black"/>
<path d="M119.229 36.6356C119.179 36.6356 119.129 36.6356 119.079 36.6356C118.781 36.6356 118.582 36.3868 118.632 36.0882C118.632 35.8393 118.88 35.5905 119.179 35.6403C119.278 35.6403 119.627 35.6403 119.876 35.4412C119.975 35.3417 120.075 35.1924 120.075 34.9933C120.075 34.6948 120.324 34.4957 120.622 34.5455C120.921 34.5455 121.12 34.7943 121.07 35.0929C121.02 35.5905 120.871 35.9886 120.523 36.2375C120.075 36.5858 119.527 36.6356 119.229 36.6356Z" fill="black"/>
<path opacity="0.5" d="M114.252 55.7451C117.44 55.7451 120.025 53.1606 120.025 49.9724C120.025 46.7842 117.44 44.1997 114.252 44.1997C111.064 44.1997 108.479 46.7842 108.479 49.9724C108.479 53.1606 111.064 55.7451 114.252 55.7451Z" fill="#E56B63"/>
<path d="M114.252 45.394C117.523 45.394 120.174 42.7427 120.174 39.472C120.174 36.2014 117.523 33.55 114.252 33.55C110.982 33.55 108.33 36.2014 108.33 39.472C108.33 42.7427 110.982 45.394 114.252 45.394Z" fill="white"/>
<path d="M144.559 155.672C144.559 155.672 144.509 169.109 137.194 173.737C129.878 178.365 125.997 177.519 116.093 179.36C116.093 179.36 114.352 183.292 114.053 183.939C114.799 184.735 110.52 190.408 112.908 193.195C115.297 195.982 117.785 195.335 117.785 195.335C117.785 195.335 118.631 196.828 120.622 197.375C122.563 197.923 124.603 197.724 124.603 197.724C124.603 197.724 125.847 199.366 128.136 199.067C130.475 198.769 132.366 199.416 132.366 199.416C132.366 199.416 133.909 199.416 137.243 198.769C140.627 198.072 177.155 187.771 166.007 154.13C164.912 151.194 152.073 143.132 144.559 155.672Z" fill="#3B4B9A"/>
<path d="M125.698 158.957L156.353 182.745L141.374 206.283L109.674 185.531L125.698 158.957Z" fill="#F2A909"/>
<path d="M133.81 161.794L127.937 158.111L125.698 158.957L127.241 166.969L134.805 167.517L133.81 161.794Z" fill="#F2A909"/>
<path d="M125.947 160.201L110.719 185.332L139.881 205.537L156.303 183.491L125.947 160.201Z" fill="#E0DAC1"/>
<path d="M125.947 160.749L110.669 185.88L139.831 206.084L156.253 184.038L125.947 160.749Z" fill="#FCF3C8"/>
<path d="M124.802 160.948L157.647 184.685L141.523 207.727L109.674 185.531L124.802 160.948Z" fill="#F4D303"/>
<path d="M115.347 190.259C115.347 190.259 120.672 184.138 122.762 185.929C124.802 187.721 123.26 195.733 116.392 198.321C109.525 200.958 110.371 193.693 111.366 191.105C112.361 188.517 113.257 187.621 113.257 187.621L115.347 190.259Z" fill="#20264A"/>
<path d="M122.712 192.25C122.712 192.25 129.182 186.626 131.172 188.617C133.163 190.607 133.611 195.136 123.807 200.112C114.004 205.139 115.745 198.271 115.745 198.271L122.712 192.25Z" fill="#20264A"/>
<path d="M122.115 199.565C122.115 199.565 125.2 203.347 128.883 202.053C132.566 200.759 139.234 197.525 139.732 193.444C140.229 189.363 133.909 192.249 133.909 192.249L128.186 193.842L122.115 199.565Z" fill="#20264A"/>
<path d="M130.923 182.296H125.35L123.21 175.678H119.975L118.183 171.746L118.88 170.851L120.622 174.682H123.906L126.046 181.301H130.923V182.296Z" fill="#F2A909"/>
<path d="M182.629 212.056C182.766 212.056 182.878 211.944 182.878 211.807C182.878 211.67 182.766 211.558 182.629 211.558C182.491 211.558 182.38 211.67 182.38 211.807C182.38 211.944 182.491 212.056 182.629 212.056Z" fill="#DC91BB"/>
<path d="M182.38 205.984C182.517 205.984 182.629 205.873 182.629 205.736C182.629 205.598 182.517 205.487 182.38 205.487C182.242 205.487 182.131 205.598 182.131 205.736C182.131 205.873 182.242 205.984 182.38 205.984Z" fill="#DC91BB"/>
<path d="M167.252 183.242C167.252 183.242 168.595 185.631 170.237 190.109C172.726 196.828 175.96 208.274 176.458 223.551C177.055 241.566 164.266 257.441 164.266 257.441H169.491C169.491 257.441 181.783 237.286 183.823 225.393C185.864 213.499 186.461 191.403 179.643 180.157C172.775 168.91 167.252 183.242 167.252 183.242Z" fill="#E3BFDC"/>
<path d="M170.536 177.867C170.536 177.867 184.371 188.865 183.574 214.494C182.778 240.123 166.107 259.78 166.107 259.78L169.292 259.432C169.292 259.432 183.126 239.874 184.818 216.485C186.51 193.095 182.529 186.676 182.529 186.676L170.536 177.867Z" fill="#DC91BB"/>
<path d="M172.974 262.019L173.373 260.128H145.504C144.907 261.123 144.708 262.019 144.708 262.019H172.974Z" fill="#FEF6B1"/>
<path d="M150.978 259.382C150.978 259.68 150.978 259.929 150.929 260.128H173.373L175.612 250.175C175.612 250.175 172.079 250.474 170.536 251.718C168.993 252.962 168.396 255.799 168.396 255.799C168.396 255.799 167.6 255.998 168.595 252.912C169.64 249.827 168.097 250.126 168.097 250.126L165.012 256.048C165.012 256.048 154.263 256.645 149.983 257.242C150.58 257.69 151.028 258.386 150.978 259.382Z" fill="#E73B32"/>
<path d="M145.554 260.128H150.978C150.978 259.879 150.978 259.63 151.028 259.382C151.078 258.386 150.63 257.69 150.033 257.292C149.933 257.292 149.784 257.341 149.684 257.341C147.545 257.69 146.251 258.984 145.554 260.128Z" fill="#FEF6B1"/>
<path d="M162.524 258.038C162.524 258.038 162.524 257.441 162.126 256.893C161.777 256.445 161.429 256.346 161.13 256.346C161.578 255.848 162.176 256.097 162.474 256.396C163.121 256.943 163.171 257.938 163.171 257.988L162.524 258.038H162.822H162.524Z" fill="white"/>
<path d="M160.732 258.138C160.732 258.138 160.732 257.54 160.334 256.993C159.986 256.545 159.638 256.446 159.339 256.446C159.787 255.948 160.384 256.197 160.683 256.495C161.33 257.043 161.379 258.038 161.379 258.088L160.732 258.138H161.031H160.732Z" fill="white"/>
<path d="M166.007 257.789C166.007 257.789 166.007 257.192 165.609 256.645C165.261 256.197 164.913 256.097 164.614 256.097C165.062 255.6 165.659 255.848 165.958 256.147C166.605 256.694 166.654 257.69 166.654 257.739L166.007 257.789H166.306H166.007Z" fill="white"/>
<path d="M164.216 257.889C164.216 257.889 164.216 257.292 163.818 256.744C163.469 256.296 163.121 256.197 162.823 256.197C163.27 255.699 163.868 255.948 164.166 256.247C164.813 256.794 164.863 257.789 164.863 257.839L164.216 257.889H164.515H164.216Z" fill="white"/>
<path d="M167.849 257.092C167.849 257.043 167.202 255.45 165.41 255.351C165.41 255.351 165.211 255.152 165.559 254.853C167.998 254.853 168.396 256.893 168.446 256.943L167.849 257.092Z" fill="white"/>
<path d="M173.671 194.19C173.946 194.19 174.169 193.967 174.169 193.692C174.169 193.418 173.946 193.195 173.671 193.195C173.396 193.195 173.173 193.418 173.173 193.692C173.173 193.967 173.396 194.19 173.671 194.19Z" fill="#DC91BB"/>
<path d="M177.652 208.274C177.79 208.274 177.901 208.162 177.901 208.025C177.901 207.887 177.79 207.776 177.652 207.776C177.515 207.776 177.403 207.887 177.403 208.025C177.403 208.162 177.515 208.274 177.652 208.274Z" fill="#DC91BB"/>
<path d="M178.25 196.28C178.387 196.28 178.498 196.169 178.498 196.032C178.498 195.894 178.387 195.783 178.25 195.783C178.112 195.783 178.001 195.894 178.001 196.032C178.001 196.169 178.112 196.28 178.25 196.28Z" fill="#DC91BB"/>
<path d="M180.738 199.863C181.013 199.863 181.235 199.64 181.235 199.366C181.235 199.091 181.013 198.868 180.738 198.868C180.463 198.868 180.24 199.091 180.24 199.366C180.24 199.64 180.463 199.863 180.738 199.863Z" fill="#DC91BB"/>
<path d="M180.738 218.177C181.013 218.177 181.235 217.954 181.235 217.679C181.235 217.404 181.013 217.181 180.738 217.181C180.463 217.181 180.24 217.404 180.24 217.679C180.24 217.954 180.463 218.177 180.738 218.177Z" fill="#DC91BB"/>
<path d="M177.652 215.041C177.927 215.041 178.15 214.819 178.15 214.544C178.15 214.269 177.927 214.046 177.652 214.046C177.377 214.046 177.155 214.269 177.155 214.544C177.155 214.819 177.377 215.041 177.652 215.041Z" fill="#DC91BB"/>
<path d="M179.344 233.703C179.619 233.703 179.842 233.481 179.842 233.206C179.842 232.931 179.619 232.708 179.344 232.708C179.069 232.708 178.847 232.931 178.847 233.206C178.847 233.481 179.069 233.703 179.344 233.703Z" fill="#DC91BB"/>
<path d="M172.975 246.742C173.249 246.742 173.472 246.519 173.472 246.244C173.472 245.969 173.249 245.746 172.975 245.746C172.7 245.746 172.477 245.969 172.477 246.244C172.477 246.519 172.7 246.742 172.975 246.742Z" fill="#DC91BB"/>
<path d="M179.095 225.243C179.233 225.243 179.344 225.132 179.344 224.994C179.344 224.857 179.233 224.746 179.095 224.746C178.958 224.746 178.847 224.857 178.847 224.994C178.847 225.132 178.958 225.243 179.095 225.243Z" fill="#DC91BB"/>
<path d="M176.06 202.003C176.28 202.003 176.458 201.825 176.458 201.605C176.458 201.385 176.28 201.207 176.06 201.207C175.84 201.207 175.662 201.385 175.662 201.605C175.662 201.825 175.84 202.003 176.06 202.003Z" fill="#DC91BB"/>
<path d="M175.91 237.933C176.048 237.933 176.159 237.822 176.159 237.684C176.159 237.547 176.048 237.436 175.91 237.436C175.773 237.436 175.662 237.547 175.662 237.684C175.662 237.822 175.773 237.933 175.91 237.933Z" fill="#DC91BB"/>
<path d="M175.612 242.81C175.749 242.81 175.861 242.699 175.861 242.561C175.861 242.424 175.749 242.312 175.612 242.312C175.474 242.312 175.363 242.424 175.363 242.561C175.363 242.699 175.474 242.81 175.612 242.81Z" fill="#DC91BB"/>
<path d="M170.486 250.175C170.624 250.175 170.735 250.064 170.735 249.927C170.735 249.789 170.624 249.678 170.486 249.678C170.349 249.678 170.237 249.789 170.237 249.927C170.237 250.064 170.349 250.175 170.486 250.175Z" fill="#DC91BB"/>
<path d="M175.413 191.055C170.785 189.363 170.287 190.11 170.287 190.11L168.993 185.481L182.629 186.676L184.221 191.851L175.413 191.055Z" fill="#DC91BB"/>
<path d="M186.212 184.188C186.212 184.188 194.572 199.067 195.418 224.497C196.016 242.512 183.226 258.387 183.226 258.387H188.451C188.451 258.387 199.499 237.933 202.784 226.338C205.919 215.241 205.421 192.349 198.603 181.102C191.736 169.905 186.212 184.188 186.212 184.188Z" fill="#E3BFDB"/>
<path d="M195.667 182.545C195.667 182.545 205.57 193.344 203.43 213.549C200.594 239.824 186.51 258.735 186.51 258.735L189.048 259.432C189.048 259.432 208.457 228.727 205.521 204.292C202.634 179.908 198.305 178.166 198.305 178.166L195.667 182.545Z" fill="#DC91BB"/>
<path d="M189.148 191.005C189.148 191.005 197.757 191.403 198.802 189.761C199.847 188.119 198.802 187.323 198.802 187.323C198.802 187.323 200.942 186.327 200.146 184.287C198.952 181.251 187.307 186.576 187.307 186.576L189.148 191.005Z" fill="#BA6E9D"/>
<path d="M193.378 194.439C193.378 194.688 193.179 194.937 192.88 194.937C192.631 194.937 192.383 194.738 192.383 194.439C192.383 194.14 192.582 193.941 192.88 193.941C193.179 193.991 193.378 194.19 193.378 194.439Z" fill="#BA6E9D"/>
<path d="M200.146 202.202C200.283 202.202 200.395 202.091 200.395 201.953C200.395 201.816 200.283 201.705 200.146 201.705C200.009 201.705 199.897 201.816 199.897 201.953C199.897 202.091 200.009 202.202 200.146 202.202Z" fill="#BA6E9D"/>
<path d="M195.02 200.062C195.158 200.062 195.269 199.951 195.269 199.814C195.269 199.676 195.158 199.565 195.02 199.565C194.883 199.565 194.771 199.676 194.771 199.814C194.771 199.951 194.883 200.062 195.02 200.062Z" fill="#BA6E9D"/>
<path d="M195.916 207.627C196.053 207.627 196.165 207.515 196.165 207.378C196.165 207.24 196.053 207.129 195.916 207.129C195.779 207.129 195.667 207.24 195.667 207.378C195.667 207.515 195.779 207.627 195.916 207.627Z" fill="#BA6E9D"/>
<path d="M197.658 222.705C197.795 222.705 197.907 222.594 197.907 222.457C197.907 222.319 197.795 222.208 197.658 222.208C197.52 222.208 197.409 222.319 197.409 222.457C197.409 222.594 197.52 222.705 197.658 222.705Z" fill="#BA6E9D"/>
<path d="M201.987 212.255C202.262 212.255 202.485 212.032 202.485 211.757C202.485 211.482 202.262 211.26 201.987 211.26C201.712 211.26 201.49 211.482 201.49 211.757C201.49 212.032 201.712 212.255 201.987 212.255Z" fill="#BA6E9D"/>
<path d="M198.852 232.161C199.127 232.161 199.35 231.938 199.35 231.663C199.35 231.388 199.127 231.165 198.852 231.165C198.577 231.165 198.354 231.388 198.354 231.663C198.354 231.938 198.577 232.161 198.852 232.161Z" fill="#BA6E9D"/>
<path d="M195.02 240.272C195.295 240.272 195.518 240.049 195.518 239.774C195.518 239.5 195.295 239.277 195.02 239.277C194.745 239.277 194.523 239.5 194.523 239.774C194.523 240.049 194.745 240.272 195.02 240.272Z" fill="#BA6E9D"/>
<path d="M192.034 248.782C192.309 248.782 192.532 248.559 192.532 248.284C192.532 248.009 192.309 247.787 192.034 247.787C191.759 247.787 191.537 248.009 191.537 248.284C191.537 248.559 191.759 248.782 192.034 248.782Z" fill="#BA6E9D"/>
<path d="M201.539 194.19C201.814 194.19 202.037 193.967 202.037 193.692C202.037 193.418 201.814 193.195 201.539 193.195C201.264 193.195 201.042 193.418 201.042 193.692C201.042 193.967 201.264 194.19 201.539 194.19Z" fill="#BA6E9D"/>
<path d="M197.409 228.777C197.546 228.777 197.658 228.665 197.658 228.528C197.658 228.39 197.546 228.279 197.409 228.279C197.272 228.279 197.16 228.39 197.16 228.528C197.16 228.665 197.272 228.777 197.409 228.777Z" fill="#BA6E9D"/>
<path d="M196.165 234.748C196.302 234.748 196.414 234.637 196.414 234.5C196.414 234.362 196.302 234.251 196.165 234.251C196.027 234.251 195.916 234.362 195.916 234.5C195.916 234.637 196.027 234.748 196.165 234.748Z" fill="#BA6E9D"/>
<path d="M201.042 220.516C201.316 220.516 201.539 220.293 201.539 220.018C201.539 219.743 201.316 219.52 201.042 219.52C200.767 219.52 200.544 219.743 200.544 220.018C200.544 220.293 200.767 220.516 201.042 220.516Z" fill="#BA6E9D"/>
<path d="M197.16 215.489C197.435 215.489 197.658 215.267 197.658 214.992C197.658 214.717 197.435 214.494 197.16 214.494C196.885 214.494 196.662 214.717 196.662 214.992C196.662 215.267 196.885 215.489 197.16 215.489Z" fill="#BA6E9D"/>
<path d="M191.935 263.015L192.333 261.124H164.465C163.868 262.119 163.668 263.015 163.668 263.015H191.935Z" fill="#FEF6B1"/>
<path d="M169.939 260.328C169.939 260.626 169.939 260.875 169.889 261.074H192.333L194.572 251.121C194.572 251.121 191.039 251.42 189.496 252.664C187.954 253.908 187.356 256.744 187.356 256.744C187.356 256.744 186.56 256.944 187.555 253.858C188.6 250.773 187.058 251.071 187.058 251.071L183.972 256.993C183.972 256.993 173.223 257.59 168.943 258.188C169.541 258.636 169.988 259.332 169.939 260.328Z" fill="#E73B32"/>
<path d="M164.514 261.074H169.939C169.939 260.825 169.939 260.576 169.988 260.328C170.038 259.332 169.59 258.636 168.993 258.238C168.894 258.238 168.744 258.287 168.645 258.287C166.455 258.636 165.211 259.93 164.514 261.074Z" fill="#FEF6B1"/>
<path d="M181.434 258.984C181.434 258.984 181.434 258.387 181.036 257.839C180.688 257.391 180.34 257.292 180.041 257.292C180.489 256.794 181.086 257.043 181.385 257.342C182.032 257.889 182.081 258.884 182.081 258.934L181.434 258.984H181.733H181.434Z" fill="white"/>
<path d="M179.643 259.083C179.643 259.083 179.643 258.486 179.245 257.939C178.897 257.491 178.548 257.391 178.25 257.391C178.697 256.894 179.295 257.143 179.593 257.441C180.24 257.989 180.29 258.984 180.29 259.034L179.643 259.083H179.942H179.643Z" fill="white"/>
<path d="M184.968 258.735C184.968 258.735 184.968 258.138 184.57 257.59C184.221 257.142 183.873 257.043 183.574 257.043C184.022 256.545 184.619 256.794 184.918 257.093C185.565 257.64 185.615 258.635 185.615 258.685L184.968 258.735H185.266H184.968Z" fill="white"/>
<path d="M183.176 258.835C183.176 258.835 183.176 258.237 182.778 257.69C182.43 257.242 182.081 257.143 181.783 257.143C182.231 256.645 182.828 256.894 183.126 257.192C183.773 257.74 183.823 258.735 183.823 258.785L183.176 258.835H183.475H183.176Z" fill="white"/>
<path d="M186.759 258.038C186.759 257.988 186.112 256.396 184.321 256.296C184.321 256.296 184.122 256.097 184.47 255.799C186.909 255.799 187.307 257.839 187.356 257.889L186.759 258.038Z" fill="white"/>
<path d="M149.336 147.362C144.36 153.532 144.31 158.559 144.31 158.559C144.31 158.559 147.694 190.259 183.176 187.273C212.985 184.785 197.608 179.808 197.608 179.808C197.608 179.808 202.236 181.052 203.43 178.415C204.674 175.827 200.196 174.732 200.196 174.732C200.196 174.732 208.656 174.882 208.954 168.611C216.469 168.313 221.246 166.77 221.395 164.929C221.545 163.087 217.713 162.639 217.713 162.639C217.713 162.639 221.545 162.192 221.395 160.947C221.246 159.703 219.554 159.405 219.554 159.405C219.554 159.405 220.201 159.255 221.395 156.966C222.59 154.677 218.011 155.224 218.758 155.274C228.711 155.772 230.95 142.335 230.95 142.335C230.95 142.335 211.741 140.395 193.278 138.703C164.813 136.115 153.467 142.236 149.336 147.362Z" fill="#20264A"/>
<path d="M163.42 153.533C163.42 153.533 179.742 159.554 189.148 169.407C192.432 171.448 200.196 175.728 200.395 177.917C200.594 180.107 197.707 179.858 197.707 179.858C197.707 179.858 199.499 181.65 198.902 183.342C198.305 185.034 196.613 185.481 196.613 185.481L158.991 172.941C158.991 172.941 151.377 153.433 152.024 153.533C152.671 153.632 155.109 151.691 163.42 153.533Z" fill="#1F2142"/>
<path d="M144.36 161.097C144.36 161.097 151.476 187.323 175.861 188.915C196.364 190.259 197.508 188.169 197.359 186.477C197.21 184.785 189.695 184.038 189.695 184.038C189.695 184.038 196.911 185.282 197.359 182.943C197.807 180.605 195.667 181.102 189.845 178.166C195.816 179.41 196.712 180.306 197.409 178.166C198.105 176.026 193.676 175.578 190.74 173.389C187.804 171.249 173.124 160.301 157.149 154.379C140.677 148.258 144.36 161.097 144.36 161.097Z" fill="#282F55"/>
<path d="M188.103 171.05C188.103 171.05 195.667 177.469 193.676 179.062C196.513 179.709 198.553 180.505 198.802 178.415C199.101 176.325 189.645 171.1 188.103 171.05Z" fill="white"/>
<path d="M192.582 179.41C192.731 179.46 194.921 182.346 193.478 183.342C192.084 184.337 191.686 184.237 191.686 184.237C191.686 184.237 196.662 185.88 197.359 182.943C198.056 179.958 192.582 179.41 192.582 179.41Z" fill="white"/>
<path d="M187.356 189.363C187.356 189.363 193.229 189.164 194.572 187.223C195.866 185.282 194.572 184.884 194.572 184.884C194.572 184.884 197.857 185.581 197.658 186.676C197.459 187.721 198.155 189.612 187.356 189.363Z" fill="white"/>
<path d="M83 45.9415C82.8009 47.1856 86.1849 49.425 92.7041 49.6738C99.2233 49.9227 101.114 51.1668 101.114 51.1668C101.114 51.1668 104.797 49.8729 105.643 47.3349C106.489 44.7969 106.041 41.3134 102.806 39.8702C100.368 38.7754 99.8702 39.2233 99.8702 39.2233C99.8702 39.2233 97.0834 44.3988 92.2562 44.9462C87.1802 45.4936 83.2986 43.9011 83 45.9415Z" fill="#F6A13D"/>
<path d="M103.702 45.643C103.055 45.7922 102.458 45.9913 101.861 46.2899C101.264 46.5885 100.766 46.9866 100.268 47.4345C99.7706 47.8824 99.3227 48.38 98.8748 48.8777C98.4269 49.3753 97.8795 49.8232 97.2823 50.1218C97.8795 49.7734 98.3274 49.3255 98.7753 48.7781C99.2232 48.2805 99.6213 47.7331 100.069 47.2852C100.517 46.7875 101.064 46.3397 101.662 45.9913C102.259 45.643 102.906 45.3941 103.553 45.1951L103.702 45.643Z" fill="#2D2618"/>
<path d="M122.563 53.008C121.319 66.7928 119.975 80.1298 122.563 93.6657C126.196 112.626 131.073 120.539 131.073 120.539C131.073 120.539 137.791 136.712 149.386 147.362C139.582 133.378 129.082 116.458 124.155 92.3221C119.179 67.9374 125.549 41.2138 125.549 41.2138C125.748 39.6711 123.11 47.0861 122.563 53.008Z" fill="#DC91BB"/>
<path d="M109.077 72.4163C109.819 72.4163 110.42 71.8147 110.42 71.0726C110.42 70.3306 109.819 69.729 109.077 69.729C108.334 69.729 107.733 70.3306 107.733 71.0726C107.733 71.8147 108.334 72.4163 109.077 72.4163Z" fill="#D3AACF"/>
<path d="M120.771 102.623C121.541 102.623 122.165 102 122.165 101.23C122.165 100.461 121.541 99.8367 120.771 99.8367C120.002 99.8367 119.378 100.461 119.378 101.23C119.378 102 120.002 102.623 120.771 102.623Z" fill="#D3AACF"/>
<path d="M126.644 133.627C127.248 133.627 127.738 133.137 127.738 132.532C127.738 131.927 127.248 131.437 126.644 131.437C126.039 131.437 125.549 131.927 125.549 132.532C125.549 133.137 126.039 133.627 126.644 133.627Z" fill="#D3AACF"/>
<path d="M145.704 148.855C146.446 148.855 147.047 148.253 147.047 147.511C147.047 146.769 146.446 146.167 145.704 146.167C144.961 146.167 144.36 146.769 144.36 147.511C144.36 148.253 144.961 148.855 145.704 148.855Z" fill="#D3AACF"/>
<path d="M112.859 45.2448C114.645 45.2448 116.093 43.7966 116.093 42.0101C116.093 40.2236 114.645 38.7754 112.859 38.7754C111.072 38.7754 109.624 40.2236 109.624 42.0101C109.624 43.7966 111.072 45.2448 112.859 45.2448Z" fill="black"/>
<path d="M112.859 37.78V41.2636L115.247 38.7753L112.859 37.78Z" fill="white"/>
</g>
<defs>
<clipPath id="clip0">
<rect width="148" height="240.015" fill="white" transform="translate(83 23)"/>
</clipPath>
</defs>
</svg>
