<svg width="262" height="274" viewBox="0 0 262 274" fill="none" xmlns="http://www.w3.org/2000/svg">
<circle cx="131" cy="131" r="131" fill="#B7E3F0"/>
<path d="M70.2124 77.0061L70.2187 76.85H70.0625H69.1875H69.0435L69.0376 76.9939L68.9185 79.9276H66H65.85V80.0776V80.8621V81.0121H66H68.9064L68.7876 83.994L68.7814 84.15H68.9375H69.8125H69.9567L69.9624 84.006L70.0817 81.0121H73H73.15V80.8621V80.0776V79.9276H73H70.0937L70.2124 77.0061Z" fill="#7DC8DB" stroke="#7DC8DB" stroke-width="0.3"/>
<path d="M229.052 155.006L229.058 154.85H228.902H228.277H228.133L228.127 154.994L228.043 157.048H226H225.85V157.198V157.759V157.909H226H228.031L227.948 159.994L227.942 160.15H228.098H228.723H228.867L228.873 160.006L228.957 157.909H231H231.15V157.759V157.198V157.048H231H228.969L229.052 155.006Z" fill="#7DC8DB" stroke="#7DC8DB" stroke-width="0.3"/>
<circle cx="31" cy="175" r="4" stroke="#7DC8DB" stroke-width="2"/>
<circle cx="139" cy="234" r="2.5" stroke="#7DC8DB"/>
<path d="M243 66.3027C243 66.3027 176.598 96.4491 144 4" stroke="#7DC8DB" stroke-dasharray="4 4"/>
<path d="M207.734 61.3286C207.12 61.3286 206.507 61.387 205.893 61.5038C205.433 59.3424 203.96 57.473 201.874 56.4799C199.787 55.4868 197.363 55.4284 195.246 56.3631C193.344 51.3391 187.514 48.7687 182.268 50.5797C177.021 52.3906 174.291 57.9403 176.193 62.9351C171.591 63.0811 167.939 66.703 168.001 71.0844C168.062 75.4657 171.836 79 176.438 79H207.703C212.827 79 217 75.0276 217 70.1497C217.031 65.301 212.858 61.3286 207.734 61.3286Z" fill="white"/>
<path d="M104.003 182.594C103.54 182.594 103.076 182.638 102.613 182.727C102.266 181.087 101.153 179.669 99.578 178.916C98.0026 178.162 96.1724 178.118 94.5738 178.827C93.1373 175.016 88.7354 173.066 84.7737 174.44C80.812 175.814 78.75 180.024 80.1864 183.813C76.7112 183.924 73.9542 186.671 74.0006 189.995C74.0469 193.319 76.8966 196 80.3718 196H103.98C107.849 196 111 192.986 111 189.286C111.023 185.608 107.872 182.594 104.003 182.594Z" fill="white" fill-opacity="0.8"/>
<path d="M16.2404 98.0315C16.6537 98.0315 17.067 98.0678 17.4802 98.1403C17.7902 96.7987 18.782 95.6384 20.1871 95.022C21.5923 94.4056 23.2247 94.3693 24.6504 94.9495C25.9316 91.8312 29.8576 90.2358 33.391 91.3598C36.9245 92.4838 38.7635 95.9285 37.4824 99.0287C40.5819 99.1193 43.0408 101.367 42.9995 104.087C42.9582 106.806 40.4166 109 37.3171 109H16.2611C12.8103 109 10.0001 106.534 10.0001 103.507C9.97945 100.497 12.7897 98.0315 16.2404 98.0315Z" fill="white"/>
<path d="M102.144 42.2299C102.097 42.2299 102.097 42.2299 102.051 42.2299C101.723 42.1832 101.488 41.8561 101.535 41.529C101.535 41.3888 101.957 38.6317 104.58 37.0897C104.861 36.9027 105.236 36.9962 105.424 37.3233C105.611 37.6037 105.517 37.9775 105.189 38.1644C103.081 39.3794 102.753 41.6692 102.753 41.7159C102.706 41.9963 102.425 42.2299 102.144 42.2299Z" fill="black"/>
<path d="M104.861 42.5571C104.767 42.5571 104.721 42.5571 104.627 42.5104C104.299 42.3702 104.158 42.0431 104.252 41.716C104.299 41.6225 105.142 39.473 106.735 38.258C108.187 37.1365 108.75 36.7159 108.75 36.7159C109.031 36.529 109.405 36.5757 109.64 36.8094C109.827 37.0898 109.78 37.4636 109.546 37.6972C109.546 37.6972 108.984 38.1178 107.531 39.2393C106.22 40.2207 105.47 42.1366 105.47 42.1366C105.33 42.4169 105.095 42.5571 104.861 42.5571Z" fill="black"/>
<path d="M107.391 43.3515C107.298 43.3515 107.157 43.3048 107.063 43.258C106.782 43.0711 106.689 42.6973 106.829 42.4169C106.876 42.3702 107.766 40.8748 108.797 40.2206L109.734 39.6131C110.062 39.4262 110.437 39.5197 110.624 39.8C110.811 40.0804 110.718 40.4543 110.437 40.6412L109.5 41.2487C108.844 41.6692 108.141 42.6973 107.954 43.0244C107.813 43.2113 107.626 43.3515 107.391 43.3515Z" fill="black"/>
<path d="M154.615 191.578C154.615 191.578 160.377 219.476 180.475 223.027C193.311 225.317 204.086 214.85 207.413 209.429C209.287 206.392 206.148 207.279 206.148 207.279C206.148 207.279 189.704 217.093 180.381 213.822C171.058 210.551 168.81 200.41 166.889 192.7C164.968 185.083 154.615 191.578 154.615 191.578Z" fill="#D3AACF"/>
<path d="M106.876 42.9311C102.519 40.7815 95.6795 42.3703 93.1028 45.4545C90.5262 48.5386 87.6685 53.0714 87.6685 53.0714L89.4955 62.8379C89.4955 62.8379 90.0577 63.352 90.1514 64.8006C90.1514 64.8006 90.1046 104.848 106.127 131.671C122.149 158.494 133.345 164.195 133.345 164.195L139.529 175.69L145.62 161.438L135.032 153.494C135.032 153.494 124.304 142.793 115.356 116.811C105.705 88.5393 110.156 69.9409 112.498 54.5668C112.966 51.3424 113.341 46.1087 106.876 42.9311Z" fill="#E3BFDC"/>
<path d="M105.517 48.3982C105.283 48.3982 105.049 48.2113 105.049 47.9776C105.049 47.744 105.236 47.5103 105.47 47.4636C105.611 47.4636 106.314 47.3234 106.407 46.4355C106.407 46.1552 106.642 45.9682 106.923 46.015C107.204 46.015 107.391 46.2486 107.344 46.529C107.251 47.8842 106.126 48.3515 105.517 48.3982C105.564 48.3982 105.517 48.3982 105.517 48.3982Z" fill="black"/>
<path d="M106.689 49.4263C106.642 49.4263 106.595 49.4263 106.548 49.4263C106.267 49.4263 106.08 49.1927 106.127 48.9123C106.127 48.6787 106.361 48.445 106.642 48.4918C106.736 48.4918 107.064 48.4918 107.298 48.3048C107.392 48.2114 107.485 48.0712 107.485 47.8843C107.485 47.6039 107.72 47.417 108.001 47.4637C108.282 47.4637 108.469 47.6973 108.422 47.9777C108.376 48.445 108.235 48.8189 107.907 49.0525C107.439 49.3796 106.923 49.4263 106.689 49.4263Z" fill="black"/>
<path opacity="0.5" d="M101.957 67.3706C104.959 67.3706 107.392 64.9437 107.392 61.9499C107.392 58.9562 104.959 56.5293 101.957 56.5293C98.956 56.5293 96.5229 58.9562 96.5229 61.9499C96.5229 64.9437 98.956 67.3706 101.957 67.3706Z" fill="#E56B63"/>
<path d="M101.957 57.651C105.036 57.651 107.532 55.1613 107.532 52.0901C107.532 49.019 105.036 46.5293 101.957 46.5293C98.8783 46.5293 96.3823 49.019 96.3823 52.0901C96.3823 55.1613 98.8783 57.651 101.957 57.651Z" fill="white"/>
<path d="M101.957 57.651C105.036 57.651 107.532 55.1613 107.532 52.0901C107.532 49.019 105.036 46.5293 101.957 46.5293C98.8783 46.5293 96.3823 49.019 96.3823 52.0901C96.3823 55.1613 98.8783 57.651 101.957 57.651Z" fill="white"/>
<path d="M166.889 194.335L169.091 200.69C169.091 200.69 160.799 195.036 159.346 195.176C157.847 195.317 154.615 193.354 154.615 193.354L157.941 190.877L166.889 192.746L167.264 194.382L166.889 194.335Z" fill="#DC91BB"/>
<path d="M201.182 209.896C201.182 209.896 191.578 219.896 178.695 214.336C165.811 208.775 165.53 194.475 165.53 194.475L166.936 192.793C166.936 192.793 170.309 210.457 179.678 213.167C189.048 215.878 195.701 212.233 195.701 212.233L201.229 208.915L201.182 209.896Z" fill="#DC91BB"/>
<path d="M166.327 214.149C166.456 214.149 166.561 214.044 166.561 213.915C166.561 213.786 166.456 213.681 166.327 213.681C166.197 213.681 166.092 213.786 166.092 213.915C166.092 214.044 166.197 214.149 166.327 214.149Z" fill="#DC91BB"/>
<path d="M166.092 208.448C166.222 208.448 166.326 208.343 166.326 208.214C166.326 208.085 166.222 207.98 166.092 207.98C165.963 207.98 165.858 208.085 165.858 208.214C165.858 208.343 165.963 208.448 166.092 208.448Z" fill="#DC91BB"/>
<path d="M159.533 194.429C155.176 192.84 154.708 193.541 154.708 193.541L153.49 189.195L166.326 190.317L167.825 195.176L159.533 194.429Z" fill="#DC91BB"/>
<path d="M169.7 187.98C169.7 187.98 177.57 201.952 178.366 225.831C178.929 242.747 166.889 257.654 166.889 257.654H171.808C171.808 257.654 182.208 238.448 185.3 227.56C188.251 217.139 187.783 195.644 181.365 185.083C174.9 174.569 169.7 187.98 169.7 187.98Z" fill="#E3BFDB"/>
<path d="M178.6 186.438C178.6 186.438 187.923 196.578 185.908 215.551C183.238 240.224 169.98 257.981 169.98 257.981L172.369 258.635C172.369 258.635 190.64 229.803 187.876 206.859C185.112 183.914 181.083 182.326 181.083 182.326L178.6 186.438Z" fill="#DC91BB"/>
<path d="M172.51 194.382C172.51 194.382 180.614 194.756 181.598 193.214C182.582 191.672 181.598 190.924 181.598 190.924C181.598 190.924 183.613 189.989 182.863 188.073C181.739 185.223 170.776 190.223 170.776 190.223L172.51 194.382Z" fill="#BA6E9D"/>
<path d="M176.445 197.606C176.445 197.84 176.258 198.073 175.977 198.073C175.696 198.073 175.508 197.887 175.508 197.606C175.508 197.326 175.696 197.139 175.977 197.139C176.258 197.139 176.445 197.373 176.445 197.606Z" fill="#BA6E9D"/>
<path d="M182.817 204.896C182.947 204.896 183.051 204.791 183.051 204.662C183.051 204.533 182.947 204.429 182.817 204.429C182.688 204.429 182.583 204.533 182.583 204.662C182.583 204.791 182.688 204.896 182.817 204.896Z" fill="#BA6E9D"/>
<path d="M177.991 202.887C178.12 202.887 178.225 202.782 178.225 202.653C178.225 202.524 178.12 202.419 177.991 202.419C177.862 202.419 177.757 202.524 177.757 202.653C177.757 202.782 177.862 202.887 177.991 202.887Z" fill="#BA6E9D"/>
<path d="M178.835 209.99C178.964 209.99 179.069 209.885 179.069 209.756C179.069 209.627 178.964 209.522 178.835 209.522C178.705 209.522 178.601 209.627 178.601 209.756C178.601 209.885 178.705 209.99 178.835 209.99Z" fill="#BA6E9D"/>
<path d="M180.474 224.149C180.604 224.149 180.709 224.044 180.709 223.915C180.709 223.786 180.604 223.681 180.474 223.681C180.345 223.681 180.24 223.786 180.24 223.915C180.24 224.044 180.345 224.149 180.474 224.149Z" fill="#BA6E9D"/>
<path d="M184.597 214.335C184.856 214.335 185.065 214.126 185.065 213.868C185.065 213.61 184.856 213.401 184.597 213.401C184.338 213.401 184.128 213.61 184.128 213.868C184.128 214.126 184.338 214.335 184.597 214.335Z" fill="#BA6E9D"/>
<path d="M181.599 233.027C181.858 233.027 182.067 232.818 182.067 232.56C182.067 232.302 181.858 232.093 181.599 232.093C181.34 232.093 181.13 232.302 181.13 232.56C181.13 232.818 181.34 233.027 181.599 233.027Z" fill="#BA6E9D"/>
<path d="M177.991 240.644C178.25 240.644 178.46 240.435 178.46 240.177C178.46 239.919 178.25 239.71 177.991 239.71C177.733 239.71 177.523 239.919 177.523 240.177C177.523 240.435 177.733 240.644 177.991 240.644Z" fill="#BA6E9D"/>
<path d="M175.18 248.635C175.439 248.635 175.648 248.426 175.648 248.168C175.648 247.91 175.439 247.7 175.18 247.7C174.921 247.7 174.711 247.91 174.711 248.168C174.711 248.426 174.921 248.635 175.18 248.635Z" fill="#BA6E9D"/>
<path d="M184.128 197.373C184.387 197.373 184.597 197.163 184.597 196.905C184.597 196.647 184.387 196.438 184.128 196.438C183.869 196.438 183.66 196.647 183.66 196.905C183.66 197.163 183.869 197.373 184.128 197.373Z" fill="#BA6E9D"/>
<path d="M180.24 229.85C180.369 229.85 180.474 229.745 180.474 229.616C180.474 229.487 180.369 229.383 180.24 229.383C180.111 229.383 180.006 229.487 180.006 229.616C180.006 229.745 180.111 229.85 180.24 229.85Z" fill="#BA6E9D"/>
<path d="M179.069 235.458C179.198 235.458 179.303 235.353 179.303 235.224C179.303 235.095 179.198 234.99 179.069 234.99C178.939 234.99 178.834 235.095 178.834 235.224C178.834 235.353 178.939 235.458 179.069 235.458Z" fill="#BA6E9D"/>
<path d="M183.66 222.093C183.919 222.093 184.128 221.884 184.128 221.626C184.128 221.367 183.919 221.158 183.66 221.158C183.401 221.158 183.191 221.367 183.191 221.626C183.191 221.884 183.401 222.093 183.66 222.093Z" fill="#BA6E9D"/>
<path d="M180.053 217.373C180.312 217.373 180.521 217.164 180.521 216.906C180.521 216.647 180.312 216.438 180.053 216.438C179.794 216.438 179.584 216.647 179.584 216.906C179.584 217.164 179.794 217.373 180.053 217.373Z" fill="#BA6E9D"/>
<path d="M175.087 262L175.462 260.224H149.227C148.664 261.159 148.477 262 148.477 262H175.087Z" fill="#FEF6B1"/>
<path d="M154.38 259.476C154.38 259.757 154.38 259.99 154.333 260.177H175.462L177.57 250.831C177.57 250.831 174.243 251.112 172.791 252.28C171.339 253.448 170.777 256.112 170.777 256.112C170.777 256.112 170.027 256.299 170.964 253.402C171.948 250.504 170.496 250.785 170.496 250.785L167.591 256.346C167.591 256.346 157.472 256.906 153.443 257.467C154.005 257.888 154.427 258.542 154.38 259.476Z" fill="#E73B32"/>
<path d="M149.273 260.177H154.38C154.38 259.944 154.38 259.71 154.427 259.476C154.474 258.542 154.052 257.888 153.49 257.514C153.396 257.514 153.256 257.56 153.162 257.56C151.101 257.887 149.929 259.102 149.273 260.177Z" fill="#FEF6B1"/>
<path d="M165.202 258.215C165.202 258.215 165.202 257.654 164.827 257.14C164.499 256.719 164.171 256.626 163.89 256.626C164.312 256.159 164.874 256.392 165.155 256.673C165.764 257.187 165.811 258.121 165.811 258.168L165.202 258.215H165.483H165.202Z" fill="white"/>
<path d="M163.562 258.308C163.562 258.308 163.562 257.747 163.187 257.233C162.86 256.813 162.532 256.719 162.25 256.719C162.672 256.252 163.234 256.486 163.515 256.766C164.124 257.28 164.171 258.215 164.171 258.261L163.562 258.308H163.843H163.562Z" fill="white"/>
<path d="M168.528 257.981C168.528 257.981 168.528 257.42 168.153 256.906C167.825 256.486 167.497 256.392 167.216 256.392C167.638 255.925 168.2 256.158 168.481 256.439C169.09 256.953 169.137 257.887 169.137 257.934L168.528 257.981H168.809H168.528Z" fill="white"/>
<path d="M166.842 258.074C166.842 258.074 166.842 257.514 166.467 257C166.139 256.579 165.811 256.486 165.53 256.486C165.951 256.018 166.514 256.252 166.795 256.532C167.404 257.046 167.451 257.981 167.451 258.028L166.842 258.074H167.123H166.842Z" fill="white"/>
<path d="M170.215 257.327C170.215 257.28 169.606 255.785 167.919 255.691C167.919 255.691 167.732 255.504 168.06 255.224C170.355 255.224 170.73 257.14 170.777 257.187L170.215 257.327Z" fill="white"/>
<path d="M206.054 202.887L204.695 204.102L225.777 219.616C226.808 219.195 227.464 218.635 227.464 218.635L206.054 202.887Z" fill="#FEF6B1"/>
<path d="M221.232 217.139C221.42 216.952 221.56 216.765 221.701 216.578L204.695 204.055L197.434 210.363C197.434 210.363 200.291 212.092 202.165 212.046C204.039 211.999 206.101 210.13 206.101 210.13C206.101 210.13 206.85 210.41 204.367 212.186C201.884 213.962 203.196 214.569 203.196 214.569L208.818 211.812C208.818 211.812 217.297 217.373 220.858 219.289C220.623 218.635 220.67 217.887 221.232 217.139Z" fill="#E73B32"/>
<path d="M225.776 219.569L221.701 216.578C221.56 216.765 221.42 216.952 221.232 217.139C220.623 217.887 220.623 218.634 220.811 219.289C220.904 219.335 220.998 219.382 221.092 219.429C222.919 220.363 224.605 220.083 225.776 219.569Z" fill="#FEF6B1"/>
<path d="M211.769 211.765C211.769 211.765 211.441 212.233 211.441 212.84C211.441 213.354 211.676 213.635 211.91 213.821C211.301 213.915 211.02 213.401 210.926 213.027C210.739 212.233 211.254 211.485 211.301 211.438L211.769 211.765L211.535 211.625L211.769 211.765Z" fill="white"/>
<path d="M213.175 212.653C213.175 212.653 212.847 213.121 212.847 213.728C212.847 214.242 213.081 214.522 213.316 214.709C212.707 214.803 212.426 214.289 212.332 213.915C212.144 213.121 212.66 212.373 212.707 212.326L213.175 212.653L212.941 212.513L213.175 212.653Z" fill="white"/>
<path d="M208.958 209.99C208.958 209.99 208.63 210.457 208.63 211.064C208.63 211.579 208.865 211.859 209.099 212.046C208.49 212.139 208.209 211.625 208.115 211.251C207.928 210.457 208.443 209.709 208.49 209.663L208.958 209.99L208.724 209.85L208.958 209.99Z" fill="white"/>
<path d="M210.41 210.877C210.41 210.877 210.082 211.345 210.082 211.952C210.082 212.466 210.316 212.747 210.551 212.934C209.942 213.027 209.66 212.513 209.567 212.139C209.379 211.345 209.895 210.597 209.942 210.55L210.41 210.877L210.176 210.737L210.41 210.877Z" fill="white"/>
<path d="M207.226 209.476C207.226 209.522 206.804 211.064 208.116 212.139C208.116 212.139 208.163 212.42 207.694 212.42C205.867 211.064 206.663 209.289 206.663 209.242L207.226 209.476Z" fill="white"/>
<path d="M135.032 153.4C130.347 159.194 130.3 163.914 130.3 163.914C130.3 163.914 133.486 193.681 166.889 190.877C194.951 188.541 180.475 183.868 180.475 183.868C180.475 183.868 184.832 185.036 185.956 182.559C187.127 180.129 182.911 179.101 182.911 179.101C182.911 179.101 190.875 179.242 191.156 173.354C198.23 173.073 202.728 171.625 202.868 169.896C203.009 168.167 199.401 167.746 199.401 167.746C199.401 167.746 203.009 167.325 202.868 166.157C202.728 164.989 201.135 164.709 201.135 164.709C201.135 164.709 201.744 164.568 202.868 162.419C203.992 160.269 199.682 160.783 200.385 160.83C209.755 161.297 211.863 148.68 211.863 148.68C211.863 148.68 193.78 146.858 176.399 145.269C149.555 142.839 138.92 148.587 135.032 153.4Z" fill="#20264A"/>
<path d="M148.243 159.194C148.243 159.194 163.609 164.849 172.463 174.101C175.555 176.017 182.863 180.036 183.051 182.092C183.238 184.148 180.521 183.914 180.521 183.914C180.521 183.914 182.207 185.597 181.645 187.186C181.083 188.774 179.49 189.195 179.49 189.195L144.073 177.419C144.073 177.419 136.905 159.101 137.514 159.194C138.123 159.288 140.466 157.465 148.243 159.194Z" fill="#1F2142"/>
<path d="M135.312 190.317L155.926 160.27L178.881 172.98L161.173 203.868L135.312 190.317Z" fill="#F2A909"/>
<path d="M151.803 164.382L155.363 158.914H157.706L159.486 166.204L153.255 169.662L151.803 164.382Z" fill="#F2A909"/>
<path d="M136.437 189.99L160.938 202.934L178.272 174.429L156.675 160.27L136.437 189.99Z" fill="#E0DAC1"/>
<path d="M136.952 189.99L161.407 202.934L178.788 174.429L157.144 160.27L136.952 189.99Z" fill="#FCF3C8"/>
<path d="M137.233 191.018L157.706 158.914L180.287 172.793L161.173 203.868L137.233 191.018Z" fill="#F4D303"/>
<path d="M130.3 166.297C130.3 166.297 136.999 190.924 159.955 192.419C179.256 193.681 180.334 191.718 180.193 190.13C180.053 188.541 172.978 187.84 172.978 187.84C172.978 187.84 179.771 189.008 180.193 186.812C180.615 184.615 178.6 185.083 173.119 182.326C178.741 183.494 179.584 184.335 180.24 182.326C180.896 180.316 176.726 179.896 173.962 177.84C171.198 175.784 157.378 165.596 142.34 159.989C126.88 154.241 130.3 166.297 130.3 166.297Z" fill="#282F55"/>
<path d="M171.526 175.643C171.526 175.643 178.647 181.671 176.773 183.167C179.444 183.774 181.364 184.522 181.599 182.559C181.833 180.597 172.932 175.69 171.526 175.643Z" fill="white"/>
<path d="M175.696 183.494C175.836 183.541 177.898 186.251 176.539 187.186C175.227 188.12 174.853 188.027 174.853 188.027C174.853 188.027 179.537 189.569 180.193 186.812C180.849 184.008 175.696 183.494 175.696 183.494Z" fill="white"/>
<path d="M170.777 192.84C170.777 192.84 176.305 192.653 177.57 190.83C178.835 189.008 177.57 188.634 177.57 188.634C177.57 188.634 180.662 189.288 180.475 190.316C180.288 191.298 180.943 193.073 170.777 192.84Z" fill="white"/>
<path d="M72.5361 58.1649C72.3487 59.3332 75.5344 61.436 81.6715 61.6697C87.8086 61.9033 89.5889 63.0715 89.5889 63.0715C89.5889 63.0715 93.0556 61.8566 93.8521 59.4734C94.6485 57.0901 94.2268 53.8191 91.1817 52.4639C88.8861 51.4358 88.4177 51.8564 88.4177 51.8564C88.4177 51.8564 85.7942 56.7163 81.2499 57.2303C76.4714 57.7444 72.8641 56.249 72.5361 58.1649Z" fill="#F6A13D"/>
<path d="M90.5732 57.8846C90.4795 58.0715 90.3858 58.165 90.2921 58.2584C90.1984 58.3519 90.1047 58.4921 90.011 58.5855C89.8236 58.7724 89.5894 58.9594 89.3551 59.0996C88.8867 59.3799 88.4182 59.6136 87.9497 59.8005C86.9659 60.1743 85.9352 60.3145 84.9514 60.408C82.9369 60.5949 80.9225 60.3613 78.9548 60.0809C77.8305 60.0341 76.7061 59.8472 75.6286 59.5668C74.5511 59.2865 73.5205 58.8659 72.5835 58.2117C73.5205 58.8192 74.598 59.193 75.6755 59.4267C76.753 59.6603 77.8773 59.8005 78.9548 59.8005C80.9225 60.0341 82.9369 60.0809 84.8577 59.8472C85.8415 59.707 86.7785 59.4734 87.6686 59.0996C88.0902 58.9126 88.5119 58.679 88.8867 58.3986C89.0741 58.2584 89.2614 58.1182 89.402 57.978C89.4957 57.8846 89.5425 57.8379 89.5894 57.7444C89.6362 57.6509 89.7299 57.5575 89.7299 57.5107L90.5732 57.8846Z" fill="#2D2618"/>
<path d="M109.781 64.8003C108.61 77.7445 107.345 90.268 109.781 102.979C113.201 120.783 117.792 128.213 117.792 128.213C117.792 128.213 124.117 143.4 135.032 153.4C125.803 140.269 115.918 124.381 111.28 101.717C106.596 78.8193 112.592 53.7254 112.592 53.7254C112.78 52.2768 110.297 59.2395 109.781 64.8003Z" fill="#DC91BB"/>
<path d="M97.1316 83.0249C97.8302 83.0249 98.3965 82.46 98.3965 81.7632C98.3965 81.0663 97.8302 80.5015 97.1316 80.5015C96.433 80.5015 95.8667 81.0663 95.8667 81.7632C95.8667 82.46 96.433 83.0249 97.1316 83.0249Z" fill="#D3AACF"/>
<path d="M108.142 111.39C108.866 111.39 109.454 110.804 109.454 110.082C109.454 109.359 108.866 108.773 108.142 108.773C107.417 108.773 106.83 109.359 106.83 110.082C106.83 110.804 107.417 111.39 108.142 111.39Z" fill="#D3AACF"/>
<path d="M113.622 140.503C114.192 140.503 114.653 140.042 114.653 139.475C114.653 138.907 114.192 138.447 113.622 138.447C113.053 138.447 112.592 138.907 112.592 139.475C112.592 140.042 113.053 140.503 113.622 140.503Z" fill="#D3AACF"/>
<path d="M131.565 154.802C132.264 154.802 132.83 154.237 132.83 153.54C132.83 152.843 132.264 152.279 131.565 152.279C130.867 152.279 130.3 152.843 130.3 153.54C130.3 154.237 130.867 154.802 131.565 154.802Z" fill="#D3AACF"/>
<path d="M101.957 54.8471C103.639 54.8471 105.002 53.4872 105.002 51.8096C105.002 50.1321 103.639 48.7722 101.957 48.7722C100.275 48.7722 98.9121 50.1321 98.9121 51.8096C98.9121 53.4872 100.275 54.8471 101.957 54.8471Z" fill="black"/>
<path d="M101.958 47.8843V51.1554L104.253 48.7721L101.958 47.8843Z" fill="white"/>
<path d="M101.114 59.8938C105.59 59.8938 109.219 56.2744 109.219 51.8096C109.219 47.3448 105.59 43.7253 101.114 43.7253C96.6379 43.7253 93.0093 47.3448 93.0093 51.8096C93.0093 56.2744 96.6379 59.8938 101.114 59.8938Z" fill="black"/>
<path d="M108.469 52.6975L113.529 54.0059C114.232 54.4732 114.653 55.1742 114.419 56.062" stroke="black" stroke-width="2" stroke-miterlimit="10" stroke-linecap="round"/>
<path d="M95.8673 49.5197L90.1519 47.4636" stroke="black" stroke-width="2" stroke-miterlimit="10" stroke-linecap="round"/>
<path d="M101.957 46.0149C101.957 46.0149 97.6001 45.4074 95.8198 50.314" stroke="white" stroke-miterlimit="10" stroke-linecap="round"/>
<path d="M156.488 265.691L151.522 270.224L151.335 265.691H156.488Z" fill="#595F61"/>
<path d="M150.586 273.121C152.656 273.121 154.334 271.448 154.334 269.383C154.334 267.318 152.656 265.645 150.586 265.645C148.516 265.645 146.838 267.318 146.838 269.383C146.838 271.448 148.516 273.121 150.586 273.121Z" fill="#165A68"/>
<path d="M150.585 271.953C152.008 271.953 153.162 270.803 153.162 269.383C153.162 267.964 152.008 266.813 150.585 266.813C149.162 266.813 148.009 267.964 148.009 269.383C148.009 270.803 149.162 271.953 150.585 271.953Z" fill="#0E4759"/>
<path d="M151.007 268.589H149.977L149.508 269.43L149.977 270.318H151.007L151.523 269.43L151.007 268.589Z" fill="#A5B4B8"/>
<path d="M174.15 265.738L179.116 270.224L179.303 265.738H174.15Z" fill="#595F61"/>
<path d="M180.053 273.168C182.122 273.168 183.8 271.494 183.8 269.43C183.8 267.365 182.122 265.691 180.053 265.691C177.983 265.691 176.305 267.365 176.305 269.43C176.305 271.494 177.983 273.168 180.053 273.168Z" fill="#165A68"/>
<path d="M180.053 272C181.476 272 182.629 270.849 182.629 269.43C182.629 268.011 181.476 266.86 180.053 266.86C178.63 266.86 177.476 268.011 177.476 269.43C177.476 270.849 178.63 272 180.053 272Z" fill="#0E4759"/>
<path d="M179.631 268.589H180.615L181.13 269.477L180.615 270.365H179.631L179.116 269.477L179.631 268.589Z" fill="#A5B4B8"/>
<path d="M142.715 262.701H186.752L190.5 260.785H193.076L186.986 265.645H142.715C142.715 265.645 140.747 265.505 140.747 264.43C140.747 263.355 142.715 262.701 142.715 262.701Z" fill="#177DA1"/>
</svg>
