<svg width="262" height="273" viewBox="0 0 262 273" fill="none" xmlns="http://www.w3.org/2000/svg">
<circle cx="131" cy="131" r="131" fill="#B7E3F0"/>
<path d="M70.2124 77.0061L70.2187 76.85H70.0625H69.1875H69.0435L69.0376 76.9939L68.9185 79.9276H66H65.85V80.0776V80.8621V81.0121H66H68.9064L68.7876 83.994L68.7814 84.15H68.9375H69.8125H69.9567L69.9624 84.006L70.0817 81.0121H73H73.15V80.8621V80.0776V79.9276H73H70.0937L70.2124 77.0061Z" fill="#7DC8DB" stroke="#7DC8DB" stroke-width="0.3"/>
<path d="M229.052 155.006L229.058 154.85H228.902H228.277H228.133L228.127 154.994L228.043 157.048H226H225.85V157.198V157.759V157.909H226H228.031L227.948 159.994L227.942 160.15H228.098H228.723H228.867L228.873 160.006L228.957 157.909H231H231.15V157.759V157.198V157.048H231H228.969L229.052 155.006Z" fill="#7DC8DB" stroke="#7DC8DB" stroke-width="0.3"/>
<circle cx="31" cy="175" r="4" stroke="#7DC8DB" stroke-width="2"/>
<circle cx="139" cy="234" r="2.5" stroke="#7DC8DB"/>
<path d="M243 66.3027C243 66.3027 176.598 96.4491 144 4" stroke="#7DC8DB" stroke-dasharray="4 4"/>
<path d="M207.734 61.3286C207.12 61.3286 206.507 61.387 205.893 61.5038C205.433 59.3424 203.96 57.473 201.874 56.4799C199.787 55.4868 197.363 55.4284 195.246 56.3631C193.344 51.3391 187.514 48.7687 182.268 50.5797C177.021 52.3906 174.291 57.9403 176.193 62.9351C171.591 63.0811 167.939 66.703 168.001 71.0844C168.062 75.4657 171.836 79 176.438 79H207.703C212.827 79 217 75.0276 217 70.1497C217.031 65.301 212.858 61.3286 207.734 61.3286Z" fill="white"/>
<path d="M94.0031 192.594C93.5398 192.594 93.0764 192.638 92.6131 192.727C92.2655 191.087 91.1535 189.669 89.578 188.916C88.0026 188.162 86.1724 188.118 84.5738 188.827C83.1373 185.016 78.7354 183.066 74.7737 184.44C70.812 185.814 68.75 190.024 70.1864 193.813C66.7112 193.924 63.9542 196.671 64.0006 199.995C64.0469 203.319 66.8966 206 70.3718 206H93.98C97.849 206 101 202.986 101 199.286C101.023 195.608 97.8722 192.594 94.0031 192.594Z" fill="white" fill-opacity="0.8"/>
<path d="M16.2404 98.0315C16.6537 98.0315 17.067 98.0678 17.4802 98.1403C17.7902 96.7987 18.782 95.6384 20.1871 95.022C21.5923 94.4056 23.2247 94.3693 24.6504 94.9495C25.9316 91.8312 29.8576 90.2358 33.391 91.3598C36.9245 92.4838 38.7635 95.9285 37.4824 99.0287C40.5819 99.1193 43.0408 101.367 42.9995 104.087C42.9582 106.806 40.4166 109 37.3171 109H16.2611C12.8103 109 10.0001 106.534 10.0001 103.507C9.97945 100.497 12.7897 98.0315 16.2404 98.0315Z" fill="white"/>
<g clip-path="url(#clip0)">
<path d="M139.661 167.492C139.661 167.492 125.719 173.118 113.734 161.622C101.748 150.125 108.744 144.989 105.026 143.766C101.308 142.543 102.727 151.349 102.727 151.349C102.727 151.349 102.727 142.054 100.77 140.831C98.813 139.608 94.6547 143.277 94.6547 143.277C94.6547 143.277 96.8561 139.118 94.6547 139.118C92.4533 139.118 80.957 165.193 104.683 181.288C128.41 197.383 146.461 180.114 146.461 180.114L139.661 167.492Z" fill="#3B4C9A"/>
<path d="M107.031 149.147L91.4746 138.042" stroke="#3C3C3B" stroke-width="6" stroke-miterlimit="10" stroke-linecap="round"/>
<path d="M99.2529 148.56C99.2529 148.56 98.0299 141.075 90.2027 137.308C87.0717 135.841 91.5235 149.147 94.2141 151.348C95.0947 152.082 99.2529 148.56 99.2529 148.56Z" fill="#282F55"/>
<path d="M146.461 180.114C146.461 180.114 134.622 186.767 125.866 185.691C117.402 184.663 102.433 180.212 99.204 148.56C94.6055 143.277 95.6817 144.353 95.6817 144.353L91.1321 145.918C91.1321 145.918 86.6804 160.839 97.1004 174.635C106.982 187.745 123.909 190.583 127.969 190.632C138.438 190.632 142.205 185.544 146.461 180.114Z" fill="#282F55"/>
<path d="M179.923 194.937C179.923 194.937 188.141 209.564 188.973 234.562C189.56 252.271 176.987 267.877 176.987 267.877H182.124C182.124 267.877 192.984 247.771 196.213 236.372C199.295 225.463 198.806 202.96 192.104 191.904C185.353 180.848 179.923 194.937 179.923 194.937Z" fill="#D3AACF"/>
<path d="M189.218 193.322C189.218 193.322 198.953 203.938 196.849 223.8C194.061 249.63 180.216 268.219 180.216 268.219L182.711 268.904C182.711 268.904 201.79 238.72 198.904 214.701C196.067 190.73 191.81 189.017 191.81 189.017L189.218 193.322Z" fill="#DC91BB"/>
<path d="M187.359 206.775C187.359 207.02 187.163 207.265 186.87 207.265C186.576 207.265 186.38 207.069 186.38 206.775C186.38 206.482 186.576 206.286 186.87 206.286C187.163 206.286 187.359 206.531 187.359 206.775Z" fill="#BA6E9D"/>
<path d="M194.012 214.456C194.147 214.456 194.256 214.346 194.256 214.211C194.256 214.076 194.147 213.967 194.012 213.967C193.877 213.967 193.767 214.076 193.767 214.211C193.767 214.346 193.877 214.456 194.012 214.456Z" fill="#BA6E9D"/>
<path d="M188.973 212.303C189.108 212.303 189.218 212.194 189.218 212.059C189.218 211.923 189.108 211.814 188.973 211.814C188.838 211.814 188.729 211.923 188.729 212.059C188.729 212.194 188.838 212.303 188.973 212.303Z" fill="#BA6E9D"/>
<path d="M189.853 219.739C189.989 219.739 190.098 219.63 190.098 219.495C190.098 219.36 189.989 219.25 189.853 219.25C189.718 219.25 189.609 219.36 189.609 219.495C189.609 219.63 189.718 219.739 189.853 219.739Z" fill="#BA6E9D"/>
<path d="M191.566 234.611C191.701 234.611 191.81 234.502 191.81 234.366C191.81 234.231 191.701 234.122 191.566 234.122C191.431 234.122 191.321 234.231 191.321 234.366C191.321 234.502 191.431 234.611 191.566 234.611Z" fill="#BA6E9D"/>
<path d="M195.871 224.338C196.141 224.338 196.36 224.119 196.36 223.849C196.36 223.578 196.141 223.359 195.871 223.359C195.601 223.359 195.382 223.578 195.382 223.849C195.382 224.119 195.601 224.338 195.871 224.338Z" fill="#BA6E9D"/>
<path d="M192.74 243.857C193.01 243.857 193.229 243.638 193.229 243.368C193.229 243.097 193.01 242.878 192.74 242.878C192.47 242.878 192.25 243.097 192.25 243.368C192.25 243.638 192.47 243.857 192.74 243.857Z" fill="#BA6E9D"/>
<path d="M188.973 251.88C189.243 251.88 189.462 251.661 189.462 251.391C189.462 251.121 189.243 250.902 188.973 250.902C188.703 250.902 188.484 251.121 188.484 251.391C188.484 251.661 188.703 251.88 188.973 251.88Z" fill="#BA6E9D"/>
<path d="M186.038 260.196C186.308 260.196 186.527 259.977 186.527 259.707C186.527 259.437 186.308 259.218 186.038 259.218C185.767 259.218 185.548 259.437 185.548 259.707C185.548 259.977 185.767 260.196 186.038 260.196Z" fill="#BA6E9D"/>
<path d="M195.382 206.531C195.652 206.531 195.871 206.312 195.871 206.041C195.871 205.771 195.652 205.552 195.382 205.552C195.112 205.552 194.893 205.771 194.893 206.041C194.893 206.312 195.112 206.531 195.382 206.531Z" fill="#BA6E9D"/>
<path d="M191.321 240.53C191.456 240.53 191.566 240.421 191.566 240.286C191.566 240.151 191.456 240.041 191.321 240.041C191.186 240.041 191.077 240.151 191.077 240.286C191.077 240.421 191.186 240.53 191.321 240.53Z" fill="#BA6E9D"/>
<path d="M190.098 246.401C190.233 246.401 190.343 246.291 190.343 246.156C190.343 246.021 190.233 245.912 190.098 245.912C189.963 245.912 189.854 246.021 189.854 246.156C189.854 246.291 189.963 246.401 190.098 246.401Z" fill="#BA6E9D"/>
<path d="M194.893 232.41C195.163 232.41 195.382 232.191 195.382 231.92C195.382 231.65 195.163 231.431 194.893 231.431C194.622 231.431 194.403 231.65 194.403 231.92C194.403 232.191 194.622 232.41 194.893 232.41Z" fill="#BA6E9D"/>
<path d="M191.125 227.517C191.396 227.517 191.615 227.298 191.615 227.028C191.615 226.758 191.396 226.539 191.125 226.539C190.855 226.539 190.636 226.758 190.636 227.028C190.636 227.298 190.855 227.517 191.125 227.517Z" fill="#BA6E9D"/>
<path d="M182.907 201.541C182.907 201.541 191.37 201.932 192.397 200.318C193.474 198.703 192.397 197.921 192.397 197.921C192.397 197.921 194.501 196.942 193.718 194.937C192.544 191.952 181.097 197.187 181.097 197.187L182.907 201.541Z" fill="#BA6E9D"/>
<path d="M144.994 159.665C144.994 159.665 134.769 156.143 133.595 126.79C131.492 75.1304 123.469 51.1595 111.679 44.9955C104.243 41.1308 99.1064 44.9955 99.1064 44.9955C99.1064 44.9955 94.1165 47.8329 92.6489 54.8285C91.1813 61.8241 91.2302 61.7752 91.2302 61.7752L97.492 69.6514C97.492 69.6514 109.869 68.1837 118.283 96.8022C126.697 125.421 114.174 143.766 139.515 166.807" fill="#E3BFDC"/>
<path opacity="0.5" d="M108.303 68.2328C111.437 68.2328 113.978 65.6922 113.978 62.5581C113.978 59.424 111.437 56.8833 108.303 56.8833C105.169 56.8833 102.628 59.424 102.628 62.5581C102.628 65.6922 105.169 68.2328 108.303 68.2328Z" fill="#E56B63"/>
<path d="M106.102 44.3107C106.053 44.3107 106.053 44.3107 106.004 44.3107C105.662 44.2618 105.368 43.9683 105.417 43.6258C105.417 43.4791 105.662 40.5438 108.303 38.7827C108.597 38.587 108.988 38.6849 109.184 38.9784C109.38 39.2719 109.282 39.6633 108.988 39.859C106.885 41.2777 106.689 43.6748 106.689 43.7237C106.689 44.0172 106.395 44.3107 106.102 44.3107Z" fill="black"/>
<path d="M108.94 44.5063C108.842 44.5063 108.793 44.5063 108.695 44.4574C108.353 44.3595 108.157 43.9682 108.255 43.6257C108.304 43.5279 109.037 41.2286 110.603 39.8589C112.07 38.6359 112.609 38.1467 112.609 38.1467C112.902 37.9021 113.293 37.951 113.538 38.1956C113.783 38.4891 113.734 38.8805 113.489 39.1251C113.489 39.1251 112.951 39.6143 111.483 40.8373C110.163 41.9624 109.527 44.0171 109.527 44.0171C109.429 44.3106 109.233 44.4574 108.94 44.5063Z" fill="black"/>
<path d="M111.63 45.1422C111.532 45.1422 111.385 45.1422 111.287 45.0932C110.945 44.9465 110.847 44.5551 110.994 44.2127C111.043 44.1637 111.874 42.5494 112.902 41.7666L113.831 41.0818C114.125 40.8861 114.516 40.935 114.761 41.2285C114.956 41.522 114.907 41.9134 114.614 42.158L113.684 42.8429C113 43.3321 112.364 44.4083 112.168 44.7997C112.07 44.9954 111.874 45.1422 111.63 45.1422Z" fill="black"/>
<path d="M79.0486 71.9508C79.3421 73.1249 83.2557 73.8587 89.273 71.5595C95.2902 69.2602 97.4427 69.6516 97.4427 69.6516C97.4427 69.6516 100.231 67.0588 100.035 64.4171C99.8398 61.7754 98.0786 58.8402 94.6053 58.7913C91.9636 58.7913 91.719 59.3783 91.719 59.3783C91.719 59.3783 91.1808 65.102 87.0226 67.4502C82.6687 69.9451 78.5105 69.9451 79.0486 71.9508Z" fill="#F6A13D"/>
<path d="M107.178 49.1049C106.933 49.2028 106.689 49.1049 106.542 48.8603C106.395 48.6157 106.493 48.3222 106.738 48.2244C106.885 48.1755 107.521 47.7352 107.227 46.8546C107.129 46.61 107.276 46.3165 107.521 46.2186C107.765 46.1208 108.059 46.2676 108.156 46.5122C108.597 47.9308 107.716 48.8114 107.178 49.1049Z" fill="black"/>
<path d="M108.695 49.6432C108.646 49.6921 108.597 49.6921 108.548 49.6921C108.303 49.7899 108.01 49.6432 107.912 49.3986C107.814 49.154 107.961 48.8604 108.206 48.7626C108.303 48.7137 108.646 48.5669 108.744 48.3223C108.793 48.1756 108.793 48.0288 108.744 47.8331C108.646 47.5885 108.793 47.295 109.037 47.1972C109.282 47.0993 109.575 47.2461 109.673 47.4907C109.82 47.931 109.82 48.3712 109.624 48.7626C109.429 49.3007 108.939 49.5453 108.695 49.6432Z" fill="black"/>
<path d="M105.27 59.9653C108.485 59.9653 111.092 57.3589 111.092 54.1438C111.092 50.9287 108.485 48.3223 105.27 48.3223C102.055 48.3223 99.4487 50.9287 99.4487 54.1438C99.4487 57.3589 102.055 59.9653 105.27 59.9653Z" fill="white"/>
<path d="M96.5625 111.968C96.5625 117.006 96.5625 122.094 96.5625 127.133C96.5625 128.698 99.0085 128.698 99.0085 127.133C99.0085 122.094 99.0085 117.006 99.0085 111.968C99.0085 110.402 96.5625 110.402 96.5625 111.968Z" fill="#E73B32"/>
<path d="M97.7855 133.248C99.3509 133.248 99.3509 130.802 97.7855 130.802C96.1711 130.802 96.1711 133.248 97.7855 133.248Z" fill="#E73B32"/>
<path d="M80.9078 71.6572C80.8589 70.532 84.0387 70.1896 84.0387 70.9234C84.0387 73.027 80.9567 72.7824 80.9078 71.6572Z" fill="black"/>
<path d="M104.781 59.8184C106.861 59.8184 108.548 58.1319 108.548 56.0515C108.548 53.9712 106.861 52.2847 104.781 52.2847C102.701 52.2847 101.014 53.9712 101.014 56.0515C101.014 58.1319 102.701 59.8184 104.781 59.8184Z" fill="black"/>
<path d="M103.558 51.1597L104.732 55.0733L107.031 52.774L103.558 51.1597Z" fill="white"/>
<path d="M161.284 194.007C161.284 194.007 169.502 208.634 170.334 233.633C170.921 251.342 158.349 266.947 158.349 266.947H163.485C163.485 266.947 175.569 247.135 177.574 235.443C179.58 223.751 180.167 202.03 173.465 190.974C166.714 179.918 161.284 194.007 161.284 194.007Z" fill="#E3BFDC"/>
<path d="M176.988 201.59L171.557 201.247C171.557 201.247 170.628 202.324 169.111 202.47C167.595 202.617 164.17 200.562 164.17 200.562L167.644 197.97L176.988 199.927L177.379 201.639L176.988 201.59Z" fill="#DC91BB"/>
<path d="M164.513 188.724C164.513 188.724 178.113 199.535 177.33 224.729C176.548 249.923 160.159 269.198 160.159 269.198L163.29 268.855C163.29 268.855 176.89 249.63 178.553 226.637C180.217 203.644 176.303 197.334 176.303 197.334L164.513 188.724Z" fill="#DC91BB"/>
<path d="M166.959 271.448L167.35 269.589H139.955C139.368 270.567 139.172 271.448 139.172 271.448H166.959Z" fill="#FEF6B1"/>
<path d="M145.336 268.855C145.336 269.149 145.336 269.393 145.287 269.589H167.35L169.551 259.805C169.551 259.805 166.078 260.098 164.562 261.321C163.045 262.544 162.458 265.333 162.458 265.333C162.458 265.333 161.675 265.529 162.654 262.496C163.681 259.462 162.164 259.756 162.164 259.756L159.131 265.578C159.131 265.578 148.565 266.165 144.357 266.752C144.896 267.192 145.336 267.828 145.336 268.855Z" fill="#E73B32"/>
<path d="M139.955 269.589H145.287C145.287 269.345 145.287 269.1 145.336 268.855C145.385 267.877 144.944 267.192 144.357 266.801C144.26 266.801 144.113 266.85 144.015 266.85C141.911 267.143 140.688 268.464 139.955 269.589Z" fill="#FEF6B1"/>
<path d="M156.636 267.486C156.636 267.486 156.636 266.899 156.245 266.36C155.903 265.92 155.56 265.822 155.267 265.822C155.707 265.333 156.294 265.578 156.587 265.871C157.223 266.409 157.272 267.388 157.272 267.437L156.636 267.486H156.93H156.636Z" fill="white"/>
<path d="M154.875 267.632C154.875 267.632 154.875 267.045 154.484 266.507C154.141 266.067 153.799 265.969 153.505 265.969C153.946 265.48 154.533 265.724 154.826 266.018C155.462 266.556 155.511 267.534 155.511 267.583L154.875 267.632H155.169H154.875Z" fill="white"/>
<path d="M160.061 267.29C160.061 267.29 160.061 266.703 159.669 266.165C159.327 265.724 158.984 265.627 158.691 265.627C159.131 265.137 159.718 265.382 160.012 265.675C160.648 266.214 160.697 267.192 160.697 267.241L160.061 267.29H160.354H160.061Z" fill="white"/>
<path d="M158.349 267.387C158.349 267.387 158.349 266.8 157.957 266.262C157.615 265.822 157.273 265.724 156.979 265.724C157.419 265.235 158.006 265.48 158.3 265.773C158.936 266.311 158.985 267.29 158.985 267.339L158.349 267.387H158.642H158.349Z" fill="white"/>
<path d="M161.871 266.605C161.871 266.556 161.235 264.99 159.474 264.893C159.474 264.893 159.278 264.697 159.62 264.403C162.017 264.403 162.409 266.409 162.458 266.458L161.871 266.605Z" fill="white"/>
<path d="M168.329 205.846C168.329 206.09 168.133 206.335 167.839 206.335C167.546 206.335 167.35 206.139 167.35 205.846C167.35 205.552 167.546 205.356 167.839 205.356C168.133 205.356 168.329 205.601 168.329 205.846Z" fill="#BA6E9D"/>
<path d="M174.933 213.477C175.068 213.477 175.177 213.368 175.177 213.233C175.177 213.098 175.068 212.988 174.933 212.988C174.798 212.988 174.688 213.098 174.688 213.233C174.688 213.368 174.798 213.477 174.933 213.477Z" fill="#BA6E9D"/>
<path d="M169.943 211.374C170.078 211.374 170.187 211.264 170.187 211.129C170.187 210.994 170.078 210.885 169.943 210.885C169.808 210.885 169.698 210.994 169.698 211.129C169.698 211.264 169.808 211.374 169.943 211.374Z" fill="#BA6E9D"/>
<path d="M170.774 218.81C170.909 218.81 171.019 218.7 171.019 218.565C171.019 218.43 170.909 218.321 170.774 218.321C170.639 218.321 170.53 218.43 170.53 218.565C170.53 218.7 170.639 218.81 170.774 218.81Z" fill="#BA6E9D"/>
<path d="M172.487 233.633C172.622 233.633 172.731 233.523 172.731 233.388C172.731 233.253 172.622 233.144 172.487 233.144C172.352 233.144 172.242 233.253 172.242 233.388C172.242 233.523 172.352 233.633 172.487 233.633Z" fill="#BA6E9D"/>
<path d="M176.792 223.359C177.062 223.359 177.281 223.14 177.281 222.87C177.281 222.6 177.062 222.381 176.792 222.381C176.522 222.381 176.303 222.6 176.303 222.87C176.303 223.14 176.522 223.359 176.792 223.359Z" fill="#BA6E9D"/>
<path d="M173.661 242.928C173.931 242.928 174.15 242.709 174.15 242.438C174.15 242.168 173.931 241.949 173.661 241.949C173.391 241.949 173.172 242.168 173.172 242.438C173.172 242.709 173.391 242.928 173.661 242.928Z" fill="#BA6E9D"/>
<path d="M169.943 250.902C170.213 250.902 170.432 250.682 170.432 250.412C170.432 250.142 170.213 249.923 169.943 249.923C169.673 249.923 169.454 250.142 169.454 250.412C169.454 250.682 169.673 250.902 169.943 250.902Z" fill="#BA6E9D"/>
<path d="M166.959 259.267C167.229 259.267 167.448 259.048 167.448 258.778C167.448 258.507 167.229 258.288 166.959 258.288C166.689 258.288 166.47 258.507 166.47 258.778C166.47 259.048 166.689 259.267 166.959 259.267Z" fill="#BA6E9D"/>
<path d="M176.303 205.601C176.573 205.601 176.792 205.382 176.792 205.112C176.792 204.842 176.573 204.623 176.303 204.623C176.033 204.623 175.813 204.842 175.813 205.112C175.813 205.382 176.033 205.601 176.303 205.601Z" fill="#BA6E9D"/>
<path d="M172.242 239.601C172.377 239.601 172.487 239.491 172.487 239.356C172.487 239.221 172.377 239.112 172.242 239.112C172.107 239.112 171.998 239.221 171.998 239.356C171.998 239.491 172.107 239.601 172.242 239.601Z" fill="#BA6E9D"/>
<path d="M171.019 245.471C171.154 245.471 171.264 245.362 171.264 245.227C171.264 245.092 171.154 244.982 171.019 244.982C170.884 244.982 170.774 245.092 170.774 245.227C170.774 245.362 170.884 245.471 171.019 245.471Z" fill="#BA6E9D"/>
<path d="M175.862 231.48C176.132 231.48 176.351 231.261 176.351 230.991C176.351 230.721 176.132 230.502 175.862 230.502C175.592 230.502 175.373 230.721 175.373 230.991C175.373 231.261 175.592 231.48 175.862 231.48Z" fill="#BA6E9D"/>
<path d="M172.047 226.539C172.317 226.539 172.536 226.32 172.536 226.05C172.536 225.78 172.317 225.561 172.047 225.561C171.777 225.561 171.558 225.78 171.558 226.05C171.558 226.32 171.777 226.539 172.047 226.539Z" fill="#BA6E9D"/>
<path d="M143.722 158.736C138.83 164.802 138.781 169.743 138.781 169.743C138.781 169.743 142.107 200.905 176.988 197.97C206.291 195.524 191.174 190.632 191.174 190.632C191.174 190.632 195.724 191.855 196.898 189.262C198.121 186.718 193.718 185.642 193.718 185.642C193.718 185.642 202.035 185.789 202.328 179.625C209.715 179.331 214.412 177.815 214.558 176.005C214.705 174.194 210.938 173.754 210.938 173.754C210.938 173.754 214.705 173.314 214.558 172.091C214.412 170.868 212.748 170.574 212.748 170.574C212.748 170.574 213.384 170.428 214.558 168.177C215.733 165.927 211.232 166.465 211.966 166.514C221.75 167.003 223.951 153.795 223.951 153.795C223.951 153.795 205.068 151.887 186.918 150.223C158.887 147.68 147.782 153.697 143.722 158.736Z" fill="#20264A"/>
<path d="M157.517 164.802C157.517 164.802 173.563 170.721 182.809 180.407C186.038 182.413 193.669 186.62 193.865 188.773C194.061 190.925 191.223 190.681 191.223 190.681C191.223 190.681 192.984 192.442 192.397 194.105C191.81 195.768 190.147 196.209 190.147 196.209L153.163 183.881C153.163 183.881 145.678 164.704 146.314 164.802C146.901 164.9 149.396 162.992 157.517 164.802Z" fill="#1F2142"/>
<path d="M167.497 182.413C172.633 186.424 174.884 189.164 173.661 190.827C172.438 192.49 170.481 192.05 170.481 192.05C170.481 192.05 172.291 194.154 171.41 195.377C170.481 196.6 167.497 195.817 167.497 195.817C167.497 195.817 170.823 198.703 169.454 200.807C168.084 202.911 163.583 200.367 160.99 198.997C158.447 197.627 152.087 191.757 146.51 185.25C140.933 178.744 139.417 172.14 139.417 172.14C139.417 172.14 141.863 162.404 167.497 182.413Z" fill="#20264A"/>
<path d="M138.781 172.238C138.781 172.238 145.776 198.019 169.747 199.584C189.903 200.905 191.028 198.85 190.881 197.187C190.734 195.524 183.347 194.79 183.347 194.79C183.347 194.79 190.441 196.013 190.881 193.714C191.321 191.414 189.218 191.904 183.494 189.017C189.364 190.24 190.245 191.121 190.93 189.017C191.615 186.914 187.261 186.473 184.375 184.321C181.488 182.168 167.057 171.455 151.353 165.633C135.21 159.567 138.781 172.238 138.781 172.238Z" fill="#282F55"/>
<path d="M181.831 181.973C181.831 181.973 189.266 188.283 187.31 189.849C190.098 190.485 192.104 191.268 192.348 189.213C192.593 187.207 183.298 182.022 181.831 181.973Z" fill="white"/>
<path d="M186.184 190.24C186.331 190.289 188.484 193.127 187.065 194.105C185.695 195.083 185.304 194.986 185.304 194.986C185.304 194.986 190.196 196.6 190.881 193.714C191.566 190.778 186.184 190.24 186.184 190.24Z" fill="white"/>
<path d="M181.048 199.975C181.048 199.975 186.82 199.78 188.141 197.872C189.413 195.964 188.141 195.573 188.141 195.573C188.141 195.573 191.37 196.257 191.174 197.334C190.979 198.41 191.664 200.269 181.048 199.975Z" fill="white"/>
<path d="M185.548 272.378L185.94 270.519H158.544C157.957 271.497 157.762 272.378 157.762 272.378H185.548Z" fill="#FEF6B1"/>
<path d="M163.926 269.785C163.926 270.078 163.926 270.323 163.877 270.518H185.94L188.141 260.734C188.141 260.734 184.668 261.028 183.151 262.251C181.635 263.474 181.048 266.262 181.048 266.262C181.048 266.262 180.265 266.458 181.243 263.425C182.271 260.392 180.754 260.685 180.754 260.685L177.721 266.507C177.721 266.507 167.154 267.094 162.947 267.681C163.534 268.121 163.975 268.757 163.926 269.785Z" fill="#E73B32"/>
<path d="M158.593 270.518H163.926C163.926 270.274 163.926 270.029 163.975 269.785C164.023 268.806 163.583 268.121 162.996 267.73C162.898 267.73 162.752 267.779 162.654 267.779C160.501 268.072 159.278 269.393 158.593 270.518Z" fill="#FEF6B1"/>
<path d="M175.226 268.415C175.226 268.415 175.226 267.828 174.835 267.29C174.492 266.849 174.15 266.752 173.856 266.752C174.297 266.262 174.884 266.507 175.177 266.8C175.813 267.339 175.862 268.317 175.862 268.366L175.226 268.415H175.52H175.226Z" fill="white"/>
<path d="M173.514 268.562C173.514 268.562 173.514 267.975 173.123 267.437C172.78 266.996 172.438 266.899 172.145 266.899C172.585 266.409 173.172 266.654 173.465 266.947C174.101 267.486 174.15 268.464 174.15 268.513L173.514 268.562H173.808H173.514Z" fill="white"/>
<path d="M178.7 268.219C178.7 268.219 178.7 267.632 178.308 267.094C177.966 266.654 177.624 266.556 177.33 266.556C177.77 266.067 178.357 266.311 178.651 266.605C179.287 267.143 179.336 268.121 179.336 268.17L178.7 268.219H178.993H178.7Z" fill="white"/>
<path d="M176.939 268.317C176.939 268.317 176.939 267.73 176.547 267.192C176.205 266.752 175.862 266.654 175.569 266.654C176.009 266.165 176.596 266.409 176.89 266.703C177.526 267.241 177.575 268.219 177.575 268.268L176.939 268.317H177.232H176.939Z" fill="white"/>
<path d="M180.461 267.534C180.461 267.486 179.825 265.92 178.063 265.822C178.063 265.822 177.868 265.627 178.21 265.333C180.607 265.333 180.999 267.339 181.048 267.388L180.461 267.534Z" fill="white"/>
<path d="M122.246 75.0816C122.975 75.0816 123.567 74.4903 123.567 73.7608C123.567 73.0313 122.975 72.4399 122.246 72.4399C121.516 72.4399 120.925 73.0313 120.925 73.7608C120.925 74.4903 121.516 75.0816 122.246 75.0816Z" fill="#D3AACF"/>
<path d="M124.594 106.831C125.35 106.831 125.964 106.218 125.964 105.461C125.964 104.705 125.35 104.091 124.594 104.091C123.837 104.091 123.224 104.705 123.224 105.461C123.224 106.218 123.837 106.831 124.594 106.831Z" fill="#D3AACF"/>
<path d="M130.317 137.651C130.912 137.651 131.394 137.169 131.394 136.575C131.394 135.98 130.912 135.498 130.317 135.498C129.723 135.498 129.241 135.98 129.241 136.575C129.241 137.169 129.723 137.651 130.317 137.651Z" fill="#D3AACF"/>
<path d="M134.72 157.463C135.45 157.463 136.041 156.872 136.041 156.143C136.041 155.413 135.45 154.822 134.72 154.822C133.991 154.822 133.399 155.413 133.399 156.143C133.399 156.872 133.991 157.463 134.72 157.463Z" fill="#D3AACF"/>
</g>
<defs>
<clipPath id="clip0">
<rect width="145" height="234.378" fill="white" transform="translate(79 38)"/>
</clipPath>
</defs>
</svg>
