<svg width="262" height="270" viewBox="0 0 262 270" fill="none" xmlns="http://www.w3.org/2000/svg">
<circle cx="131" cy="131" r="131" fill="#B7E3F0"/>
<path d="M70.2124 77.0061L70.2187 76.85H70.0625H69.1875H69.0435L69.0376 76.9939L68.9185 79.9276H66H65.85V80.0776V80.8621V81.0121H66H68.9064L68.7876 83.994L68.7814 84.15H68.9375H69.8125H69.9567L69.9624 84.006L70.0817 81.0121H73H73.15V80.8621V80.0776V79.9276H73H70.0937L70.2124 77.0061Z" fill="#7DC8DB" stroke="#7DC8DB" stroke-width="0.3"/>
<path d="M229.052 155.006L229.058 154.85H228.902H228.277H228.133L228.127 154.994L228.043 157.048H226H225.85V157.198V157.759V157.909H226H228.031L227.948 159.994L227.942 160.15H228.098H228.723H228.867L228.873 160.006L228.957 157.909H231H231.15V157.759V157.198V157.048H231H228.969L229.052 155.006Z" fill="#7DC8DB" stroke="#7DC8DB" stroke-width="0.3"/>
<circle cx="31" cy="175" r="4" stroke="#7DC8DB" stroke-width="2"/>
<circle cx="139" cy="234" r="2.5" stroke="#7DC8DB"/>
<path d="M243 66.3027C243 66.3027 176.598 96.4491 144 4" stroke="#7DC8DB" stroke-dasharray="4 4"/>
<path d="M207.734 61.3286C207.12 61.3286 206.507 61.387 205.893 61.5038C205.433 59.3424 203.96 57.473 201.874 56.4799C199.787 55.4868 197.363 55.4284 195.246 56.3631C193.344 51.3391 187.514 48.7687 182.268 50.5797C177.021 52.3906 174.291 57.9403 176.193 62.9351C171.591 63.0811 167.939 66.703 168.001 71.0844C168.062 75.4657 171.836 79 176.438 79H207.703C212.827 79 217 75.0276 217 70.1497C217.031 65.301 212.858 61.3286 207.734 61.3286Z" fill="white"/>
<path d="M94.0031 192.594C93.5398 192.594 93.0764 192.638 92.6131 192.727C92.2655 191.087 91.1535 189.669 89.578 188.916C88.0026 188.162 86.1724 188.118 84.5738 188.827C83.1373 185.016 78.7354 183.066 74.7737 184.44C70.812 185.814 68.75 190.024 70.1864 193.813C66.7112 193.924 63.9542 196.671 64.0006 199.995C64.0469 203.319 66.8966 206 70.3718 206H93.98C97.849 206 101 202.986 101 199.286C101.023 195.608 97.8722 192.594 94.0031 192.594Z" fill="white" fill-opacity="0.8"/>
<path d="M16.2404 98.0315C16.6537 98.0315 17.067 98.0678 17.4802 98.1403C17.7902 96.7987 18.782 95.6384 20.1871 95.022C21.5923 94.4056 23.2247 94.3693 24.6504 94.9495C25.9316 91.8312 29.8576 90.2358 33.391 91.3598C36.9245 92.4838 38.7635 95.9285 37.4824 99.0287C40.5819 99.1193 43.0408 101.367 42.9995 104.087C42.9582 106.806 40.4166 109 37.3171 109H16.2611C12.8103 109 10.0001 106.534 10.0001 103.507C9.97945 100.497 12.7897 98.0315 16.2404 98.0315Z" fill="white"/>
<g clip-path="url(#clip0)">
<path d="M143.661 163.895C143.661 163.895 129.719 169.539 117.733 158.007C105.748 146.474 112.744 141.322 109.026 140.095C105.308 138.868 106.726 147.701 106.726 147.701C106.726 147.701 106.726 138.377 104.77 137.151C102.813 135.924 98.6545 139.604 98.6545 139.604C98.6545 139.604 100.856 135.433 98.6545 135.433C96.4531 135.433 84.9568 161.589 108.683 177.734C132.41 193.879 150.461 176.556 150.461 176.556L143.661 163.895Z" fill="#3B4C9A"/>
<path d="M111.031 145.493L95.4747 134.354" stroke="#3C3C3B" stroke-width="6" stroke-miterlimit="10" stroke-linecap="round"/>
<path d="M103.253 144.904C103.253 144.904 102.03 137.396 94.2028 133.617C91.0719 132.145 95.5236 145.493 98.2142 147.701C99.0948 148.437 103.253 144.904 103.253 144.904Z" fill="#282F55"/>
<path d="M150.461 176.556C150.461 176.556 138.622 183.23 129.866 182.15C121.402 181.12 106.433 176.654 103.204 144.904C98.6056 139.604 99.6818 140.684 99.6818 140.684L95.1322 142.254C95.1322 142.254 90.6805 157.221 101.101 171.06C110.982 184.211 127.909 187.058 131.969 187.107C142.438 187.107 146.205 182.003 150.461 176.556Z" fill="#282F55"/>
<path d="M183.923 191.425C183.923 191.425 192.141 206.098 192.973 231.174C193.56 248.938 180.987 264.593 180.987 264.593H186.124C186.124 264.593 196.984 244.424 200.213 232.99C203.295 222.047 202.806 199.473 196.104 188.383C189.353 177.292 183.923 191.425 183.923 191.425Z" fill="#D3AACF"/>
<path d="M193.218 189.806C193.218 189.806 202.953 200.454 200.849 220.378C198.061 246.288 184.216 264.936 184.216 264.936L186.711 265.623C186.711 265.623 205.79 235.345 202.904 211.25C200.067 187.205 195.81 185.487 195.81 185.487L193.218 189.806Z" fill="#DC91BB"/>
<path d="M191.359 203.301C191.359 203.546 191.163 203.792 190.869 203.792C190.576 203.792 190.38 203.595 190.38 203.301C190.38 203.006 190.576 202.81 190.869 202.81C191.163 202.81 191.359 203.055 191.359 203.301Z" fill="#BA6E9D"/>
<path d="M198.012 211.005C198.147 211.005 198.256 210.895 198.256 210.76C198.256 210.624 198.147 210.514 198.012 210.514C197.877 210.514 197.767 210.624 197.767 210.76C197.767 210.895 197.877 211.005 198.012 211.005Z" fill="#BA6E9D"/>
<path d="M192.973 208.846C193.108 208.846 193.218 208.736 193.218 208.601C193.218 208.465 193.108 208.355 192.973 208.355C192.838 208.355 192.728 208.465 192.728 208.601C192.728 208.736 192.838 208.846 192.973 208.846Z" fill="#BA6E9D"/>
<path d="M193.853 216.305C193.989 216.305 194.098 216.195 194.098 216.06C194.098 215.924 193.989 215.814 193.853 215.814C193.718 215.814 193.609 215.924 193.609 216.06C193.609 216.195 193.718 216.305 193.853 216.305Z" fill="#BA6E9D"/>
<path d="M195.566 231.223C195.701 231.223 195.81 231.113 195.81 230.978C195.81 230.842 195.701 230.732 195.566 230.732C195.431 230.732 195.321 230.842 195.321 230.978C195.321 231.113 195.431 231.223 195.566 231.223Z" fill="#BA6E9D"/>
<path d="M199.871 220.918C200.141 220.918 200.36 220.698 200.36 220.427C200.36 220.156 200.141 219.936 199.871 219.936C199.601 219.936 199.382 220.156 199.382 220.427C199.382 220.698 199.601 220.918 199.871 220.918Z" fill="#BA6E9D"/>
<path d="M196.74 240.498C197.01 240.498 197.229 240.278 197.229 240.007C197.229 239.736 197.01 239.516 196.74 239.516C196.47 239.516 196.251 239.736 196.251 240.007C196.251 240.278 196.47 240.498 196.74 240.498Z" fill="#BA6E9D"/>
<path d="M192.973 248.546C193.243 248.546 193.462 248.326 193.462 248.055C193.462 247.784 193.243 247.564 192.973 247.564C192.703 247.564 192.484 247.784 192.484 248.055C192.484 248.326 192.703 248.546 192.973 248.546Z" fill="#BA6E9D"/>
<path d="M190.038 256.888C190.308 256.888 190.527 256.668 190.527 256.397C190.527 256.126 190.308 255.907 190.038 255.907C189.768 255.907 189.549 256.126 189.549 256.397C189.549 256.668 189.768 256.888 190.038 256.888Z" fill="#BA6E9D"/>
<path d="M199.382 203.055C199.652 203.055 199.871 202.836 199.871 202.565C199.871 202.294 199.652 202.074 199.382 202.074C199.111 202.074 198.892 202.294 198.892 202.565C198.892 202.836 199.111 203.055 199.382 203.055Z" fill="#BA6E9D"/>
<path d="M195.321 237.161C195.456 237.161 195.566 237.051 195.566 236.916C195.566 236.78 195.456 236.67 195.321 236.67C195.186 236.67 195.077 236.78 195.077 236.916C195.077 237.051 195.186 237.161 195.321 237.161Z" fill="#BA6E9D"/>
<path d="M194.098 243.05C194.233 243.05 194.343 242.94 194.343 242.804C194.343 242.669 194.233 242.559 194.098 242.559C193.963 242.559 193.854 242.669 193.854 242.804C193.854 242.94 193.963 243.05 194.098 243.05Z" fill="#BA6E9D"/>
<path d="M198.892 229.015C199.163 229.015 199.382 228.795 199.382 228.524C199.382 228.253 199.163 228.033 198.892 228.033C198.622 228.033 198.403 228.253 198.403 228.524C198.403 228.795 198.622 229.015 198.892 229.015Z" fill="#BA6E9D"/>
<path d="M195.126 224.107C195.396 224.107 195.615 223.888 195.615 223.617C195.615 223.346 195.396 223.126 195.126 223.126C194.855 223.126 194.636 223.346 194.636 223.617C194.636 223.888 194.855 224.107 195.126 224.107Z" fill="#BA6E9D"/>
<path d="M186.907 198.05C186.907 198.05 195.37 198.442 196.397 196.823C197.474 195.204 196.397 194.418 196.397 194.418C196.397 194.418 198.501 193.437 197.718 191.425C196.544 188.432 185.097 193.682 185.097 193.682L186.907 198.05Z" fill="#BA6E9D"/>
<path d="M148.994 156.044C148.994 156.044 138.769 152.51 137.595 123.067C135.492 71.2462 127.469 47.2006 115.679 41.0174C108.243 37.1407 103.106 41.0174 103.106 41.0174C103.106 41.0174 98.1165 43.8636 96.6489 50.881C95.1813 57.8984 95.2302 57.8493 95.2302 57.8493L101.492 65.75C101.492 65.75 113.869 64.2779 122.283 92.9854C130.697 121.693 118.174 140.095 143.515 163.208" fill="#E3BFDC"/>
<path opacity="0.5" d="M112.303 64.3268C115.438 64.3268 117.978 61.7782 117.978 58.6343C117.978 55.4905 115.438 52.9419 112.303 52.9419C109.169 52.9419 106.629 55.4905 106.629 58.6343C106.629 61.7782 109.169 64.3268 112.303 64.3268Z" fill="#E56B63"/>
<path d="M110.102 40.3302C110.053 40.3302 110.053 40.3302 110.004 40.3302C109.661 40.2811 109.368 39.9867 109.417 39.6432C109.417 39.496 109.661 36.5516 112.303 34.785C112.597 34.5887 112.988 34.6868 113.184 34.9813C113.379 35.2757 113.282 35.6683 112.988 35.8646C110.884 37.2877 110.689 39.6923 110.689 39.7413C110.689 40.0358 110.395 40.3302 110.102 40.3302Z" fill="black"/>
<path d="M112.939 40.5266C112.841 40.5266 112.792 40.5266 112.695 40.4775C112.352 40.3794 112.156 39.9868 112.254 39.6433C112.303 39.5451 113.037 37.2387 114.602 35.8647C116.07 34.6379 116.608 34.1472 116.608 34.1472C116.902 33.9018 117.293 33.9509 117.538 34.1962C117.782 34.4907 117.733 34.8832 117.489 35.1286C117.489 35.1286 116.951 35.6193 115.483 36.8462C114.162 37.9748 113.526 40.0359 113.526 40.0359C113.428 40.3303 113.233 40.4775 112.939 40.5266Z" fill="black"/>
<path d="M115.63 41.1647C115.532 41.1647 115.385 41.1647 115.287 41.1156C114.945 40.9684 114.847 40.5758 114.994 40.2323C115.043 40.1832 115.874 38.5638 116.902 37.7787L117.831 37.0917C118.125 36.8954 118.516 36.9444 118.761 37.2389C118.956 37.5333 118.907 37.9259 118.614 38.1712L117.684 38.8583C117 39.349 116.364 40.4286 116.168 40.8212C116.07 41.0175 115.874 41.1647 115.63 41.1647Z" fill="black"/>
<path d="M83.0488 68.0565C83.3424 69.2342 87.256 69.9703 93.2732 67.6639C99.2904 65.3575 101.443 65.7501 101.443 65.7501C101.443 65.7501 104.231 63.1492 104.036 60.4993C103.84 57.8494 102.079 54.905 98.6055 54.856C95.9638 54.856 95.7192 55.4448 95.7192 55.4448C95.7192 55.4448 95.1811 61.1863 91.0229 63.5418C86.6689 66.0445 82.5107 66.0445 83.0488 68.0565Z" fill="#F6A13D"/>
<path d="M111.178 45.1394C110.933 45.2376 110.689 45.1394 110.542 44.894C110.395 44.6487 110.493 44.3542 110.738 44.2561C110.885 44.207 111.521 43.7654 111.227 42.8821C111.129 42.6367 111.276 42.3423 111.521 42.2441C111.765 42.146 112.059 42.2932 112.156 42.5386C112.597 43.9617 111.716 44.845 111.178 45.1394Z" fill="black"/>
<path d="M112.695 45.6792C112.646 45.7283 112.597 45.7283 112.548 45.7283C112.303 45.8264 112.01 45.6792 111.912 45.4338C111.814 45.1885 111.961 44.894 112.206 44.7959C112.303 44.7468 112.646 44.5996 112.744 44.3542C112.793 44.207 112.793 44.0598 112.744 43.8635C112.646 43.6181 112.793 43.3237 113.037 43.2256C113.282 43.1274 113.575 43.2746 113.673 43.52C113.82 43.9617 113.82 44.4033 113.624 44.7959C113.429 45.3357 112.939 45.5811 112.695 45.6792Z" fill="black"/>
<path d="M109.27 56.0335C112.486 56.0335 115.092 53.419 115.092 50.1939C115.092 46.9687 112.486 44.3542 109.27 44.3542C106.055 44.3542 103.449 46.9687 103.449 50.1939C103.449 53.419 106.055 56.0335 109.27 56.0335Z" fill="white"/>
<path d="M108.781 55.8865C110.861 55.8865 112.548 54.1948 112.548 52.1079C112.548 50.0211 110.861 48.3293 108.781 48.3293C106.701 48.3293 105.014 50.0211 105.014 52.1079C105.014 54.1948 106.701 55.8865 108.781 55.8865Z" fill="black"/>
<path d="M107.558 47.2007L108.732 51.1265L111.031 48.8201L107.558 47.2007Z" fill="white"/>
<path d="M111.619 102.358H91.0231C88.8217 102.358 87.0605 104.125 87.0605 106.333V117.473C87.0605 119.681 88.8217 121.447 91.0231 121.447H97.6763L100.611 127.385C100.758 127.68 101.003 127.827 101.296 127.827C101.59 127.827 101.883 127.68 102.03 127.385L104.965 121.447H111.619C113.82 121.447 115.581 119.681 115.581 117.473V106.333C115.581 104.174 113.82 102.358 111.619 102.358Z" fill="#F4F0A3"/>
<path d="M101.296 105.057C97.6272 105.057 94.692 108.051 94.692 111.682C94.692 115.313 97.6762 118.307 101.296 118.307C104.965 118.307 107.901 115.313 107.901 111.682C107.901 108.051 104.965 105.057 101.296 105.057ZM96.1596 111.731C96.1596 108.885 98.4589 106.578 101.296 106.578C102.764 106.578 104.036 107.167 105.014 108.149L96.8934 114.43C96.4531 113.596 96.1596 112.712 96.1596 111.731ZM101.296 116.884C99.9754 116.884 98.7524 116.344 97.8229 115.51L105.846 109.277C106.237 110.013 106.433 110.799 106.433 111.682C106.482 114.577 104.183 116.884 101.296 116.884Z" fill="#E73B32"/>
<path d="M100.66 63.3945C100.464 63.3945 100.122 63.3945 99.8285 63.4436C99.535 63.4927 99.1926 63.5418 98.899 63.5908C98.2631 63.689 97.676 63.8853 97.0401 64.0325C95.8171 64.376 94.594 64.8176 93.42 65.3084C92.8329 65.5537 92.2459 65.7991 91.6588 66.0445C91.0718 66.3389 90.4847 66.5843 89.8977 66.8787L88.1855 67.762L86.4733 68.6453L88.1366 67.6148L89.7999 66.6333C90.338 66.2898 90.925 65.9954 91.5121 65.701C92.0991 65.4065 92.6862 65.1121 93.2243 64.8176C94.3984 64.2288 95.5725 63.738 96.7955 63.2964C97.4314 63.051 98.0185 62.8547 98.6544 62.7075C98.9969 62.6094 99.2904 62.5603 99.6328 62.5112C99.9753 62.4622 100.269 62.4131 100.709 62.4131L100.66 63.3945Z" fill="#2D2618"/>
<path d="M165.284 190.493C165.284 190.493 173.503 205.165 174.334 230.242C174.921 248.006 162.349 263.66 162.349 263.66H167.485C167.485 263.66 179.569 243.786 181.574 232.057C183.58 220.329 184.167 198.541 177.465 187.45C170.714 176.36 165.284 190.493 165.284 190.493Z" fill="#E3BFDC"/>
<path d="M180.987 198.099L175.557 197.755C175.557 197.755 174.628 198.835 173.111 198.982C171.595 199.129 168.17 197.068 168.17 197.068L171.644 194.468L180.987 196.43L181.379 198.148L180.987 198.099Z" fill="#DC91BB"/>
<path d="M168.513 185.193C168.513 185.193 182.113 196.038 181.33 221.31C180.547 246.583 164.159 265.917 164.159 265.917L167.29 265.574C167.29 265.574 180.89 246.288 182.553 223.224C184.216 200.16 180.303 193.83 180.303 193.83L168.513 185.193Z" fill="#DC91BB"/>
<path d="M170.959 268.175L171.35 266.31H143.955C143.368 267.292 143.172 268.175 143.172 268.175H170.959Z" fill="#FEF6B1"/>
<path d="M149.336 265.574C149.336 265.868 149.336 266.114 149.287 266.31H171.35L173.552 256.496C173.552 256.496 170.078 256.79 168.562 258.017C167.045 259.244 166.458 262.041 166.458 262.041C166.458 262.041 165.675 262.237 166.654 259.195C167.681 256.152 166.165 256.446 166.165 256.446L163.132 262.286C163.132 262.286 152.565 262.875 148.358 263.464C148.896 263.906 149.336 264.543 149.336 265.574Z" fill="#E73B32"/>
<path d="M143.955 266.31H149.287C149.287 266.065 149.287 265.819 149.336 265.574C149.385 264.593 148.945 263.906 148.358 263.513C148.26 263.513 148.113 263.562 148.015 263.562C145.912 263.856 144.689 265.181 143.955 266.31Z" fill="#FEF6B1"/>
<path d="M160.637 264.2C160.637 264.2 160.637 263.611 160.245 263.071C159.903 262.63 159.56 262.531 159.267 262.531C159.707 262.041 160.294 262.286 160.588 262.581C161.224 263.12 161.273 264.102 161.273 264.151L160.637 264.2H160.93H160.637Z" fill="white"/>
<path d="M158.876 264.347C158.876 264.347 158.876 263.758 158.484 263.218C158.142 262.777 157.799 262.679 157.506 262.679C157.946 262.188 158.533 262.433 158.827 262.728C159.463 263.268 159.512 264.249 159.512 264.298L158.876 264.347H159.169H158.876Z" fill="white"/>
<path d="M164.061 264.004C164.061 264.004 164.061 263.415 163.67 262.875C163.327 262.433 162.985 262.335 162.691 262.335C163.132 261.844 163.719 262.09 164.012 262.384C164.648 262.924 164.697 263.905 164.697 263.955L164.061 264.004H164.355H164.061Z" fill="white"/>
<path d="M162.349 264.102C162.349 264.102 162.349 263.513 161.958 262.973C161.615 262.531 161.273 262.433 160.979 262.433C161.419 261.943 162.006 262.188 162.3 262.482C162.936 263.022 162.985 264.004 162.985 264.053L162.349 264.102H162.642H162.349Z" fill="white"/>
<path d="M165.871 263.317C165.871 263.268 165.235 261.697 163.474 261.599C163.474 261.599 163.278 261.403 163.621 261.108C166.018 261.108 166.409 263.12 166.458 263.169L165.871 263.317Z" fill="white"/>
<path d="M172.329 202.368C172.329 202.614 172.133 202.859 171.839 202.859C171.546 202.859 171.35 202.663 171.35 202.368C171.35 202.074 171.546 201.877 171.839 201.877C172.133 201.877 172.329 202.123 172.329 202.368Z" fill="#BA6E9D"/>
<path d="M178.933 210.024C179.068 210.024 179.177 209.914 179.177 209.778C179.177 209.643 179.068 209.533 178.933 209.533C178.798 209.533 178.688 209.643 178.688 209.778C178.688 209.914 178.798 210.024 178.933 210.024Z" fill="#BA6E9D"/>
<path d="M173.943 207.914C174.078 207.914 174.188 207.804 174.188 207.668C174.188 207.533 174.078 207.423 173.943 207.423C173.808 207.423 173.698 207.533 173.698 207.668C173.698 207.804 173.808 207.914 173.943 207.914Z" fill="#BA6E9D"/>
<path d="M174.775 215.373C174.91 215.373 175.019 215.263 175.019 215.127C175.019 214.992 174.91 214.882 174.775 214.882C174.64 214.882 174.53 214.992 174.53 215.127C174.53 215.263 174.64 215.373 174.775 215.373Z" fill="#BA6E9D"/>
<path d="M176.487 230.242C176.622 230.242 176.731 230.132 176.731 229.996C176.731 229.861 176.622 229.751 176.487 229.751C176.352 229.751 176.242 229.861 176.242 229.996C176.242 230.132 176.352 230.242 176.487 230.242Z" fill="#BA6E9D"/>
<path d="M180.792 219.936C181.062 219.936 181.281 219.717 181.281 219.446C181.281 219.175 181.062 218.955 180.792 218.955C180.522 218.955 180.303 219.175 180.303 219.446C180.303 219.717 180.522 219.936 180.792 219.936Z" fill="#BA6E9D"/>
<path d="M177.661 239.565C177.931 239.565 178.15 239.346 178.15 239.075C178.15 238.804 177.931 238.584 177.661 238.584C177.391 238.584 177.172 238.804 177.172 239.075C177.172 239.346 177.391 239.565 177.661 239.565Z" fill="#BA6E9D"/>
<path d="M173.943 247.564C174.213 247.564 174.432 247.345 174.432 247.073C174.432 246.802 174.213 246.583 173.943 246.583C173.673 246.583 173.454 246.802 173.454 247.073C173.454 247.345 173.673 247.564 173.943 247.564Z" fill="#BA6E9D"/>
<path d="M170.959 255.956C171.229 255.956 171.448 255.736 171.448 255.465C171.448 255.194 171.229 254.974 170.959 254.974C170.689 254.974 170.47 255.194 170.47 255.465C170.47 255.736 170.689 255.956 170.959 255.956Z" fill="#BA6E9D"/>
<path d="M180.303 202.123C180.573 202.123 180.792 201.903 180.792 201.632C180.792 201.361 180.573 201.141 180.303 201.141C180.033 201.141 179.813 201.361 179.813 201.632C179.813 201.903 180.033 202.123 180.303 202.123Z" fill="#BA6E9D"/>
<path d="M176.242 236.229C176.377 236.229 176.487 236.119 176.487 235.983C176.487 235.848 176.377 235.738 176.242 235.738C176.107 235.738 175.998 235.848 175.998 235.983C175.998 236.119 176.107 236.229 176.242 236.229Z" fill="#BA6E9D"/>
<path d="M175.019 242.117C175.154 242.117 175.264 242.007 175.264 241.872C175.264 241.736 175.154 241.626 175.019 241.626C174.884 241.626 174.775 241.736 174.775 241.872C174.775 242.007 174.884 242.117 175.019 242.117Z" fill="#BA6E9D"/>
<path d="M179.862 228.083C180.133 228.083 180.352 227.863 180.352 227.592C180.352 227.321 180.133 227.101 179.862 227.101C179.592 227.101 179.373 227.321 179.373 227.592C179.373 227.863 179.592 228.083 179.862 228.083Z" fill="#BA6E9D"/>
<path d="M176.046 223.126C176.317 223.126 176.536 222.906 176.536 222.635C176.536 222.364 176.317 222.145 176.046 222.145C175.776 222.145 175.557 222.364 175.557 222.635C175.557 222.906 175.776 223.126 176.046 223.126Z" fill="#BA6E9D"/>
<path d="M147.722 155.111C142.83 161.196 142.781 166.153 142.781 166.153C142.781 166.153 146.107 197.412 180.987 194.468C210.291 192.014 195.174 187.107 195.174 187.107C195.174 187.107 199.724 188.334 200.898 185.733C202.121 183.181 197.718 182.101 197.718 182.101C197.718 182.101 206.035 182.249 206.328 176.065C213.715 175.771 218.412 174.25 218.558 172.434C218.705 170.618 214.938 170.177 214.938 170.177C214.938 170.177 218.705 169.735 218.558 168.508C218.412 167.281 216.748 166.987 216.748 166.987C216.748 166.987 217.384 166.84 218.558 164.582C219.732 162.325 215.232 162.865 215.966 162.914C225.75 163.405 227.951 150.155 227.951 150.155C227.951 150.155 209.068 148.241 190.918 146.573C162.887 144.021 151.782 150.057 147.722 155.111Z" fill="#20264A"/>
<path d="M161.517 161.196C161.517 161.196 177.563 167.134 186.809 176.85C190.038 178.862 197.669 183.083 197.865 185.242C198.061 187.401 195.223 187.156 195.223 187.156C195.223 187.156 196.985 188.922 196.397 190.591C195.81 192.259 194.147 192.701 194.147 192.701L157.163 180.335C157.163 180.335 149.679 161.098 150.314 161.196C150.902 161.294 153.396 159.381 161.517 161.196Z" fill="#1F2142"/>
<path d="M171.497 178.863C176.634 182.887 178.884 185.635 177.661 187.303C176.438 188.972 174.481 188.53 174.481 188.53C174.481 188.53 176.291 190.64 175.411 191.867C174.481 193.094 171.497 192.309 171.497 192.309C171.497 192.309 174.823 195.204 173.454 197.314C172.084 199.424 167.583 196.872 164.991 195.498C162.447 194.124 156.087 188.236 150.51 181.709C144.933 175.182 143.417 168.557 143.417 168.557C143.417 168.557 145.863 158.792 171.497 178.863Z" fill="#20264A"/>
<path d="M142.781 168.655C142.781 168.655 149.776 194.517 173.747 196.087C193.902 197.412 195.028 195.351 194.881 193.682C194.734 192.014 187.347 191.278 187.347 191.278C187.347 191.278 194.441 192.505 194.881 190.198C195.321 187.892 193.218 188.383 187.494 185.487C193.364 186.714 194.245 187.597 194.93 185.487C195.615 183.377 191.261 182.936 188.374 180.776C185.488 178.617 171.057 167.87 155.353 162.031C139.209 155.946 142.781 168.655 142.781 168.655Z" fill="#282F55"/>
<path d="M185.831 178.421C185.831 178.421 193.267 184.751 191.31 186.322C194.098 186.96 196.104 187.745 196.349 185.684C196.593 183.672 187.298 178.47 185.831 178.421Z" fill="white"/>
<path d="M190.185 186.714C190.331 186.763 192.484 189.609 191.065 190.591C189.695 191.572 189.304 191.474 189.304 191.474C189.304 191.474 194.196 193.094 194.881 190.198C195.566 187.254 190.185 186.714 190.185 186.714Z" fill="white"/>
<path d="M185.048 196.48C185.048 196.48 190.82 196.283 192.141 194.369C193.413 192.456 192.141 192.063 192.141 192.063C192.141 192.063 195.37 192.75 195.174 193.83C194.979 194.909 195.664 196.774 185.048 196.48Z" fill="white"/>
<path d="M189.549 269.107L189.94 267.242H162.545C161.958 268.224 161.762 269.107 161.762 269.107H189.549Z" fill="#FEF6B1"/>
<path d="M167.926 266.506C167.926 266.801 167.926 267.046 167.877 267.242H189.94L192.141 257.428C192.141 257.428 188.668 257.722 187.151 258.949C185.635 260.176 185.048 262.973 185.048 262.973C185.048 262.973 184.265 263.169 185.244 260.127C186.271 257.084 184.754 257.379 184.754 257.379L181.721 263.218C181.721 263.218 171.155 263.807 166.947 264.396C167.534 264.838 167.975 265.476 167.926 266.506Z" fill="#E73B32"/>
<path d="M162.593 267.242H167.926C167.926 266.997 167.926 266.752 167.975 266.506C168.024 265.525 167.583 264.838 166.996 264.445C166.898 264.445 166.752 264.494 166.654 264.494C164.501 264.789 163.278 266.114 162.593 267.242Z" fill="#FEF6B1"/>
<path d="M179.226 265.132C179.226 265.132 179.226 264.543 178.835 264.004C178.493 263.562 178.15 263.464 177.857 263.464C178.297 262.973 178.884 263.218 179.178 263.513C179.814 264.053 179.862 265.034 179.862 265.083L179.226 265.132H179.52H179.226Z" fill="white"/>
<path d="M177.514 265.279C177.514 265.279 177.514 264.691 177.123 264.151C176.78 263.709 176.438 263.611 176.145 263.611C176.585 263.12 177.172 263.366 177.465 263.66C178.101 264.2 178.15 265.181 178.15 265.23L177.514 265.279H177.808H177.514Z" fill="white"/>
<path d="M182.7 264.936C182.7 264.936 182.7 264.347 182.308 263.807C181.966 263.366 181.623 263.268 181.33 263.268C181.77 262.777 182.357 263.022 182.651 263.317C183.287 263.856 183.336 264.838 183.336 264.887L182.7 264.936H182.993H182.7Z" fill="white"/>
<path d="M180.939 265.034C180.939 265.034 180.939 264.445 180.547 263.905C180.205 263.464 179.862 263.366 179.569 263.366C180.009 262.875 180.596 263.12 180.89 263.415C181.526 263.955 181.575 264.936 181.575 264.985L180.939 265.034H181.232H180.939Z" fill="white"/>
<path d="M184.461 264.249C184.461 264.2 183.825 262.63 182.064 262.532C182.064 262.532 181.868 262.335 182.211 262.041C184.608 262.041 184.999 264.053 185.048 264.102L184.461 264.249Z" fill="white"/>
<path d="M124.289 42.8821C124.044 42.4404 123.653 42.146 123.164 42.0479C121.403 41.6553 118.223 43.471 116.559 44.5506C116.364 43.1765 116.119 42.1951 116.119 42.0969L115.875 41.2136L99.4862 49.2125L99.633 49.8013C99.6819 49.8995 99.8776 50.6356 100.269 51.568L94.9366 53.2364L95.3769 54.6595L100.905 52.942C102.177 55.4447 104.476 58.5363 108.096 58.5363C108.439 58.5363 108.83 58.4872 109.172 58.4381C111.716 57.9965 113.673 56.7697 114.994 54.8068C116.657 52.2059 116.853 48.8199 116.706 46.219C118.663 44.8941 121.696 43.2747 122.821 43.52C122.968 43.5691 123.017 43.6182 123.017 43.6182C123.213 43.9617 123.653 44.1089 123.995 43.9126C124.387 43.7163 124.485 43.2747 124.289 42.8821ZM113.771 54.0216C112.744 55.641 111.129 56.6224 108.977 57.015C104.378 57.7511 101.932 51.9115 101.247 49.9976L114.847 43.3728C115.239 45.4339 115.923 50.6356 113.771 54.0216Z" fill="#232323"/>
<path d="M126.246 71.197C126.975 71.197 127.566 70.6038 127.566 69.8721C127.566 69.1403 126.975 68.5471 126.246 68.5471C125.516 68.5471 124.925 69.1403 124.925 69.8721C124.925 70.6038 125.516 71.197 126.246 71.197Z" fill="#D3AACF"/>
<path d="M128.594 103.045C129.35 103.045 129.964 102.43 129.964 101.671C129.964 100.912 129.35 100.297 128.594 100.297C127.837 100.297 127.224 100.912 127.224 101.671C127.224 102.43 127.837 103.045 128.594 103.045Z" fill="#D3AACF"/>
<path d="M134.317 133.961C134.912 133.961 135.394 133.478 135.394 132.881C135.394 132.285 134.912 131.802 134.317 131.802C133.723 131.802 133.241 132.285 133.241 132.881C133.241 133.478 133.723 133.961 134.317 133.961Z" fill="#D3AACF"/>
<path d="M138.72 153.835C139.45 153.835 140.041 153.242 140.041 152.511C140.041 151.779 139.45 151.186 138.72 151.186C137.991 151.186 137.399 151.779 137.399 152.511C137.399 153.242 137.991 153.835 138.72 153.835Z" fill="#D3AACF"/>
</g>
<defs>
<clipPath id="clip0">
<rect width="145" height="235.107" fill="white" transform="translate(83 34)"/>
</clipPath>
</defs>
</svg>
