<svg width="264" height="274" viewBox="0 0 264 274" fill="none" xmlns="http://www.w3.org/2000/svg">
<circle cx="131.956" cy="131.956" r="131.956" fill="#B7E3F0"/>
<path d="M70.724 77.5681L70.7303 77.412H70.5741H69.6927H69.5487L69.5428 77.5559L69.4228 80.5121H66.4819H66.3319V80.6621V81.4523V81.6023H66.4819H69.4107L69.291 84.6071L69.2848 84.7631H69.4409H70.3223H70.4664L70.4722 84.6191L70.5923 81.6023H73.533H73.683V81.4523V80.6621V80.5121H73.533H70.6044L70.724 77.5681Z" fill="#7DC8DB" stroke="#7DC8DB" stroke-width="0.3"/>
<path d="M230.722 156.137L230.729 155.981H230.572H229.943H229.799L229.793 156.125L229.709 158.196H227.649H227.499V158.346V158.91V159.06H227.649H229.697L229.613 161.162L229.607 161.318H229.763H230.393H230.537L230.542 161.174L230.627 159.06H232.686H232.836V158.91V158.346V158.196H232.686H230.639L230.722 156.137Z" fill="#7DC8DB" stroke="#7DC8DB" stroke-width="0.3"/>
<circle cx="31.226" cy="176.277" r="4.02189" stroke="#7DC8DB" stroke-width="2"/>
<circle cx="140.014" cy="235.708" r="2.5146" stroke="#7DC8DB"/>
<path d="M244.774 66.7867C244.774 66.7867 177.887 97.1531 145.051 4.0293" stroke="#7DC8DB" stroke-dasharray="4 4"/>
<path d="M209.25 61.776C208.632 61.776 208.014 61.8349 207.396 61.9525C206.932 59.7753 205.449 57.8923 203.347 56.8919C201.245 55.8916 198.804 55.8327 196.671 56.7743C194.755 51.7136 188.883 49.1245 183.598 50.9487C178.313 52.7728 175.563 58.363 177.479 63.3942C172.843 63.5413 169.165 67.1897 169.227 71.603C169.289 76.0163 173.09 79.5764 177.726 79.5764H209.219C214.38 79.5764 218.584 75.575 218.584 70.6615C218.614 65.7774 214.411 61.776 209.25 61.776Z" fill="white"/>
<path d="M94.6889 194C94.2222 194 93.7554 194.044 93.2887 194.134C92.9386 192.482 91.8184 191.053 90.2315 190.294C88.6446 189.536 86.801 189.491 85.1907 190.205C83.7438 186.366 79.3098 184.402 75.3191 185.786C71.3285 187.17 69.2515 191.41 70.6984 195.227C67.1978 195.339 64.4207 198.107 64.4674 201.455C64.5141 204.803 67.3845 207.503 70.8851 207.503H94.6656C98.5629 207.503 101.737 204.468 101.737 200.74C101.76 197.035 98.5862 194 94.6889 194Z" fill="white" fill-opacity="0.8"/>
<path d="M16.3591 98.7469C16.7754 98.7469 17.1917 98.7834 17.608 98.8565C17.9202 97.5051 18.9193 96.3363 20.3346 95.7154C21.75 95.0945 23.3943 95.058 24.8305 95.6424C26.121 92.5013 30.0756 90.8943 33.6349 92.0265C37.1941 93.1587 39.0466 96.6285 37.7561 99.7513C40.8782 99.8426 43.3551 102.107 43.3134 104.846C43.2718 107.586 40.7117 109.795 37.5896 109.795H16.3799C12.904 109.795 10.0732 107.312 10.0732 104.262C10.0524 101.231 12.8831 98.7469 16.3591 98.7469Z" fill="white"/>
<g clip-path="url(#clip0)">
<path d="M115.286 38.2486C115.236 38.2486 115.236 38.2486 115.186 38.2486C114.835 38.1984 114.585 37.8476 114.635 37.4967C114.635 37.3463 115.086 34.3887 117.893 32.7345C118.194 32.534 118.595 32.6343 118.795 32.9852C118.996 33.2859 118.896 33.6869 118.545 33.8875C116.289 35.1908 115.938 37.647 115.938 37.6972C115.888 37.9979 115.587 38.2486 115.286 38.2486Z" fill="black"/>
<path d="M118.194 38.5997C118.094 38.5997 118.043 38.5997 117.943 38.5495C117.592 38.3992 117.442 38.0483 117.542 37.6974C117.592 37.5971 118.495 35.2912 120.199 33.9879C121.753 32.7848 122.354 32.3337 122.354 32.3337C122.655 32.1332 123.056 32.1833 123.307 32.4339C123.507 32.7347 123.457 33.1357 123.207 33.3864C123.207 33.3864 122.605 33.8375 121.051 35.0406C119.648 36.0933 118.846 38.1485 118.846 38.1485C118.695 38.4493 118.445 38.5997 118.194 38.5997Z" fill="black"/>
<path d="M120.901 39.4519C120.8 39.4519 120.65 39.4018 120.55 39.3517C120.249 39.1512 120.149 38.7502 120.299 38.4494C120.349 38.3993 121.302 36.7952 122.404 36.0934L123.407 35.4417C123.708 35.2412 124.109 35.3415 124.309 35.6422C124.51 35.943 124.41 36.344 124.109 36.5445L123.106 37.1962C122.404 37.6473 121.653 38.7502 121.452 39.1011C121.352 39.3016 121.101 39.4519 120.901 39.4519Z" fill="black"/>
<path d="M120.349 39.0005C115.687 36.6947 108.369 38.399 105.612 41.7074C102.855 45.0159 99.7969 49.8783 99.7969 49.8783L101.752 60.355C101.752 60.355 102.353 60.9064 102.454 62.4604C102.454 62.4604 102.404 105.42 119.547 134.193C136.691 162.967 148.671 169.082 148.671 169.082L155.288 181.414L161.805 166.125L150.476 157.603C150.476 157.603 138.997 146.124 129.422 118.253C119.096 88.0256 123.858 68.0747 126.365 51.5826C126.866 48.0235 127.267 42.4092 120.349 39.0005Z" fill="#E3BFDC"/>
<path d="M118.895 44.8657C118.645 44.8657 118.394 44.6652 118.394 44.4146C118.394 44.1639 118.595 43.9133 118.845 43.8632C118.996 43.8632 119.747 43.7128 119.848 42.7603C119.848 42.4596 120.098 42.2591 120.399 42.3092C120.7 42.3092 120.9 42.5598 120.85 42.8606C120.75 44.3143 119.547 44.8156 118.895 44.8657Z" fill="black"/>
<path d="M120.099 45.9685C120.049 45.9685 119.999 45.9685 119.949 45.9685C119.648 45.9685 119.447 45.7179 119.497 45.4171C119.497 45.1665 119.748 44.9158 120.049 44.966C120.149 44.966 120.5 44.966 120.751 44.7654C120.851 44.6652 120.951 44.5148 120.951 44.3143C120.951 44.0135 121.202 43.813 121.503 43.8631C121.803 43.8631 122.004 44.1138 121.954 44.4146C121.904 44.9158 121.753 45.3169 121.402 45.5675C120.951 45.9184 120.4 45.9685 120.099 45.9685Z" fill="black"/>
<path opacity="0.5" d="M115.086 65.2173C118.297 65.2173 120.901 62.6139 120.901 59.4025C120.901 56.191 118.297 53.5876 115.086 53.5876C111.874 53.5876 109.271 56.191 109.271 59.4025C109.271 62.6139 111.874 65.2173 115.086 65.2173Z" fill="#E56B63"/>
<path d="M115.086 54.791C118.38 54.791 121.051 52.1203 121.051 48.8258C121.051 45.5313 118.38 42.8606 115.086 42.8606C111.791 42.8606 109.121 45.5313 109.121 48.8258C109.121 52.1203 111.791 54.791 115.086 54.791Z" fill="white"/>
<path d="M145.614 165.874C145.614 165.874 145.564 179.409 138.195 184.071C130.826 188.733 126.916 187.88 116.941 189.735C116.941 189.735 115.186 193.695 114.885 194.347C115.637 195.149 111.326 200.863 113.732 203.671C116.139 206.478 118.645 205.826 118.645 205.826C118.645 205.826 119.497 207.33 121.502 207.881C123.457 208.433 125.512 208.232 125.512 208.232C125.512 208.232 126.766 209.887 129.071 209.586C131.428 209.285 133.332 209.937 133.332 209.937C133.332 209.937 134.886 209.937 138.245 209.285C141.654 208.583 178.447 198.207 167.219 164.32C166.116 161.363 153.183 153.242 145.614 165.874Z" fill="#3B4B9A"/>
<path d="M126.615 169.183L157.494 193.144L142.406 216.854L110.474 195.951L126.615 169.183Z" fill="#F2A909"/>
<path d="M134.786 172.04L128.871 168.33L126.615 169.182L128.169 177.253L135.789 177.804L134.786 172.04Z" fill="#F2A909"/>
<path d="M126.866 170.436L111.527 195.75L140.902 216.102L157.444 193.896L126.866 170.436Z" fill="#E0DAC1"/>
<path d="M126.866 170.987L111.477 196.302L140.851 216.654L157.394 194.447L126.866 170.987Z" fill="#FCF3C8"/>
<path d="M125.713 171.188L158.797 195.098L142.556 218.308L110.474 195.951L125.713 171.188Z" fill="#F4D303"/>
<path d="M116.189 200.713C116.189 200.713 121.552 194.547 123.658 196.352C125.713 198.156 124.159 206.227 117.241 208.834C110.324 211.49 111.176 204.172 112.178 201.565C113.181 198.959 114.083 198.056 114.083 198.056L116.189 200.713Z" fill="#20264A"/>
<path d="M123.608 202.718C123.608 202.718 130.124 197.054 132.129 199.059C134.135 201.064 134.586 205.626 124.711 210.639C114.835 215.701 116.59 208.784 116.59 208.784L123.608 202.718Z" fill="#20264A"/>
<path d="M123.006 210.087C123.006 210.087 126.114 213.896 129.823 212.593C133.533 211.29 140.25 208.031 140.751 203.921C141.252 199.81 134.886 202.718 134.886 202.718L129.121 204.322L123.006 210.087Z" fill="#20264A"/>
<path d="M183.962 222.669C184.1 222.669 184.212 222.557 184.212 222.418C184.212 222.28 184.1 222.168 183.962 222.168C183.823 222.168 183.711 222.28 183.711 222.418C183.711 222.557 183.823 222.669 183.962 222.669Z" fill="#DC91BB"/>
<path d="M183.711 216.554C183.849 216.554 183.961 216.441 183.961 216.303C183.961 216.164 183.849 216.052 183.711 216.052C183.572 216.052 183.46 216.164 183.46 216.303C183.46 216.441 183.572 216.554 183.711 216.554Z" fill="#DC91BB"/>
<path d="M168.472 193.645C168.472 193.645 169.825 196.051 171.48 200.563C173.986 207.33 177.244 218.859 177.746 234.249C178.347 252.395 165.464 268.386 165.464 268.386H170.728C170.728 268.386 183.109 248.084 185.165 236.103C187.22 224.123 187.821 201.866 180.954 190.537C174.036 179.208 168.472 193.645 168.472 193.645Z" fill="#E3BFDC"/>
<path d="M171.78 188.231C171.78 188.231 185.716 199.309 184.914 225.125C184.112 250.941 167.319 270.742 167.319 270.742L170.527 270.391C170.527 270.391 184.463 250.69 186.167 227.13C187.871 203.57 183.861 197.104 183.861 197.104L171.78 188.231Z" fill="#DC91BB"/>
<path d="M174.237 272.997L174.638 271.092H146.566C145.965 272.095 145.764 272.997 145.764 272.997H174.237Z" fill="#FEF6B1"/>
<path d="M152.08 270.34C152.08 270.641 152.08 270.892 152.03 271.092H174.638L176.893 261.067C176.893 261.067 173.334 261.368 171.78 262.621C170.226 263.874 169.625 266.731 169.625 266.731C169.625 266.731 168.823 266.932 169.825 263.824C170.878 260.716 169.324 261.017 169.324 261.017L166.216 266.982C166.216 266.982 155.389 267.583 151.078 268.185C151.679 268.636 152.13 269.338 152.08 270.34Z" fill="#E73B32"/>
<path d="M146.616 271.092H152.08C152.08 270.841 152.08 270.591 152.13 270.34C152.18 269.338 151.729 268.636 151.128 268.235C151.027 268.235 150.877 268.285 150.777 268.285C148.621 268.636 147.318 269.939 146.616 271.092Z" fill="#FEF6B1"/>
<path d="M163.71 268.987C163.71 268.987 163.71 268.385 163.309 267.834C162.958 267.383 162.607 267.282 162.306 267.282C162.757 266.781 163.359 267.032 163.66 267.332C164.311 267.884 164.361 268.886 164.361 268.937L163.71 268.987H164.01H163.71Z" fill="white"/>
<path d="M161.906 269.087C161.906 269.087 161.906 268.486 161.504 267.934C161.154 267.483 160.803 267.383 160.502 267.383C160.953 266.882 161.555 267.132 161.855 267.433C162.507 267.984 162.557 268.987 162.557 269.037L161.906 269.087H162.206H161.906Z" fill="white"/>
<path d="M167.219 268.736C167.219 268.736 167.219 268.135 166.818 267.583C166.467 267.132 166.116 267.032 165.815 267.032C166.267 266.531 166.868 266.781 167.169 267.082C167.821 267.633 167.871 268.636 167.871 268.686L167.219 268.736H167.52H167.219Z" fill="white"/>
<path d="M165.414 268.837C165.414 268.837 165.414 268.235 165.013 267.684C164.662 267.233 164.312 267.132 164.011 267.132C164.462 266.631 165.063 266.882 165.364 267.183C166.016 267.734 166.066 268.736 166.066 268.787L165.414 268.837H165.715H165.414Z" fill="white"/>
<path d="M169.074 268.035C169.074 267.984 168.422 266.38 166.618 266.28C166.618 266.28 166.417 266.08 166.768 265.779C169.224 265.779 169.625 267.834 169.675 267.884L169.074 268.035Z" fill="white"/>
<path d="M174.938 204.673C175.215 204.673 175.44 204.449 175.44 204.172C175.44 203.895 175.215 203.671 174.938 203.671C174.661 203.671 174.437 203.895 174.437 204.172C174.437 204.449 174.661 204.673 174.938 204.673Z" fill="#DC91BB"/>
<path d="M178.949 218.859C179.087 218.859 179.2 218.747 179.2 218.609C179.2 218.47 179.087 218.358 178.949 218.358C178.81 218.358 178.698 218.47 178.698 218.609C178.698 218.747 178.81 218.859 178.949 218.859Z" fill="#DC91BB"/>
<path d="M179.55 206.778C179.688 206.778 179.801 206.666 179.801 206.528C179.801 206.389 179.688 206.277 179.55 206.277C179.412 206.277 179.299 206.389 179.299 206.528C179.299 206.666 179.412 206.778 179.55 206.778Z" fill="#DC91BB"/>
<path d="M182.057 210.388C182.334 210.388 182.558 210.163 182.558 209.886C182.558 209.609 182.334 209.385 182.057 209.385C181.78 209.385 181.556 209.609 181.556 209.886C181.556 210.163 181.78 210.388 182.057 210.388Z" fill="#DC91BB"/>
<path d="M182.057 228.835C182.334 228.835 182.558 228.61 182.558 228.334C182.558 228.057 182.334 227.832 182.057 227.832C181.78 227.832 181.556 228.057 181.556 228.334C181.556 228.61 181.78 228.835 182.057 228.835Z" fill="#DC91BB"/>
<path d="M178.949 225.677C179.225 225.677 179.45 225.452 179.45 225.175C179.45 224.899 179.225 224.674 178.949 224.674C178.672 224.674 178.447 224.899 178.447 225.175C178.447 225.452 178.672 225.677 178.949 225.677Z" fill="#DC91BB"/>
<path d="M180.653 244.475C180.93 244.475 181.154 244.25 181.154 243.973C181.154 243.697 180.93 243.472 180.653 243.472C180.376 243.472 180.152 243.697 180.152 243.973C180.152 244.25 180.376 244.475 180.653 244.475Z" fill="#DC91BB"/>
<path d="M174.237 257.608C174.513 257.608 174.738 257.384 174.738 257.107C174.738 256.83 174.513 256.605 174.237 256.605C173.96 256.605 173.735 256.83 173.735 257.107C173.735 257.384 173.96 257.608 174.237 257.608Z" fill="#DC91BB"/>
<path d="M180.402 235.953C180.541 235.953 180.653 235.84 180.653 235.702C180.653 235.564 180.541 235.451 180.402 235.451C180.264 235.451 180.152 235.564 180.152 235.702C180.152 235.84 180.264 235.953 180.402 235.953Z" fill="#DC91BB"/>
<path d="M177.345 212.543C177.566 212.543 177.746 212.364 177.746 212.142C177.746 211.921 177.566 211.741 177.345 211.741C177.123 211.741 176.944 211.921 176.944 212.142C176.944 212.364 177.123 212.543 177.345 212.543Z" fill="#DC91BB"/>
<path d="M177.194 248.735C177.333 248.735 177.445 248.623 177.445 248.485C177.445 248.346 177.333 248.234 177.194 248.234C177.056 248.234 176.944 248.346 176.944 248.485C176.944 248.623 177.056 248.735 177.194 248.735Z" fill="#DC91BB"/>
<path d="M176.894 253.648C177.032 253.648 177.144 253.536 177.144 253.397C177.144 253.259 177.032 253.146 176.894 253.146C176.755 253.146 176.643 253.259 176.643 253.397C176.643 253.536 176.755 253.648 176.894 253.648Z" fill="#DC91BB"/>
<path d="M171.731 261.067C171.869 261.067 171.981 260.955 171.981 260.816C171.981 260.678 171.869 260.566 171.731 260.566C171.592 260.566 171.48 260.678 171.48 260.816C171.48 260.955 171.592 261.067 171.731 261.067Z" fill="#DC91BB"/>
<path d="M176.693 201.515C172.031 199.811 171.53 200.563 171.53 200.563L170.227 195.901L183.962 197.104L185.566 202.317L176.693 201.515Z" fill="#DC91BB"/>
<path d="M187.571 194.598C187.571 194.598 195.992 209.586 196.844 235.201C197.446 253.347 184.563 269.338 184.563 269.338H189.826C189.826 269.338 200.955 248.736 204.263 237.056C207.421 225.877 206.92 202.818 200.052 191.49C193.135 180.211 187.571 194.598 187.571 194.598Z" fill="#E3BFDB"/>
<path d="M197.095 192.943C197.095 192.943 207.071 203.821 204.915 224.173C202.058 250.64 187.872 269.689 187.872 269.689L190.428 270.391C190.428 270.391 209.978 239.462 207.02 214.849C204.113 190.286 199.752 188.532 199.752 188.532L197.095 192.943Z" fill="#DC91BB"/>
<path d="M190.528 201.465C190.528 201.465 199.2 201.866 200.253 200.212C201.306 198.558 200.253 197.756 200.253 197.756C200.253 197.756 202.408 196.753 201.606 194.698C200.403 191.64 188.673 197.004 188.673 197.004L190.528 201.465Z" fill="#BA6E9D"/>
<path d="M194.789 204.924C194.789 205.175 194.589 205.425 194.288 205.425C194.037 205.425 193.787 205.225 193.787 204.924C193.787 204.623 193.987 204.423 194.288 204.423C194.589 204.473 194.789 204.673 194.789 204.924Z" fill="#BA6E9D"/>
<path d="M201.607 212.744C201.745 212.744 201.857 212.631 201.857 212.493C201.857 212.355 201.745 212.242 201.607 212.242C201.468 212.242 201.356 212.355 201.356 212.493C201.356 212.631 201.468 212.744 201.607 212.744Z" fill="#BA6E9D"/>
<path d="M196.444 210.588C196.582 210.588 196.694 210.476 196.694 210.338C196.694 210.199 196.582 210.087 196.444 210.087C196.305 210.087 196.193 210.199 196.193 210.338C196.193 210.476 196.305 210.588 196.444 210.588Z" fill="#BA6E9D"/>
<path d="M197.346 218.208C197.484 218.208 197.596 218.095 197.596 217.957C197.596 217.819 197.484 217.706 197.346 217.706C197.207 217.706 197.095 217.819 197.095 217.957C197.095 218.095 197.207 218.208 197.346 218.208Z" fill="#BA6E9D"/>
<path d="M199.1 233.396C199.239 233.396 199.351 233.284 199.351 233.146C199.351 233.007 199.239 232.895 199.1 232.895C198.962 232.895 198.85 233.007 198.85 233.146C198.85 233.284 198.962 233.396 199.1 233.396Z" fill="#BA6E9D"/>
<path d="M203.461 222.87C203.738 222.87 203.963 222.645 203.963 222.368C203.963 222.091 203.738 221.867 203.461 221.867C203.184 221.867 202.96 222.091 202.96 222.368C202.96 222.645 203.184 222.87 203.461 222.87Z" fill="#BA6E9D"/>
<path d="M200.303 242.921C200.58 242.921 200.804 242.696 200.804 242.419C200.804 242.143 200.58 241.918 200.303 241.918C200.026 241.918 199.802 242.143 199.802 242.419C199.802 242.696 200.026 242.921 200.303 242.921Z" fill="#BA6E9D"/>
<path d="M196.443 251.092C196.72 251.092 196.944 250.867 196.944 250.59C196.944 250.314 196.72 250.089 196.443 250.089C196.166 250.089 195.942 250.314 195.942 250.59C195.942 250.867 196.166 251.092 196.443 251.092Z" fill="#BA6E9D"/>
<path d="M193.435 259.663C193.712 259.663 193.937 259.439 193.937 259.162C193.937 258.885 193.712 258.661 193.435 258.661C193.159 258.661 192.934 258.885 192.934 259.162C192.934 259.439 193.159 259.663 193.435 259.663Z" fill="#BA6E9D"/>
<path d="M203.01 204.673C203.287 204.673 203.511 204.449 203.511 204.172C203.511 203.895 203.287 203.671 203.01 203.671C202.733 203.671 202.509 203.895 202.509 204.172C202.509 204.449 202.733 204.673 203.01 204.673Z" fill="#BA6E9D"/>
<path d="M198.85 239.512C198.988 239.512 199.1 239.4 199.1 239.261C199.1 239.123 198.988 239.011 198.85 239.011C198.711 239.011 198.599 239.123 198.599 239.261C198.599 239.4 198.711 239.512 198.85 239.512Z" fill="#BA6E9D"/>
<path d="M197.596 245.527C197.735 245.527 197.847 245.415 197.847 245.277C197.847 245.138 197.735 245.026 197.596 245.026C197.458 245.026 197.346 245.138 197.346 245.277C197.346 245.415 197.458 245.527 197.596 245.527Z" fill="#BA6E9D"/>
<path d="M202.509 231.191C202.785 231.191 203.01 230.966 203.01 230.69C203.01 230.413 202.785 230.188 202.509 230.188C202.232 230.188 202.007 230.413 202.007 230.69C202.007 230.966 202.232 231.191 202.509 231.191Z" fill="#BA6E9D"/>
<path d="M198.599 226.128C198.876 226.128 199.1 225.904 199.1 225.627C199.1 225.35 198.876 225.125 198.599 225.125C198.322 225.125 198.098 225.35 198.098 225.627C198.098 225.904 198.322 226.128 198.599 226.128Z" fill="#BA6E9D"/>
<path d="M193.335 274L193.736 272.095H165.665C165.063 273.098 164.863 274 164.863 274H193.335Z" fill="#FEF6B1"/>
<path d="M171.179 271.293C171.179 271.594 171.179 271.844 171.129 272.045H193.736L195.992 262.019C195.992 262.019 192.433 262.32 190.879 263.573C189.325 264.827 188.724 267.684 188.724 267.684C188.724 267.684 187.922 267.884 188.924 264.776C189.977 261.669 188.423 261.969 188.423 261.969L185.315 267.935C185.315 267.935 174.487 268.536 170.176 269.138C170.778 269.589 171.229 270.291 171.179 271.293Z" fill="#E73B32"/>
<path d="M165.715 272.045H171.179C171.179 271.795 171.179 271.544 171.229 271.293C171.279 270.291 170.828 269.589 170.226 269.188C170.126 269.188 169.976 269.238 169.875 269.238C167.67 269.589 166.417 270.892 165.715 272.045Z" fill="#FEF6B1"/>
<path d="M182.759 269.939C182.759 269.939 182.759 269.338 182.358 268.786C182.007 268.335 181.656 268.235 181.355 268.235C181.806 267.734 182.408 267.984 182.708 268.285C183.36 268.837 183.41 269.839 183.41 269.889L182.759 269.939H183.059H182.759Z" fill="white"/>
<path d="M180.954 270.04C180.954 270.04 180.954 269.438 180.553 268.887C180.202 268.436 179.851 268.336 179.55 268.336C180.001 267.834 180.603 268.085 180.904 268.386C181.555 268.937 181.606 269.94 181.606 269.99L180.954 270.04H181.255H180.954Z" fill="white"/>
<path d="M186.318 269.689C186.318 269.689 186.318 269.087 185.917 268.536C185.566 268.085 185.215 267.984 184.914 267.984C185.365 267.483 185.967 267.734 186.268 268.035C186.919 268.586 186.969 269.589 186.969 269.639L186.318 269.689H186.618H186.318Z" fill="white"/>
<path d="M184.513 269.789C184.513 269.789 184.513 269.187 184.112 268.636C183.761 268.185 183.41 268.085 183.109 268.085C183.561 267.583 184.162 267.834 184.463 268.135C185.114 268.686 185.165 269.689 185.165 269.739L184.513 269.789H184.814H184.513Z" fill="white"/>
<path d="M188.122 268.987C188.122 268.937 187.471 267.333 185.666 267.233C185.666 267.233 185.465 267.032 185.816 266.731C188.273 266.731 188.674 268.787 188.724 268.837L188.122 268.987Z" fill="white"/>
<path d="M150.426 157.503C145.413 163.718 145.363 168.781 145.363 168.781C145.363 168.781 148.771 200.713 184.513 197.705C214.539 195.199 199.05 190.186 199.05 190.186C199.05 190.186 203.712 191.439 204.915 188.782C206.168 186.176 201.656 185.073 201.656 185.073C201.656 185.073 210.178 185.223 210.479 178.907C218.048 178.606 222.86 177.052 223.011 175.198C223.161 173.343 219.301 172.892 219.301 172.892C219.301 172.892 223.161 172.441 223.011 171.188C222.86 169.934 221.156 169.634 221.156 169.634C221.156 169.634 221.808 169.483 223.011 167.177C224.214 164.871 219.602 165.423 220.354 165.473C230.38 165.974 232.635 152.44 232.635 152.44C232.635 152.44 213.286 150.485 194.689 148.78C166.015 146.174 154.586 152.339 150.426 157.503Z" fill="#20264A"/>
<path d="M164.612 163.719C164.612 163.719 181.054 169.784 190.528 179.709C193.836 181.765 201.656 186.076 201.857 188.281C202.057 190.487 199.15 190.236 199.15 190.236C199.15 190.236 200.954 192.041 200.353 193.745C199.751 195.449 198.047 195.901 198.047 195.901L160.15 183.268C160.15 183.268 152.481 163.618 153.133 163.719C153.784 163.819 156.24 161.864 164.612 163.719Z" fill="#1F2142"/>
<path d="M145.413 171.338C145.413 171.338 152.581 197.755 177.144 199.36C197.797 200.713 198.95 198.608 198.799 196.903C198.649 195.199 191.08 194.447 191.08 194.447C191.08 194.447 198.348 195.7 198.799 193.344C199.25 190.988 197.095 191.489 191.23 188.532C197.245 189.785 198.148 190.687 198.849 188.532C199.551 186.376 195.09 185.925 192.132 183.72C189.175 181.564 174.387 170.536 158.296 164.571C141.704 158.405 145.413 171.338 145.413 171.338Z" fill="#282F55"/>
<path d="M189.476 181.364C189.476 181.364 197.095 187.83 195.09 189.434C197.947 190.086 200.002 190.888 200.253 188.783C200.554 186.677 191.03 181.414 189.476 181.364Z" fill="white"/>
<path d="M193.987 189.785C194.137 189.835 196.343 192.742 194.889 193.745C193.485 194.748 193.084 194.647 193.084 194.647C193.084 194.647 198.097 196.302 198.799 193.344C199.501 190.336 193.987 189.785 193.987 189.785Z" fill="white"/>
<path d="M188.724 199.811C188.724 199.811 194.639 199.61 195.992 197.655C197.295 195.7 195.992 195.299 195.992 195.299C195.992 195.299 199.301 196.001 199.1 197.104C198.9 198.156 199.601 200.061 188.724 199.811Z" fill="white"/>
<path d="M83.6055 55.3423C83.405 56.5954 86.8137 58.8512 93.3805 59.1018C99.9472 59.3525 101.852 60.6057 101.852 60.6057C101.852 60.6057 105.562 59.3024 106.414 56.7458C107.266 54.1893 106.815 50.6804 103.556 49.2267C101.1 48.1239 100.599 48.575 100.599 48.575C100.599 48.575 97.7917 53.7883 92.9293 54.3397C87.8163 54.8911 83.9063 53.287 83.6055 55.3423Z" fill="#F6A13D"/>
<path d="M97.6415 58.3874C98.3102 58.3754 98.9402 58.3039 99.591 58.1344C100.242 57.9648 100.815 57.6764 101.399 57.339C101.983 57.0015 102.528 56.6047 103.074 56.2078C103.619 55.8109 104.252 55.4839 104.903 55.3143C104.241 55.5329 103.707 55.8807 103.151 56.3267C102.606 56.7235 102.099 57.1798 101.564 57.5277C101.019 57.9245 100.386 58.2516 99.7248 58.4702C99.0636 58.6888 98.3742 58.7989 97.6951 58.86L97.6415 58.3874Z" fill="#2D2618"/>
<path d="M123.457 62.4604C122.204 76.3458 120.851 89.78 123.457 103.415C127.117 122.513 132.029 130.484 132.029 130.484C132.029 130.484 138.796 146.775 150.476 157.503C140.601 143.417 130.024 126.373 125.061 102.061C120.049 77.4987 126.465 50.5801 126.465 50.5801C126.665 49.0261 124.009 56.4952 123.457 62.4604Z" fill="#DC91BB"/>
<path d="M109.872 82.0104C110.62 82.0104 111.226 81.4044 111.226 80.6569C111.226 79.9094 110.62 79.3035 109.872 79.3035C109.125 79.3035 108.519 79.9094 108.519 80.6569C108.519 81.4044 109.125 82.0104 109.872 82.0104Z" fill="#D3AACF"/>
<path d="M121.653 112.438C122.428 112.438 123.056 111.81 123.056 111.034C123.056 110.259 122.428 109.631 121.653 109.631C120.877 109.631 120.249 110.259 120.249 111.034C120.249 111.81 120.877 112.438 121.653 112.438Z" fill="#D3AACF"/>
<path d="M127.568 143.668C128.177 143.668 128.67 143.174 128.67 142.565C128.67 141.956 128.177 141.462 127.568 141.462C126.959 141.462 126.465 141.956 126.465 142.565C126.465 143.174 126.959 143.668 127.568 143.668Z" fill="#D3AACF"/>
<path d="M146.767 159.007C147.514 159.007 148.12 158.401 148.12 157.653C148.12 156.906 147.514 156.3 146.767 156.3C146.019 156.3 145.413 156.906 145.413 157.653C145.413 158.401 146.019 159.007 146.767 159.007Z" fill="#D3AACF"/>
<path d="M114.662 52.6807C116.461 52.6807 117.92 51.2219 117.92 49.4224C117.92 47.6229 116.461 46.1641 114.662 46.1641C112.862 46.1641 111.403 47.6229 111.403 49.4224C111.403 51.2219 112.862 52.6807 114.662 52.6807Z" fill="black"/>
<path d="M114.662 45.1616V48.6706L117.068 46.1642L114.662 45.1616Z" fill="white"/>
<path d="M131.881 49.7545C131.909 49.231 131.726 48.7554 131.348 48.3979C130.01 47.0763 126.201 46.9069 124.137 46.9324C124.723 45.6173 125.048 44.6198 125.103 44.5336L125.374 43.6223L106.494 41.5562L106.299 42.1546C106.288 42.268 106.054 43.0228 105.885 44.0586L103.376 43.2224L101.906 44.9485L105.689 45.6179C105.431 48.521 105.755 52.511 108.95 54.5189C109.252 54.7088 109.625 54.8828 109.954 55.0297C112.444 56.0528 114.848 56.0609 117.097 55.0699C120 53.7087 122.041 50.844 123.346 48.4788C125.805 48.4008 129.376 48.6611 130.234 49.5006C130.336 49.6251 130.352 49.6953 130.352 49.6953C130.335 50.1055 130.643 50.479 131.053 50.4966C131.507 50.5413 131.837 50.2077 131.881 49.7545Z" fill="#232323"/>
<path d="M154.33 156.453L143.979 166.942L143.551 168.864L146.654 178.99L144.75 184.379L141.265 178.99L142.081 168.864L142.873 167.266L141.265 163.475H144.75L150.41 152.043L154.33 156.453Z" fill="#F86F60"/>
</g>
<defs>
<clipPath id="clip0">
<rect width="149.08" height="241.766" fill="white" transform="translate(83.6055 32.2334)"/>
</clipPath>
</defs>
</svg>
