<svg width="262" height="273" viewBox="0 0 262 273" fill="none" xmlns="http://www.w3.org/2000/svg">
<circle cx="131" cy="131" r="131" fill="#B7E3F0"/>
<path d="M70.2124 77.0061L70.2187 76.85H70.0625H69.1875H69.0435L69.0376 76.9939L68.9185 79.9276H66H65.85V80.0776V80.8621V81.0121H66H68.9064L68.7876 83.994L68.7814 84.15H68.9375H69.8125H69.9567L69.9624 84.006L70.0817 81.0121H73H73.15V80.8621V80.0776V79.9276H73H70.0937L70.2124 77.0061Z" fill="#7DC8DB" stroke="#7DC8DB" stroke-width="0.3"/>
<path d="M229.052 155.006L229.058 154.85H228.902H228.277H228.133L228.127 154.994L228.043 157.048H226H225.85V157.198V157.759V157.909H226H228.031L227.948 159.994L227.942 160.15H228.098H228.723H228.867L228.873 160.006L228.957 157.909H231H231.15V157.759V157.198V157.048H231H228.969L229.052 155.006Z" fill="#7DC8DB" stroke="#7DC8DB" stroke-width="0.3"/>
<circle cx="31" cy="175" r="4" stroke="#7DC8DB" stroke-width="2"/>
<circle cx="139" cy="234" r="2.5" stroke="#7DC8DB"/>
<path d="M243 66.3027C243 66.3027 176.598 96.4491 144 4" stroke="#7DC8DB" stroke-dasharray="4 4"/>
<path d="M207.734 61.3286C207.12 61.3286 206.507 61.387 205.893 61.5038C205.433 59.3424 203.96 57.473 201.874 56.4799C199.787 55.4868 197.363 55.4284 195.246 56.3631C193.344 51.3391 187.514 48.7687 182.268 50.5797C177.021 52.3906 174.291 57.9403 176.193 62.9351C171.591 63.0811 167.939 66.703 168.001 71.0844C168.062 75.4657 171.836 79 176.438 79H207.703C212.827 79 217 75.0276 217 70.1497C217.031 65.301 212.858 61.3286 207.734 61.3286Z" fill="white"/>
<path d="M94.0031 192.594C93.5398 192.594 93.0764 192.638 92.6131 192.727C92.2655 191.087 91.1535 189.669 89.578 188.916C88.0026 188.162 86.1724 188.118 84.5738 188.827C83.1373 185.016 78.7354 183.066 74.7737 184.44C70.812 185.814 68.75 190.024 70.1864 193.813C66.7112 193.924 63.9542 196.671 64.0006 199.995C64.0469 203.319 66.8966 206 70.3718 206H93.98C97.849 206 101 202.986 101 199.286C101.023 195.608 97.8722 192.594 94.0031 192.594Z" fill="white" fill-opacity="0.8"/>
<path d="M16.2404 98.0315C16.6537 98.0315 17.067 98.0678 17.4802 98.1403C17.7902 96.7987 18.782 95.6384 20.1871 95.022C21.5923 94.4056 23.2247 94.3693 24.6504 94.9495C25.9316 91.8312 29.8576 90.2358 33.391 91.3598C36.9245 92.4838 38.7635 95.9285 37.4824 99.0287C40.5819 99.1193 43.0408 101.367 42.9995 104.087C42.9582 106.806 40.4166 109 37.3171 109H16.2611C12.8103 109 10.0001 106.534 10.0001 103.507C9.97945 100.497 12.7897 98.0315 16.2404 98.0315Z" fill="white"/>
<g clip-path="url(#clip0)">
<path d="M103.451 37.9718C103.402 37.9718 103.402 37.9718 103.352 37.9718C103.003 37.922 102.755 37.5737 102.804 37.2253C102.804 37.076 103.252 34.1399 106.039 32.4977C106.338 32.2986 106.736 32.3982 106.935 32.7465C107.134 33.0451 107.034 33.4432 106.686 33.6423C104.447 34.9362 104.098 37.3746 104.098 37.4244C104.049 37.723 103.75 37.9718 103.451 37.9718Z" fill="black"/>
<path d="M106.338 38.3202C106.238 38.3202 106.188 38.3202 106.089 38.2704C105.74 38.1212 105.591 37.7728 105.691 37.4244C105.74 37.3249 106.636 35.0357 108.328 33.7419C109.871 32.5475 110.468 32.0996 110.468 32.0996C110.767 31.9006 111.165 31.9503 111.414 32.1992C111.613 32.4978 111.563 32.8959 111.314 33.1447C111.314 33.1447 110.717 33.5926 109.174 34.7869C107.781 35.832 106.985 37.8723 106.985 37.8723C106.835 38.1709 106.586 38.3202 106.338 38.3202Z" fill="black"/>
<path d="M109.025 39.166C108.925 39.166 108.776 39.1163 108.677 39.0665C108.378 38.8674 108.278 38.4693 108.428 38.1707C108.477 38.121 109.423 36.5285 110.518 35.8318L111.513 35.1849C111.812 34.9858 112.21 35.0853 112.409 35.3839C112.608 35.6825 112.508 36.0806 112.21 36.2797L111.215 36.9266C110.518 37.3745 109.771 38.4693 109.572 38.8177C109.473 39.0167 109.224 39.166 109.025 39.166Z" fill="black"/>
<path d="M142.417 158.75C142.417 158.75 119.276 168.206 108.079 139.84C106.039 135.212 102.605 132.574 100.864 135.212C98.6241 134.167 98.3753 130.633 95.8871 132.624C93.3988 134.615 95.8871 139.84 95.8871 139.84C95.8871 139.84 91.8064 136.157 94.0458 126.901C95.7875 119.735 91.9059 121.029 90.1641 123.069C88.4224 125.11 71.4526 165.867 108.378 183.782C134.604 196.522 164.065 170.843 164.065 170.843L142.417 158.75Z" fill="#3B4B9A"/>
<path d="M108.477 38.7182C103.849 36.429 96.5837 38.121 93.8467 41.4055C91.1096 44.6899 88.074 49.5171 88.074 49.5171L90.0148 59.9179C90.0148 59.9179 90.612 60.4653 90.7115 62.008C90.7115 62.008 90.6617 104.656 107.681 133.221C124.701 161.786 136.594 167.857 136.594 167.857L143.163 180.1L149.633 164.921L138.386 156.461C138.386 156.461 126.99 145.065 117.485 117.396C107.233 87.388 111.961 67.5817 114.449 51.2091C114.947 47.6758 115.345 42.1022 108.477 38.7182Z" fill="#E3BFDC"/>
<path d="M107.034 44.5407C106.785 44.5407 106.537 44.3417 106.537 44.0929C106.537 43.844 106.736 43.5952 106.985 43.5454C107.134 43.5454 107.88 43.3961 107.98 42.4506C107.98 42.152 108.229 41.953 108.527 42.0027C108.826 42.0027 109.025 42.2516 108.975 42.5501C108.876 43.9933 107.681 44.491 107.034 44.5407Z" fill="black"/>
<path d="M108.229 45.6356C108.179 45.6356 108.129 45.6356 108.079 45.6356C107.781 45.6356 107.582 45.3868 107.631 45.0882C107.631 44.8393 107.88 44.5905 108.179 44.6403C108.278 44.6403 108.627 44.6403 108.876 44.4412C108.975 44.3417 109.075 44.1924 109.075 43.9933C109.075 43.6948 109.323 43.4957 109.622 43.5455C109.921 43.5455 110.12 43.7943 110.07 44.0929C110.02 44.5905 109.871 44.9886 109.522 45.2375C109.075 45.5858 108.527 45.6356 108.229 45.6356Z" fill="black"/>
<path opacity="0.5" d="M103.252 64.7451C106.44 64.7451 109.025 62.1606 109.025 58.9724C109.025 55.7842 106.44 53.1997 103.252 53.1997C100.064 53.1997 97.4795 55.7842 97.4795 58.9724C97.4795 62.1606 100.064 64.7451 103.252 64.7451Z" fill="#E56B63"/>
<path d="M103.252 54.394C106.523 54.394 109.174 51.7427 109.174 48.472C109.174 45.2014 106.523 42.55 103.252 42.55C99.9817 42.55 97.3303 45.2014 97.3303 48.472C97.3303 51.7427 99.9817 54.394 103.252 54.394Z" fill="white"/>
<path d="M103.252 54.394C106.523 54.394 109.174 51.7427 109.174 48.472C109.174 45.2014 106.523 42.55 103.252 42.55C99.9817 42.55 97.3303 45.2014 97.3303 48.472C97.3303 51.7427 99.9817 54.394 103.252 54.394Z" fill="white"/>
<path d="M171.629 221.056C171.766 221.056 171.878 220.944 171.878 220.807C171.878 220.67 171.766 220.558 171.629 220.558C171.491 220.558 171.38 220.67 171.38 220.807C171.38 220.944 171.491 221.056 171.629 221.056Z" fill="#DC91BB"/>
<path d="M171.38 214.984C171.517 214.984 171.629 214.873 171.629 214.736C171.629 214.598 171.517 214.487 171.38 214.487C171.243 214.487 171.131 214.598 171.131 214.736C171.131 214.873 171.243 214.984 171.38 214.984Z" fill="#DC91BB"/>
<path d="M156.252 192.242C156.252 192.242 157.595 194.631 159.237 199.109C161.726 205.828 164.96 217.274 165.458 232.551C166.055 250.566 153.266 266.441 153.266 266.441H158.491C158.491 266.441 170.783 246.286 172.823 234.393C174.863 222.499 175.461 200.403 168.643 189.157C161.775 177.91 156.252 192.242 156.252 192.242Z" fill="#E3BFDC"/>
<path d="M159.536 186.867C159.536 186.867 173.371 197.865 172.574 223.494C171.778 249.123 155.107 268.78 155.107 268.78L158.292 268.431C158.292 268.431 172.126 248.874 173.818 225.485C175.51 202.095 171.529 195.676 171.529 195.676L159.536 186.867Z" fill="#DC91BB"/>
<path d="M161.975 271.019L162.373 269.128H134.504C133.907 270.124 133.708 271.019 133.708 271.019H161.975Z" fill="#FEF6B1"/>
<path d="M139.979 268.382C139.979 268.68 139.979 268.929 139.929 269.128H162.373L164.612 259.175C164.612 259.175 161.079 259.474 159.536 260.718C157.993 261.962 157.396 264.799 157.396 264.799C157.396 264.799 156.6 264.998 157.595 261.912C158.64 258.827 157.098 259.126 157.098 259.126L154.012 265.048C154.012 265.048 143.263 265.645 138.983 266.242C139.581 266.69 140.028 267.386 139.979 268.382Z" fill="#D83530"/>
<path d="M134.554 269.128H139.979C139.979 268.88 139.979 268.631 140.028 268.382C140.078 267.387 139.63 266.69 139.033 266.292C138.933 266.292 138.784 266.342 138.685 266.342C136.545 266.69 135.251 267.984 134.554 269.128Z" fill="#FEF6B1"/>
<path d="M151.524 267.038C151.524 267.038 151.524 266.441 151.126 265.894C150.778 265.446 150.429 265.346 150.131 265.346C150.578 264.849 151.176 265.097 151.474 265.396C152.121 265.943 152.171 266.939 152.171 266.988L151.524 267.038H151.823H151.524Z" fill="white"/>
<path d="M149.733 267.138C149.733 267.138 149.733 266.54 149.334 265.993C148.986 265.545 148.638 265.446 148.339 265.446C148.787 264.948 149.384 265.197 149.683 265.495C150.33 266.043 150.379 267.038 150.379 267.088L149.733 267.138H150.031H149.733Z" fill="white"/>
<path d="M155.007 266.789C155.007 266.789 155.007 266.192 154.609 265.645C154.261 265.197 153.913 265.097 153.614 265.097C154.062 264.6 154.659 264.848 154.958 265.147C155.605 265.694 155.654 266.69 155.654 266.739L155.007 266.789H155.306H155.007Z" fill="white"/>
<path d="M153.216 266.889C153.216 266.889 153.216 266.292 152.818 265.744C152.469 265.296 152.121 265.197 151.823 265.197C152.27 264.699 152.868 264.948 153.166 265.247C153.813 265.794 153.863 266.789 153.863 266.839L153.216 266.889H153.515H153.216Z" fill="white"/>
<path d="M156.849 266.092C156.849 266.043 156.202 264.45 154.41 264.351C154.41 264.351 154.211 264.152 154.56 263.853C156.998 263.853 157.396 265.893 157.446 265.943L156.849 266.092Z" fill="white"/>
<path d="M162.671 203.19C162.946 203.19 163.169 202.967 163.169 202.692C163.169 202.418 162.946 202.195 162.671 202.195C162.396 202.195 162.174 202.418 162.174 202.692C162.174 202.967 162.396 203.19 162.671 203.19Z" fill="#DC91BB"/>
<path d="M166.652 217.274C166.79 217.274 166.901 217.162 166.901 217.025C166.901 216.887 166.79 216.776 166.652 216.776C166.515 216.776 166.404 216.887 166.404 217.025C166.404 217.162 166.515 217.274 166.652 217.274Z" fill="#DC91BB"/>
<path d="M167.25 205.28C167.387 205.28 167.498 205.169 167.498 205.031C167.498 204.894 167.387 204.782 167.25 204.782C167.112 204.782 167.001 204.894 167.001 205.031C167.001 205.169 167.112 205.28 167.25 205.28Z" fill="#DC91BB"/>
<path d="M169.738 208.863C170.013 208.863 170.236 208.64 170.236 208.366C170.236 208.091 170.013 207.868 169.738 207.868C169.463 207.868 169.24 208.091 169.24 208.366C169.24 208.64 169.463 208.863 169.738 208.863Z" fill="#DC91BB"/>
<path d="M169.738 227.177C170.013 227.177 170.236 226.954 170.236 226.679C170.236 226.404 170.013 226.181 169.738 226.181C169.463 226.181 169.24 226.404 169.24 226.679C169.24 226.954 169.463 227.177 169.738 227.177Z" fill="#DC91BB"/>
<path d="M166.652 224.041C166.927 224.041 167.15 223.819 167.15 223.544C167.15 223.269 166.927 223.046 166.652 223.046C166.378 223.046 166.155 223.269 166.155 223.544C166.155 223.819 166.378 224.041 166.652 224.041Z" fill="#DC91BB"/>
<path d="M168.344 242.703C168.619 242.703 168.842 242.48 168.842 242.206C168.842 241.931 168.619 241.708 168.344 241.708C168.069 241.708 167.847 241.931 167.847 242.206C167.847 242.48 168.069 242.703 168.344 242.703Z" fill="#DC91BB"/>
<path d="M161.974 255.742C162.249 255.742 162.472 255.519 162.472 255.244C162.472 254.969 162.249 254.746 161.974 254.746C161.7 254.746 161.477 254.969 161.477 255.244C161.477 255.519 161.7 255.742 161.974 255.742Z" fill="#DC91BB"/>
<path d="M168.096 234.243C168.233 234.243 168.344 234.132 168.344 233.994C168.344 233.857 168.233 233.746 168.096 233.746C167.958 233.746 167.847 233.857 167.847 233.994C167.847 234.132 167.958 234.243 168.096 234.243Z" fill="#DC91BB"/>
<path d="M165.06 211.003C165.28 211.003 165.458 210.825 165.458 210.605C165.458 210.385 165.28 210.207 165.06 210.207C164.84 210.207 164.662 210.385 164.662 210.605C164.662 210.825 164.84 211.003 165.06 211.003Z" fill="#DC91BB"/>
<path d="M164.911 246.933C165.048 246.933 165.16 246.822 165.16 246.684C165.16 246.547 165.048 246.436 164.911 246.436C164.773 246.436 164.662 246.547 164.662 246.684C164.662 246.822 164.773 246.933 164.911 246.933Z" fill="#DC91BB"/>
<path d="M164.612 251.81C164.75 251.81 164.861 251.699 164.861 251.561C164.861 251.424 164.75 251.312 164.612 251.312C164.475 251.312 164.363 251.424 164.363 251.561C164.363 251.699 164.475 251.81 164.612 251.81Z" fill="#DC91BB"/>
<path d="M159.486 259.175C159.624 259.175 159.735 259.064 159.735 258.927C159.735 258.789 159.624 258.678 159.486 258.678C159.349 258.678 159.238 258.789 159.238 258.927C159.238 259.064 159.349 259.175 159.486 259.175Z" fill="#DC91BB"/>
<path d="M164.413 200.055C159.785 198.363 159.287 199.11 159.287 199.11L157.993 194.481L171.629 195.676L173.221 200.851L164.413 200.055Z" fill="#DC91BB"/>
<path d="M175.262 194.034C175.262 194.034 176.605 196.422 178.248 200.901C180.736 207.619 183.971 219.065 184.468 234.343C185.065 252.358 172.276 268.233 172.276 268.233H177.501C177.501 268.233 189.793 248.078 191.833 236.184C193.874 224.291 194.471 202.195 187.653 190.948C180.786 179.701 175.262 194.034 175.262 194.034Z" fill="#E3BFDC"/>
<path d="M178.546 188.659C178.546 188.659 192.381 199.657 191.585 225.286C190.788 250.915 174.117 270.522 174.117 270.522L177.302 270.174C177.302 270.174 191.137 250.616 192.829 227.227C194.521 203.837 188.748 192.939 188.748 192.939L178.546 188.659Z" fill="#DC91BB"/>
<path d="M181.034 272.811L181.432 270.92H153.564C152.967 271.915 152.768 272.811 152.768 272.811H181.034Z" fill="#FEF6B1"/>
<path d="M158.989 270.173C158.989 270.472 158.989 270.721 158.939 270.92H181.383L183.622 260.967C183.622 260.967 180.089 261.266 178.546 262.51C177.004 263.754 176.406 266.59 176.406 266.59C176.406 266.59 175.61 266.789 176.605 263.704C177.601 260.619 176.108 260.917 176.108 260.917L173.022 266.889C173.022 266.889 162.273 267.486 157.993 268.083C158.591 268.481 159.038 269.128 158.989 270.173Z" fill="#E73B32"/>
<path d="M153.564 270.92H158.989C158.989 270.671 158.989 270.422 159.038 270.174C159.088 269.178 158.64 268.482 158.043 268.083C157.944 268.083 157.794 268.133 157.695 268.133C155.555 268.432 154.311 269.775 153.564 270.92Z" fill="#FEF6B1"/>
<path d="M170.534 268.78C170.534 268.78 170.534 268.183 170.136 267.636C169.788 267.188 169.439 267.088 169.141 267.088C169.589 266.59 170.186 266.839 170.484 267.138C171.131 267.685 171.181 268.681 171.181 268.73L170.534 268.78H170.833H170.534Z" fill="white"/>
<path d="M168.743 268.929C168.743 268.929 168.743 268.332 168.344 267.785C167.996 267.337 167.648 267.237 167.349 267.237C167.797 266.74 168.394 266.988 168.693 267.287C169.34 267.834 169.389 268.83 169.389 268.88L168.743 268.929H169.041H168.743Z" fill="white"/>
<path d="M174.018 268.581C174.018 268.581 174.018 267.984 173.62 267.436C173.271 266.988 172.923 266.889 172.624 266.889C173.072 266.391 173.669 266.64 173.968 266.939C174.615 267.486 174.665 268.481 174.665 268.531L174.018 268.581H174.316H174.018Z" fill="white"/>
<path d="M172.276 268.68C172.276 268.68 172.276 268.083 171.878 267.536C171.529 267.088 171.181 266.989 170.882 266.989C171.33 266.491 171.927 266.74 172.226 267.038C172.873 267.586 172.923 268.581 172.923 268.631L172.276 268.68H172.574H172.276Z" fill="white"/>
<path d="M175.859 267.884C175.859 267.834 175.212 266.242 173.42 266.142C173.42 266.142 173.221 265.943 173.57 265.645C176.008 265.645 176.406 267.685 176.456 267.735L175.859 267.884Z" fill="white"/>
<path d="M181.681 204.982C181.956 204.982 182.179 204.759 182.179 204.484C182.179 204.209 181.956 203.987 181.681 203.987C181.406 203.987 181.184 204.209 181.184 204.484C181.184 204.759 181.406 204.982 181.681 204.982Z" fill="#DC91BB"/>
<path d="M185.712 219.065C185.85 219.065 185.961 218.954 185.961 218.816C185.961 218.679 185.85 218.568 185.712 218.568C185.575 218.568 185.463 218.679 185.463 218.816C185.463 218.954 185.575 219.065 185.712 219.065Z" fill="#DC91BB"/>
<path d="M186.26 207.072C186.397 207.072 186.508 206.961 186.508 206.823C186.508 206.686 186.397 206.574 186.26 206.574C186.122 206.574 186.011 206.686 186.011 206.823C186.011 206.961 186.122 207.072 186.26 207.072Z" fill="#DC91BB"/>
<path d="M188.748 210.605C189.023 210.605 189.246 210.383 189.246 210.108C189.246 209.833 189.023 209.61 188.748 209.61C188.473 209.61 188.25 209.833 188.25 210.108C188.25 210.383 188.473 210.605 188.748 210.605Z" fill="#DC91BB"/>
<path d="M188.748 228.968C189.023 228.968 189.246 228.746 189.246 228.471C189.246 228.196 189.023 227.973 188.748 227.973C188.473 227.973 188.25 228.196 188.25 228.471C188.25 228.746 188.473 228.968 188.748 228.968Z" fill="#DC91BB"/>
<path d="M185.712 225.784C185.987 225.784 186.21 225.561 186.21 225.286C186.21 225.011 185.987 224.788 185.712 224.788C185.437 224.788 185.215 225.011 185.215 225.286C185.215 225.561 185.437 225.784 185.712 225.784Z" fill="#DC91BB"/>
<path d="M187.355 244.495C187.629 244.495 187.852 244.272 187.852 243.997C187.852 243.723 187.629 243.5 187.355 243.5C187.08 243.5 186.857 243.723 186.857 243.997C186.857 244.272 187.08 244.495 187.355 244.495Z" fill="#DC91BB"/>
<path d="M180.985 257.484C181.26 257.484 181.482 257.261 181.482 256.986C181.482 256.711 181.26 256.488 180.985 256.488C180.71 256.488 180.487 256.711 180.487 256.986C180.487 257.261 180.71 257.484 180.985 257.484Z" fill="#DC91BB"/>
<path d="M187.106 235.985C187.243 235.985 187.355 235.874 187.355 235.736C187.355 235.599 187.243 235.488 187.106 235.488C186.968 235.488 186.857 235.599 186.857 235.736C186.857 235.874 186.968 235.985 187.106 235.985Z" fill="#DC91BB"/>
<path d="M184.07 212.795C184.29 212.795 184.468 212.617 184.468 212.397C184.468 212.177 184.29 211.999 184.07 211.999C183.85 211.999 183.672 212.177 183.672 212.397C183.672 212.617 183.85 212.795 184.07 212.795Z" fill="#DC91BB"/>
<path d="M183.921 248.725C184.058 248.725 184.17 248.614 184.17 248.476C184.17 248.339 184.058 248.227 183.921 248.227C183.783 248.227 183.672 248.339 183.672 248.476C183.672 248.614 183.783 248.725 183.921 248.725Z" fill="#DC91BB"/>
<path d="M183.622 253.602C183.76 253.602 183.871 253.49 183.871 253.353C183.871 253.216 183.76 253.104 183.622 253.104C183.485 253.104 183.373 253.216 183.373 253.353C183.373 253.49 183.485 253.602 183.622 253.602Z" fill="#DC91BB"/>
<path d="M178.496 260.967C178.634 260.967 178.745 260.856 178.745 260.718C178.745 260.581 178.634 260.469 178.496 260.469C178.359 260.469 178.248 260.581 178.248 260.718C178.248 260.856 178.359 260.967 178.496 260.967Z" fill="#DC91BB"/>
<path d="M138.336 156.362C133.36 162.533 133.31 167.559 133.31 167.559C133.31 167.559 136.694 199.259 172.176 196.273C201.985 193.785 186.608 188.808 186.608 188.808C186.608 188.808 191.236 190.052 192.43 187.415C193.675 184.827 189.196 183.732 189.196 183.732C189.196 183.732 197.656 183.882 197.954 177.611C205.469 177.313 210.246 175.77 210.395 173.929C210.545 172.087 206.713 171.639 206.713 171.639C206.713 171.639 210.545 171.192 210.395 169.947C210.246 168.703 208.554 168.405 208.554 168.405C208.554 168.405 209.201 168.255 210.395 165.966C211.59 163.677 207.011 164.225 207.758 164.274C217.711 164.772 219.95 151.335 219.95 151.335C219.95 151.335 200.741 149.395 182.278 147.703C153.813 145.115 142.467 151.236 138.336 156.362Z" fill="#20264A"/>
<path d="M152.42 162.533C152.42 162.533 168.743 168.554 178.148 178.407C181.433 180.448 189.196 184.728 189.395 186.917C189.594 189.107 186.708 188.858 186.708 188.858C186.708 188.858 188.499 190.65 187.902 192.342C187.305 194.034 185.613 194.481 185.613 194.481L147.991 181.941C147.991 181.941 140.377 162.433 141.024 162.533C141.671 162.632 144.109 160.691 152.42 162.533Z" fill="#1F2142"/>
<path d="M133.36 170.097C133.36 170.097 140.476 196.323 164.861 197.915C185.364 199.259 186.508 197.169 186.359 195.477C186.21 193.785 178.695 193.038 178.695 193.038C178.695 193.038 185.911 194.282 186.359 191.943C186.807 189.605 184.667 190.102 178.845 187.166C184.816 188.41 185.712 189.306 186.409 187.166C187.106 185.026 182.677 184.578 179.74 182.389C176.804 180.249 162.124 169.301 146.149 163.379C129.677 157.258 133.36 170.097 133.36 170.097Z" fill="#282F55"/>
<path d="M177.103 180.05C177.103 180.05 184.667 186.469 182.677 188.062C185.513 188.709 187.554 189.505 187.802 187.415C188.101 185.325 178.646 180.1 177.103 180.05Z" fill="white"/>
<path d="M181.582 188.41C181.731 188.46 183.921 191.346 182.478 192.342C181.084 193.337 180.686 193.237 180.686 193.237C180.686 193.237 185.662 194.88 186.359 191.943C187.056 188.958 181.582 188.41 181.582 188.41Z" fill="white"/>
<path d="M176.356 198.363C176.356 198.363 182.229 198.164 183.572 196.223C184.866 194.282 183.572 193.884 183.572 193.884C183.572 193.884 186.857 194.581 186.658 195.676C186.459 196.721 187.155 198.612 176.356 198.363Z" fill="white"/>
<path d="M72 54.9415C71.8009 56.1856 75.1849 58.425 81.7041 58.6738C88.2233 58.9227 90.1143 60.1668 90.1143 60.1668C90.1143 60.1668 93.7969 58.8729 94.6429 56.3349C95.4889 53.7969 95.041 50.3134 91.8063 48.8702C89.3679 47.7754 88.8702 48.2233 88.8702 48.2233C88.8702 48.2233 86.0834 53.3988 81.2562 53.9462C76.1802 54.4936 72.2986 52.9011 72 54.9415Z" fill="#F6A13D"/>
<path d="M111.563 62.008C110.319 75.7928 108.975 89.1298 111.563 102.666C115.196 121.626 120.073 129.539 120.073 129.539C120.073 129.539 126.791 145.712 138.386 156.362C128.582 142.378 118.082 125.458 113.155 101.322C108.179 76.9374 114.549 50.2138 114.549 50.2138C114.748 48.6711 112.11 56.086 111.563 62.008Z" fill="#DC91BB"/>
<path d="M98.0768 81.4163C98.8189 81.4163 99.4204 80.8147 99.4204 80.0726C99.4204 79.3306 98.8189 78.729 98.0768 78.729C97.3347 78.729 96.7332 79.3306 96.7332 80.0726C96.7332 80.8147 97.3347 81.4163 98.0768 81.4163Z" fill="#D3AACF"/>
<path d="M109.771 111.623C110.541 111.623 111.165 111 111.165 110.23C111.165 109.461 110.541 108.837 109.771 108.837C109.002 108.837 108.378 109.461 108.378 110.23C108.378 111 109.002 111.623 109.771 111.623Z" fill="#D3AACF"/>
<path d="M115.644 142.627C116.248 142.627 116.738 142.137 116.738 141.532C116.738 140.927 116.248 140.437 115.644 140.437C115.039 140.437 114.549 140.927 114.549 141.532C114.549 142.137 115.039 142.627 115.644 142.627Z" fill="#D3AACF"/>
<path d="M134.704 157.855C135.446 157.855 136.047 157.253 136.047 156.511C136.047 155.769 135.446 155.167 134.704 155.167C133.961 155.167 133.36 155.769 133.36 156.511C133.36 157.253 133.961 157.855 134.704 157.855Z" fill="#D3AACF"/>
<path d="M103.252 51.4084C105.039 51.4084 106.487 49.9601 106.487 48.1737C106.487 46.3872 105.039 44.939 103.252 44.939C101.466 44.939 100.018 46.3872 100.018 48.1737C100.018 49.9601 101.466 51.4084 103.252 51.4084Z" fill="black"/>
<path d="M103.252 43.9934V47.4769L105.641 44.9389L103.252 43.9934Z" fill="white"/>
<path d="M79.0168 56.2851C79.0168 58.1264 74.8365 57.0814 74.9361 55.7875C75.0854 54.3941 79.0168 55.887 79.0168 56.2851Z" fill="black"/>
</g>
<defs>
<clipPath id="clip0">
<rect width="148" height="240.811" fill="white" transform="translate(72 32)"/>
</clipPath>
</defs>
</svg>
