<svg width="262" height="274" viewBox="0 0 262 274" fill="none" xmlns="http://www.w3.org/2000/svg">
<circle cx="131" cy="131" r="131" fill="#B7E3F0"/>
<path d="M70.2124 77.0061L70.2187 76.85H70.0625H69.1875H69.0435L69.0376 76.9939L68.9185 79.9276H66H65.85V80.0776V80.8621V81.0121H66H68.9064L68.7876 83.994L68.7814 84.15H68.9375H69.8125H69.9567L69.9624 84.006L70.0817 81.0121H73H73.15V80.8621V80.0776V79.9276H73H70.0937L70.2124 77.0061Z" fill="#7DC8DB" stroke="#7DC8DB" stroke-width="0.3"/>
<path d="M229.052 155.006L229.058 154.85H228.902H228.277H228.133L228.127 154.994L228.043 157.048H226H225.85V157.198V157.759V157.909H226H228.031L227.948 159.994L227.942 160.15H228.098H228.723H228.867L228.873 160.006L228.957 157.909H231H231.15V157.759V157.198V157.048H231H228.969L229.052 155.006Z" fill="#7DC8DB" stroke="#7DC8DB" stroke-width="0.3"/>
<circle cx="31" cy="175" r="4" stroke="#7DC8DB" stroke-width="2"/>
<circle cx="139" cy="234" r="2.5" stroke="#7DC8DB"/>
<path d="M243 66.3027C243 66.3027 176.598 96.4491 144 4" stroke="#7DC8DB" stroke-dasharray="4 4"/>
<path d="M207.734 61.3286C207.12 61.3286 206.507 61.387 205.893 61.5038C205.433 59.3424 203.96 57.473 201.874 56.4799C199.787 55.4868 197.363 55.4284 195.246 56.3631C193.344 51.3391 187.514 48.7687 182.268 50.5797C177.021 52.3906 174.291 57.9403 176.193 62.9351C171.591 63.0811 167.939 66.703 168.001 71.0844C168.062 75.4657 171.836 79 176.438 79H207.703C212.827 79 217 75.0276 217 70.1497C217.031 65.301 212.858 61.3286 207.734 61.3286Z" fill="white"/>
<path d="M94.0031 192.594C93.5398 192.594 93.0764 192.638 92.6131 192.727C92.2655 191.087 91.1535 189.669 89.578 188.916C88.0026 188.162 86.1724 188.118 84.5738 188.827C83.1373 185.016 78.7354 183.066 74.7737 184.44C70.812 185.814 68.75 190.024 70.1864 193.813C66.7112 193.924 63.9542 196.671 64.0006 199.995C64.0469 203.319 66.8966 206 70.3718 206H93.98C97.849 206 101 202.986 101 199.286C101.023 195.608 97.8722 192.594 94.0031 192.594Z" fill="white" fill-opacity="0.8"/>
<path d="M16.2404 98.0315C16.6537 98.0315 17.067 98.0678 17.4802 98.1403C17.7902 96.7987 18.782 95.6384 20.1871 95.022C21.5923 94.4056 23.2247 94.3693 24.6504 94.9495C25.9316 91.8312 29.8576 90.2358 33.391 91.3598C36.9245 92.4838 38.7635 95.9285 37.4824 99.0287C40.5819 99.1193 43.0408 101.367 42.9995 104.087C42.9582 106.806 40.4166 109 37.3171 109H16.2611C12.8103 109 10.0001 106.534 10.0001 103.507C9.97945 100.497 12.7897 98.0315 16.2404 98.0315Z" fill="white"/>
<g clip-path="url(#clip0)">
<path d="M117.451 38.9718C117.402 38.9718 117.402 38.9718 117.352 38.9718C117.003 38.922 116.755 38.5737 116.804 38.2253C116.804 38.076 117.252 35.1399 120.039 33.4977C120.338 33.2986 120.736 33.3982 120.935 33.7465C121.134 34.0451 121.034 34.4432 120.686 34.6423C118.447 35.9362 118.098 38.3746 118.098 38.4244C118.049 38.723 117.75 38.9718 117.451 38.9718Z" fill="black"/>
<path d="M120.338 39.3202C120.238 39.3202 120.188 39.3202 120.089 39.2704C119.74 39.1212 119.591 38.7728 119.691 38.4244C119.74 38.3249 120.636 36.0357 122.328 34.7419C123.871 33.5475 124.468 33.0996 124.468 33.0996C124.767 32.9006 125.165 32.9503 125.414 33.1992C125.613 33.4978 125.563 33.8959 125.314 34.1447C125.314 34.1447 124.717 34.5926 123.174 35.7869C121.781 36.832 120.985 38.8723 120.985 38.8723C120.835 39.1709 120.586 39.3202 120.338 39.3202Z" fill="black"/>
<path d="M123.025 40.166C122.925 40.166 122.776 40.1163 122.677 40.0665C122.378 39.8674 122.278 39.4693 122.428 39.1707C122.477 39.121 123.423 37.5285 124.518 36.8318L125.513 36.1849C125.812 35.9858 126.21 36.0853 126.409 36.3839C126.608 36.6825 126.508 37.0806 126.21 37.2797L125.215 37.9266C124.518 38.3745 123.771 39.4693 123.572 39.8177C123.473 40.0167 123.224 40.166 123.025 40.166Z" fill="black"/>
<path d="M122.477 39.7182C117.849 37.429 110.584 39.121 107.847 42.4055C105.11 45.6899 102.074 50.5171 102.074 50.5171L104.015 60.9179C104.015 60.9179 104.612 61.4653 104.711 63.008C104.711 63.008 104.662 105.656 121.681 134.221C138.701 162.786 150.594 168.857 150.594 168.857L157.163 181.1L163.633 165.921L152.386 157.461C152.386 157.461 140.99 146.065 131.485 118.396C121.233 88.388 125.961 68.5817 128.449 52.2091C128.947 48.6758 129.345 43.1022 122.477 39.7182Z" fill="#E3BFDC"/>
<path d="M121.034 45.5407C120.785 45.5407 120.537 45.3417 120.537 45.0929C120.537 44.844 120.736 44.5952 120.985 44.5454C121.134 44.5454 121.88 44.3961 121.98 43.4506C121.98 43.152 122.229 42.953 122.527 43.0027C122.826 43.0027 123.025 43.2516 122.975 43.5501C122.876 44.9933 121.681 45.491 121.034 45.5407Z" fill="black"/>
<path d="M122.229 46.6356C122.179 46.6356 122.129 46.6356 122.079 46.6356C121.781 46.6356 121.582 46.3868 121.631 46.0882C121.631 45.8393 121.88 45.5905 122.179 45.6403C122.278 45.6403 122.627 45.6403 122.876 45.4412C122.975 45.3417 123.075 45.1924 123.075 44.9933C123.075 44.6948 123.323 44.4957 123.622 44.5455C123.921 44.5455 124.12 44.7943 124.07 45.0929C124.02 45.5905 123.871 45.9886 123.522 46.2375C123.075 46.5858 122.527 46.6356 122.229 46.6356Z" fill="black"/>
<path opacity="0.5" d="M117.252 65.7451C120.44 65.7451 123.025 63.1606 123.025 59.9724C123.025 56.7842 120.44 54.1997 117.252 54.1997C114.064 54.1997 111.479 56.7842 111.479 59.9724C111.479 63.1606 114.064 65.7451 117.252 65.7451Z" fill="#E56B63"/>
<path d="M117.252 55.394C120.523 55.394 123.174 52.7427 123.174 49.472C123.174 46.2014 120.523 43.55 117.252 43.55C113.982 43.55 111.33 46.2014 111.33 49.472C111.33 52.7427 113.982 55.394 117.252 55.394Z" fill="white"/>
<path d="M117.252 55.394C120.523 55.394 123.174 52.7427 123.174 49.472C123.174 46.2014 120.523 43.55 117.252 43.55C113.982 43.55 111.33 46.2014 111.33 49.472C111.33 52.7427 113.982 55.394 117.252 55.394Z" fill="white"/>
<path d="M145.319 164.229C145.319 164.229 133.028 169.654 125.861 164.827C118.695 160.049 115.51 154.227 114.316 142.831C113.122 131.434 108.941 134.619 108.941 134.619C108.941 134.619 105.557 138.202 107.15 147.807C106.702 148.802 99.7847 147.16 98.1923 150.494C96.5998 153.829 98.1923 155.819 98.1923 155.819C98.1923 155.819 97.197 157.213 97.4956 159.203C97.7942 161.194 98.7895 162.985 98.7895 162.985C98.7895 162.985 97.7942 164.777 98.9885 166.767C100.183 168.758 100.382 170.798 100.382 170.798C100.382 170.798 100.979 172.192 102.97 174.978C104.96 177.765 129.196 206.977 155.471 183.19C157.661 181.05 159.851 166.021 145.319 164.229Z" fill="#3B4B9A"/>
<path d="M105.16 151.639C105.16 151.639 112.923 154.027 112.127 156.665C111.33 159.253 103.368 161.044 98.1925 155.869C93.0169 150.693 99.984 148.504 102.771 148.354C105.558 148.255 107.15 147.857 107.15 147.857L105.16 151.639Z" fill="#20264A"/>
<path d="M106.354 159.153C106.354 159.153 114.117 162.836 113.122 165.424C112.127 168.011 108.145 170.301 99.5858 163.334C91.0263 156.367 97.9934 155.222 97.9934 155.222L106.354 159.153Z" fill="#20264A"/>
<path d="M99.4364 161.592C99.4364 161.592 97.2467 165.971 99.934 168.808C102.621 171.644 108.294 176.471 112.226 175.227C116.157 173.983 110.982 169.405 110.982 169.405L107.2 164.827L99.4364 161.592Z" fill="#20264A"/>
<path d="M185.629 222.056C185.766 222.056 185.878 221.944 185.878 221.807C185.878 221.67 185.766 221.558 185.629 221.558C185.491 221.558 185.38 221.67 185.38 221.807C185.38 221.944 185.491 222.056 185.629 222.056Z" fill="#DC91BB"/>
<path d="M185.38 215.984C185.517 215.984 185.629 215.873 185.629 215.736C185.629 215.598 185.517 215.487 185.38 215.487C185.243 215.487 185.131 215.598 185.131 215.736C185.131 215.873 185.243 215.984 185.38 215.984Z" fill="#DC91BB"/>
<path d="M170.252 193.242C170.252 193.242 171.595 195.631 173.237 200.109C175.726 206.828 178.96 218.274 179.458 233.551C180.055 251.566 167.266 267.441 167.266 267.441H172.491C172.491 267.441 184.783 247.286 186.823 235.393C188.863 223.499 189.461 201.403 182.643 190.157C175.775 178.91 170.252 193.242 170.252 193.242Z" fill="#E3BFDC"/>
<path d="M173.536 187.867C173.536 187.867 187.371 198.865 186.574 224.494C185.778 250.123 169.107 269.78 169.107 269.78L172.292 269.431C172.292 269.431 186.126 249.874 187.818 226.485C189.51 203.095 185.529 196.676 185.529 196.676L173.536 187.867Z" fill="#DC91BB"/>
<path d="M175.975 272.019L176.373 270.128H148.504C147.907 271.124 147.708 272.019 147.708 272.019H175.975Z" fill="#FEF6B1"/>
<path d="M153.979 269.382C153.979 269.68 153.979 269.929 153.929 270.128H176.373L178.612 260.175C178.612 260.175 175.079 260.474 173.536 261.718C171.993 262.962 171.396 265.799 171.396 265.799C171.396 265.799 170.6 265.998 171.595 262.912C172.64 259.827 171.098 260.126 171.098 260.126L168.012 266.048C168.012 266.048 157.263 266.645 152.983 267.242C153.581 267.69 154.028 268.386 153.979 269.382Z" fill="#E73B32"/>
<path d="M148.554 270.128H153.979C153.979 269.879 153.979 269.63 154.028 269.382C154.078 268.386 153.63 267.69 153.033 267.292C152.933 267.292 152.784 267.341 152.685 267.341C150.545 267.69 149.251 268.984 148.554 270.128Z" fill="#FEF6B1"/>
<path d="M165.524 268.038C165.524 268.038 165.524 267.441 165.126 266.893C164.778 266.445 164.429 266.346 164.131 266.346C164.578 265.848 165.176 266.097 165.474 266.396C166.121 266.943 166.171 267.938 166.171 267.988L165.524 268.038H165.823H165.524Z" fill="white"/>
<path d="M163.733 268.138C163.733 268.138 163.733 267.54 163.334 266.993C162.986 266.545 162.638 266.446 162.339 266.446C162.787 265.948 163.384 266.197 163.683 266.495C164.33 267.043 164.379 268.038 164.379 268.088L163.733 268.138H164.031H163.733Z" fill="white"/>
<path d="M169.007 267.789C169.007 267.789 169.007 267.192 168.609 266.645C168.261 266.197 167.913 266.097 167.614 266.097C168.062 265.6 168.659 265.848 168.958 266.147C169.605 266.694 169.654 267.69 169.654 267.739L169.007 267.789H169.306H169.007Z" fill="white"/>
<path d="M167.216 267.889C167.216 267.889 167.216 267.292 166.818 266.744C166.469 266.296 166.121 266.197 165.823 266.197C166.27 265.699 166.868 265.948 167.166 266.247C167.813 266.794 167.863 267.789 167.863 267.839L167.216 267.889H167.515H167.216Z" fill="white"/>
<path d="M170.849 267.092C170.849 267.043 170.202 265.45 168.41 265.351C168.41 265.351 168.211 265.152 168.56 264.853C170.998 264.853 171.396 266.893 171.446 266.943L170.849 267.092Z" fill="white"/>
<path d="M176.671 204.19C176.946 204.19 177.169 203.967 177.169 203.692C177.169 203.418 176.946 203.195 176.671 203.195C176.396 203.195 176.174 203.418 176.174 203.692C176.174 203.967 176.396 204.19 176.671 204.19Z" fill="#DC91BB"/>
<path d="M180.652 218.274C180.79 218.274 180.901 218.162 180.901 218.025C180.901 217.887 180.79 217.776 180.652 217.776C180.515 217.776 180.404 217.887 180.404 218.025C180.404 218.162 180.515 218.274 180.652 218.274Z" fill="#DC91BB"/>
<path d="M181.25 206.28C181.387 206.28 181.498 206.169 181.498 206.031C181.498 205.894 181.387 205.782 181.25 205.782C181.112 205.782 181.001 205.894 181.001 206.031C181.001 206.169 181.112 206.28 181.25 206.28Z" fill="#DC91BB"/>
<path d="M183.738 209.863C184.013 209.863 184.236 209.64 184.236 209.366C184.236 209.091 184.013 208.868 183.738 208.868C183.463 208.868 183.24 209.091 183.24 209.366C183.24 209.64 183.463 209.863 183.738 209.863Z" fill="#DC91BB"/>
<path d="M183.738 228.177C184.013 228.177 184.236 227.954 184.236 227.679C184.236 227.404 184.013 227.181 183.738 227.181C183.463 227.181 183.24 227.404 183.24 227.679C183.24 227.954 183.463 228.177 183.738 228.177Z" fill="#DC91BB"/>
<path d="M180.652 225.041C180.927 225.041 181.15 224.819 181.15 224.544C181.15 224.269 180.927 224.046 180.652 224.046C180.378 224.046 180.155 224.269 180.155 224.544C180.155 224.819 180.378 225.041 180.652 225.041Z" fill="#DC91BB"/>
<path d="M182.344 243.703C182.619 243.703 182.842 243.481 182.842 243.206C182.842 242.931 182.619 242.708 182.344 242.708C182.069 242.708 181.847 242.931 181.847 243.206C181.847 243.481 182.069 243.703 182.344 243.703Z" fill="#DC91BB"/>
<path d="M175.974 256.742C176.249 256.742 176.472 256.519 176.472 256.244C176.472 255.969 176.249 255.746 175.974 255.746C175.7 255.746 175.477 255.969 175.477 256.244C175.477 256.519 175.7 256.742 175.974 256.742Z" fill="#DC91BB"/>
<path d="M182.096 235.243C182.233 235.243 182.344 235.132 182.344 234.994C182.344 234.857 182.233 234.746 182.096 234.746C181.958 234.746 181.847 234.857 181.847 234.994C181.847 235.132 181.958 235.243 182.096 235.243Z" fill="#DC91BB"/>
<path d="M179.06 212.003C179.28 212.003 179.458 211.825 179.458 211.605C179.458 211.385 179.28 211.207 179.06 211.207C178.84 211.207 178.662 211.385 178.662 211.605C178.662 211.825 178.84 212.003 179.06 212.003Z" fill="#DC91BB"/>
<path d="M178.911 247.933C179.048 247.933 179.16 247.822 179.16 247.684C179.16 247.547 179.048 247.436 178.911 247.436C178.773 247.436 178.662 247.547 178.662 247.684C178.662 247.822 178.773 247.933 178.911 247.933Z" fill="#DC91BB"/>
<path d="M178.612 252.81C178.75 252.81 178.861 252.699 178.861 252.561C178.861 252.424 178.75 252.312 178.612 252.312C178.475 252.312 178.363 252.424 178.363 252.561C178.363 252.699 178.475 252.81 178.612 252.81Z" fill="#DC91BB"/>
<path d="M173.486 260.175C173.624 260.175 173.735 260.064 173.735 259.927C173.735 259.789 173.624 259.678 173.486 259.678C173.349 259.678 173.238 259.789 173.238 259.927C173.238 260.064 173.349 260.175 173.486 260.175Z" fill="#DC91BB"/>
<path d="M178.413 201.055C173.785 199.363 173.287 200.11 173.287 200.11L171.993 195.481L185.629 196.676L187.221 201.851L178.413 201.055Z" fill="#DC91BB"/>
<path d="M189.212 194.188C189.212 194.188 197.572 209.067 198.418 234.497C199.015 252.512 186.226 268.387 186.226 268.387H191.451C191.451 268.387 202.499 247.933 205.783 236.338C208.919 225.241 208.421 202.349 201.603 191.102C194.736 179.905 189.212 194.188 189.212 194.188Z" fill="#E3BFDB"/>
<path d="M198.667 192.545C198.667 192.545 208.57 203.344 206.43 223.549C203.594 249.824 189.51 268.735 189.51 268.735L192.048 269.432C192.048 269.432 211.457 238.727 208.521 214.292C205.634 189.908 201.305 188.166 201.305 188.166L198.667 192.545Z" fill="#DC91BB"/>
<path d="M192.148 201.005C192.148 201.005 200.757 201.404 201.802 199.761C202.847 198.119 201.802 197.323 201.802 197.323C201.802 197.323 203.942 196.328 203.146 194.287C201.952 191.252 190.307 196.576 190.307 196.576L192.148 201.005Z" fill="#BA6E9D"/>
<path d="M196.378 204.439C196.378 204.688 196.179 204.937 195.88 204.937C195.631 204.937 195.383 204.738 195.383 204.439C195.383 204.14 195.582 203.941 195.88 203.941C196.179 203.991 196.378 204.19 196.378 204.439Z" fill="#BA6E9D"/>
<path d="M203.146 212.202C203.283 212.202 203.395 212.091 203.395 211.953C203.395 211.816 203.283 211.705 203.146 211.705C203.008 211.705 202.897 211.816 202.897 211.953C202.897 212.091 203.008 212.202 203.146 212.202Z" fill="#BA6E9D"/>
<path d="M198.02 210.062C198.157 210.062 198.269 209.951 198.269 209.814C198.269 209.676 198.157 209.565 198.02 209.565C197.883 209.565 197.771 209.676 197.771 209.814C197.771 209.951 197.883 210.062 198.02 210.062Z" fill="#BA6E9D"/>
<path d="M198.916 217.627C199.053 217.627 199.165 217.515 199.165 217.378C199.165 217.241 199.053 217.129 198.916 217.129C198.778 217.129 198.667 217.241 198.667 217.378C198.667 217.515 198.778 217.627 198.916 217.627Z" fill="#BA6E9D"/>
<path d="M200.658 232.705C200.795 232.705 200.907 232.594 200.907 232.457C200.907 232.319 200.795 232.208 200.658 232.208C200.52 232.208 200.409 232.319 200.409 232.457C200.409 232.594 200.52 232.705 200.658 232.705Z" fill="#BA6E9D"/>
<path d="M204.987 222.255C205.262 222.255 205.485 222.032 205.485 221.757C205.485 221.482 205.262 221.26 204.987 221.26C204.712 221.26 204.49 221.482 204.49 221.757C204.49 222.032 204.712 222.255 204.987 222.255Z" fill="#BA6E9D"/>
<path d="M201.852 242.161C202.127 242.161 202.35 241.938 202.35 241.663C202.35 241.388 202.127 241.165 201.852 241.165C201.577 241.165 201.354 241.388 201.354 241.663C201.354 241.938 201.577 242.161 201.852 242.161Z" fill="#BA6E9D"/>
<path d="M198.02 250.272C198.295 250.272 198.518 250.049 198.518 249.774C198.518 249.5 198.295 249.277 198.02 249.277C197.745 249.277 197.522 249.5 197.522 249.774C197.522 250.049 197.745 250.272 198.02 250.272Z" fill="#BA6E9D"/>
<path d="M195.034 258.782C195.309 258.782 195.532 258.559 195.532 258.284C195.532 258.009 195.309 257.787 195.034 257.787C194.759 257.787 194.537 258.009 194.537 258.284C194.537 258.559 194.759 258.782 195.034 258.782Z" fill="#BA6E9D"/>
<path d="M204.539 204.19C204.814 204.19 205.037 203.967 205.037 203.692C205.037 203.418 204.814 203.195 204.539 203.195C204.264 203.195 204.042 203.418 204.042 203.692C204.042 203.967 204.264 204.19 204.539 204.19Z" fill="#BA6E9D"/>
<path d="M200.409 238.777C200.546 238.777 200.658 238.665 200.658 238.528C200.658 238.39 200.546 238.279 200.409 238.279C200.271 238.279 200.16 238.39 200.16 238.528C200.16 238.665 200.271 238.777 200.409 238.777Z" fill="#BA6E9D"/>
<path d="M199.165 244.748C199.302 244.748 199.414 244.637 199.414 244.5C199.414 244.362 199.302 244.251 199.165 244.251C199.027 244.251 198.916 244.362 198.916 244.5C198.916 244.637 199.027 244.748 199.165 244.748Z" fill="#BA6E9D"/>
<path d="M204.042 230.516C204.316 230.516 204.539 230.293 204.539 230.018C204.539 229.743 204.316 229.52 204.042 229.52C203.767 229.52 203.544 229.743 203.544 230.018C203.544 230.293 203.767 230.516 204.042 230.516Z" fill="#BA6E9D"/>
<path d="M200.16 225.489C200.435 225.489 200.658 225.267 200.658 224.992C200.658 224.717 200.435 224.494 200.16 224.494C199.885 224.494 199.662 224.717 199.662 224.992C199.662 225.267 199.885 225.489 200.16 225.489Z" fill="#BA6E9D"/>
<path d="M194.935 273.015L195.333 271.124H167.465C166.868 272.119 166.668 273.015 166.668 273.015H194.935Z" fill="#FEF6B1"/>
<path d="M172.939 270.328C172.939 270.626 172.939 270.875 172.889 271.074H195.333L197.572 261.121C197.572 261.121 194.039 261.42 192.496 262.664C190.954 263.908 190.357 266.745 190.357 266.745C190.357 266.745 189.56 266.944 190.556 263.858C191.601 260.773 190.058 261.071 190.058 261.071L186.973 266.993C186.973 266.993 176.223 267.591 171.944 268.188C172.541 268.636 172.989 269.332 172.939 270.328Z" fill="#E73B32"/>
<path d="M167.514 271.074H172.939C172.939 270.825 172.939 270.576 172.989 270.328C173.038 269.332 172.59 268.636 171.993 268.238C171.894 268.238 171.744 268.287 171.645 268.287C169.455 268.636 168.211 269.93 167.514 271.074Z" fill="#FEF6B1"/>
<path d="M184.434 268.984C184.434 268.984 184.434 268.387 184.036 267.839C183.688 267.392 183.34 267.292 183.041 267.292C183.489 266.794 184.086 267.043 184.385 267.342C185.032 267.889 185.081 268.884 185.081 268.934L184.434 268.984H184.733H184.434Z" fill="white"/>
<path d="M182.643 269.083C182.643 269.083 182.643 268.486 182.245 267.939C181.896 267.491 181.548 267.391 181.25 267.391C181.697 266.894 182.295 267.143 182.593 267.441C183.24 267.989 183.29 268.984 183.29 269.034L182.643 269.083H182.942H182.643Z" fill="white"/>
<path d="M187.968 268.735C187.968 268.735 187.968 268.138 187.57 267.59C187.221 267.142 186.873 267.043 186.574 267.043C187.022 266.545 187.619 266.794 187.918 267.093C188.565 267.64 188.615 268.635 188.615 268.685L187.968 268.735H188.266H187.968Z" fill="white"/>
<path d="M186.176 268.835C186.176 268.835 186.176 268.237 185.778 267.69C185.43 267.242 185.081 267.143 184.783 267.143C185.231 266.645 185.828 266.894 186.126 267.192C186.773 267.74 186.823 268.735 186.823 268.785L186.176 268.835H186.475H186.176Z" fill="white"/>
<path d="M189.759 268.038C189.759 267.988 189.112 266.396 187.321 266.296C187.321 266.296 187.122 266.097 187.47 265.799C189.909 265.799 190.307 267.839 190.356 267.889L189.759 268.038Z" fill="white"/>
<path d="M152.336 157.362C147.36 163.532 147.31 168.559 147.31 168.559C147.31 168.559 150.694 200.259 186.176 197.273C215.985 194.785 200.608 189.808 200.608 189.808C200.608 189.808 205.236 191.052 206.43 188.415C207.675 185.827 203.196 184.732 203.196 184.732C203.196 184.732 211.656 184.882 211.954 178.611C219.469 178.313 224.246 176.77 224.395 174.929C224.545 173.087 220.713 172.639 220.713 172.639C220.713 172.639 224.545 172.192 224.395 170.947C224.246 169.703 222.554 169.405 222.554 169.405C222.554 169.405 223.201 169.255 224.395 166.966C225.59 164.677 221.011 165.224 221.758 165.274C231.711 165.772 233.95 152.335 233.95 152.335C233.95 152.335 214.741 150.395 196.278 148.703C167.813 146.115 156.467 152.236 152.336 157.362Z" fill="#20264A"/>
<path d="M166.42 163.533C166.42 163.533 182.743 169.554 192.148 179.407C195.433 181.448 203.196 185.728 203.395 187.917C203.594 190.107 200.708 189.858 200.708 189.858C200.708 189.858 202.499 191.65 201.902 193.342C201.305 195.034 199.613 195.481 199.613 195.481L161.991 182.941C161.991 182.941 154.377 163.433 155.024 163.533C155.671 163.632 158.109 161.691 166.42 163.533Z" fill="#1F2142"/>
<path d="M147.36 171.097C147.36 171.097 154.476 197.323 178.861 198.915C199.364 200.259 200.508 198.169 200.359 196.477C200.21 194.785 192.695 194.038 192.695 194.038C192.695 194.038 199.911 195.282 200.359 192.943C200.807 190.604 198.667 191.102 192.845 188.166C198.816 189.41 199.712 190.306 200.409 188.166C201.106 186.026 196.677 185.578 193.74 183.389C190.804 181.249 176.124 170.301 160.149 164.379C143.677 158.258 147.36 171.097 147.36 171.097Z" fill="#282F55"/>
<path d="M191.103 181.05C191.103 181.05 198.667 187.469 196.677 189.062C199.513 189.709 201.554 190.505 201.802 188.415C202.101 186.325 192.646 181.1 191.103 181.05Z" fill="white"/>
<path d="M195.582 189.41C195.731 189.46 197.921 192.346 196.478 193.342C195.084 194.337 194.686 194.237 194.686 194.237C194.686 194.237 199.662 195.88 200.359 192.943C201.056 189.958 195.582 189.41 195.582 189.41Z" fill="white"/>
<path d="M190.356 199.363C190.356 199.363 196.229 199.164 197.572 197.223C198.866 195.282 197.572 194.884 197.572 194.884C197.572 194.884 200.857 195.581 200.658 196.676C200.459 197.721 201.155 199.612 190.356 199.363Z" fill="white"/>
<path d="M86 55.9415C85.8009 57.1856 89.1849 59.425 95.7041 59.6738C102.223 59.9227 104.114 61.1668 104.114 61.1668C104.114 61.1668 107.797 59.8729 108.643 57.3349C109.489 54.7969 109.041 51.3134 105.806 49.8702C103.368 48.7754 102.87 49.2233 102.87 49.2233C102.87 49.2233 100.083 54.3988 95.2562 54.9462C90.1802 55.4936 86.2986 53.9011 86 55.9415Z" fill="#F6A13D"/>
<path d="M105.159 55.643C105.06 55.842 104.96 55.9415 104.861 56.0411C104.761 56.1406 104.662 56.2899 104.562 56.3894C104.363 56.5885 104.114 56.7875 103.866 56.9368C103.368 57.2354 102.87 57.4842 102.373 57.6833C101.328 58.0814 100.233 58.2307 99.1876 58.3302C97.0477 58.5293 94.9079 58.2805 92.8178 57.9819C91.5736 57.8824 90.3793 57.6833 89.2347 57.3847C88.0901 57.0861 86.9953 56.6382 86 55.9415C86.9953 56.5885 88.1399 56.9866 89.2845 57.2354C90.4291 57.4842 91.6234 57.6335 92.768 57.6335C94.8581 57.8824 96.998 57.9321 99.0383 57.6833C100.083 57.534 101.079 57.2852 102.024 56.8871C102.472 56.688 102.92 56.4392 103.318 56.1406C103.517 55.9913 103.716 55.842 103.866 55.6927C103.965 55.5932 104.015 55.5434 104.065 55.4439C104.114 55.3444 104.214 55.2448 104.214 55.1951L105.159 55.643Z" fill="#2D2618"/>
<path d="M125.563 63.008C124.319 76.7928 122.975 90.1298 125.563 103.666C129.196 122.626 134.073 130.539 134.073 130.539C134.073 130.539 140.791 146.712 152.386 157.362C142.582 143.378 132.082 126.458 127.155 102.322C122.179 77.9374 128.549 51.2138 128.549 51.2138C128.748 49.6711 126.11 57.0861 125.563 63.008Z" fill="#DC91BB"/>
<path d="M112.077 82.4163C112.819 82.4163 113.42 81.8147 113.42 81.0726C113.42 80.3306 112.819 79.729 112.077 79.729C111.335 79.729 110.733 80.3306 110.733 81.0726C110.733 81.8147 111.335 82.4163 112.077 82.4163Z" fill="#D3AACF"/>
<path d="M123.771 112.623C124.541 112.623 125.165 112 125.165 111.23C125.165 110.461 124.541 109.837 123.771 109.837C123.002 109.837 122.378 110.461 122.378 111.23C122.378 112 123.002 112.623 123.771 112.623Z" fill="#D3AACF"/>
<path d="M129.644 143.627C130.248 143.627 130.738 143.137 130.738 142.532C130.738 141.927 130.248 141.437 129.644 141.437C129.039 141.437 128.549 141.927 128.549 142.532C128.549 143.137 129.039 143.627 129.644 143.627Z" fill="#D3AACF"/>
<path d="M148.704 158.855C149.446 158.855 150.047 158.253 150.047 157.511C150.047 156.769 149.446 156.167 148.704 156.167C147.961 156.167 147.36 156.769 147.36 157.511C147.36 158.253 147.961 158.855 148.704 158.855Z" fill="#D3AACF"/>
<path d="M117.252 53.8017C119.039 53.8017 120.487 52.3535 120.487 50.567C120.487 48.7805 119.039 47.3323 117.252 47.3323C115.466 47.3323 114.018 48.7805 114.018 50.567C114.018 52.3535 115.466 53.8017 117.252 53.8017Z" fill="black"/>
<path d="M117.252 46.3867V49.8702L119.641 47.382L117.252 46.3867Z" fill="white"/>
<path d="M134.122 53.1049C134.222 52.6072 134.072 52.1593 133.724 51.7115C132.58 50.2683 128.897 49.6214 126.906 49.4223C127.653 48.2279 128.051 47.2824 128.101 47.1829L128.499 46.3369L110.484 42.0571L110.235 42.6045C110.185 42.7041 109.887 43.4008 109.588 44.3961L105.906 44.5454L105.209 45.9388H109.24C108.643 48.7256 108.444 52.657 111.33 54.9959C111.629 55.2448 111.927 55.4438 112.276 55.6429C114.565 56.9865 116.904 57.2353 119.193 56.5386C122.179 55.5931 124.518 53.0551 126.06 50.8655C128.449 51.0645 131.883 51.7612 132.629 52.7068C132.729 52.8063 132.729 52.9058 132.729 52.9058C132.679 53.3039 132.928 53.7021 133.326 53.7518C133.674 53.8016 134.023 53.503 134.122 53.1049ZM118.695 55.0457C116.804 55.6429 114.913 55.394 113.022 54.2992C108.892 51.9105 110.683 45.7397 111.38 43.8487L126.359 47.4317C125.364 49.273 122.577 53.8016 118.695 55.0457Z" fill="#232323"/>
</g>
<defs>
<clipPath id="clip0">
<rect width="148" height="240.015" fill="white" transform="translate(86 33)"/>
</clipPath>
</defs>
</svg>
